G75*
G70*
%OFA0B0*%
%FSLAX24Y24*%
%IPPOS*%
%LPD*%
%AMOC8*
5,1,8,0,0,1.08239X$1,22.5*
%
%ADD10C,0.0000*%
%ADD11C,0.0060*%
%ADD12C,0.0030*%
%ADD13C,0.0050*%
%ADD14C,0.0020*%
%ADD15C,0.0010*%
%ADD16C,0.0160*%
%ADD17C,0.0040*%
%ADD18R,0.0167X0.0128*%
%ADD19R,0.0138X0.0138*%
%ADD20C,0.0080*%
%ADD21R,0.0200X0.0200*%
D10*
X000237Y000180D02*
X000237Y030050D01*
X025229Y030050D01*
X025229Y000180D01*
X000237Y000180D01*
D11*
X006587Y007480D02*
X006587Y009880D01*
X006589Y009930D01*
X006595Y009979D01*
X006604Y010028D01*
X006617Y010076D01*
X006634Y010123D01*
X006654Y010168D01*
X006678Y010212D01*
X006705Y010254D01*
X006736Y010294D01*
X006769Y010331D01*
X006805Y010365D01*
X006843Y010397D01*
X006884Y010426D01*
X006926Y010451D01*
X006971Y010473D01*
X007017Y010492D01*
X007065Y010507D01*
X007113Y010518D01*
X007162Y010526D01*
X007212Y010530D01*
X007262Y010530D01*
X007312Y010526D01*
X007361Y010518D01*
X007409Y010507D01*
X007457Y010492D01*
X007503Y010473D01*
X007548Y010451D01*
X007590Y010426D01*
X007631Y010397D01*
X007669Y010365D01*
X007705Y010331D01*
X007738Y010294D01*
X007769Y010254D01*
X007796Y010212D01*
X007820Y010168D01*
X007840Y010123D01*
X007857Y010076D01*
X007870Y010028D01*
X007879Y009979D01*
X007885Y009930D01*
X007887Y009880D01*
X007887Y007480D01*
X007885Y007430D01*
X007879Y007381D01*
X007870Y007332D01*
X007857Y007284D01*
X007840Y007237D01*
X007820Y007192D01*
X007796Y007148D01*
X007769Y007106D01*
X007738Y007066D01*
X007705Y007029D01*
X007669Y006995D01*
X007631Y006963D01*
X007590Y006934D01*
X007548Y006909D01*
X007503Y006887D01*
X007457Y006868D01*
X007409Y006853D01*
X007361Y006842D01*
X007312Y006834D01*
X007262Y006830D01*
X007212Y006830D01*
X007162Y006834D01*
X007113Y006842D01*
X007065Y006853D01*
X007017Y006868D01*
X006971Y006887D01*
X006926Y006909D01*
X006884Y006934D01*
X006843Y006963D01*
X006805Y006995D01*
X006769Y007029D01*
X006736Y007066D01*
X006705Y007106D01*
X006678Y007148D01*
X006654Y007192D01*
X006634Y007237D01*
X006617Y007284D01*
X006604Y007332D01*
X006595Y007381D01*
X006589Y007430D01*
X006587Y007480D01*
X007237Y008180D02*
X007237Y008430D01*
X007537Y008430D01*
X007537Y008580D02*
X006937Y008580D01*
X006937Y008780D01*
X007537Y008780D01*
X007537Y008580D01*
X007237Y008430D02*
X006937Y008430D01*
X006937Y008930D02*
X007237Y008930D01*
X007237Y009180D01*
X007237Y008930D02*
X007537Y008930D01*
X008566Y009424D02*
X008780Y009637D01*
X009207Y009637D01*
X009207Y009855D02*
X008780Y009855D01*
X008780Y010068D02*
X008780Y010175D01*
X008780Y010068D02*
X008993Y009855D01*
X008886Y009637D02*
X008886Y009210D01*
X008780Y009210D02*
X008566Y009424D01*
X008780Y009210D02*
X009207Y009210D01*
X009100Y010392D02*
X008886Y010392D01*
X008780Y010498D01*
X008780Y010819D01*
X008566Y010819D02*
X009207Y010819D01*
X009207Y010498D01*
X009100Y010392D01*
X009100Y011036D02*
X008780Y011036D01*
X009100Y011036D02*
X009207Y011143D01*
X009207Y011463D01*
X008780Y011463D01*
X008780Y011681D02*
X008780Y011788D01*
X009207Y011788D01*
X009207Y011894D02*
X009207Y011681D01*
X009207Y012110D02*
X008780Y012110D01*
X008780Y012431D01*
X008886Y012538D01*
X009207Y012538D01*
X009100Y012755D02*
X009207Y012862D01*
X009207Y013075D01*
X009100Y013182D01*
X008886Y013182D01*
X008780Y013075D01*
X008780Y012862D01*
X008886Y012755D01*
X009100Y012755D01*
X008566Y011788D02*
X008459Y011788D01*
X008566Y014044D02*
X008566Y014364D01*
X008673Y014471D01*
X008780Y014471D01*
X008886Y014364D01*
X008886Y014044D01*
X008566Y014044D02*
X009207Y014044D01*
X009207Y014364D01*
X009100Y014471D01*
X008993Y014471D01*
X008886Y014364D01*
X008886Y014689D02*
X008886Y015009D01*
X008993Y015116D01*
X009100Y015116D01*
X009207Y015009D01*
X009207Y014689D01*
X008566Y014689D01*
X008566Y015009D01*
X008673Y015116D01*
X008780Y015116D01*
X008886Y015009D01*
X008886Y015333D02*
X008886Y015653D01*
X008993Y015760D01*
X009100Y015760D01*
X009207Y015653D01*
X009207Y015333D01*
X008566Y015333D01*
X008566Y015653D01*
X008673Y015760D01*
X008780Y015760D01*
X008886Y015653D01*
X008886Y016622D02*
X008886Y016943D01*
X008993Y017049D01*
X009100Y017049D01*
X009207Y016943D01*
X009207Y016622D01*
X008566Y016622D01*
X008566Y016943D01*
X008673Y017049D01*
X008780Y017049D01*
X008886Y016943D01*
X008886Y017267D02*
X009100Y017267D01*
X009207Y017374D01*
X009207Y017587D01*
X009100Y017694D01*
X008886Y017694D01*
X008780Y017587D01*
X008780Y017374D01*
X008886Y017267D01*
X009100Y017911D02*
X008993Y018018D01*
X008993Y018338D01*
X008886Y018338D02*
X008780Y018232D01*
X008780Y018018D01*
X009100Y017911D02*
X009207Y018018D01*
X009207Y018338D01*
X008886Y018338D01*
X008780Y018556D02*
X009207Y018556D01*
X008993Y018556D02*
X008780Y018769D01*
X008780Y018876D01*
X008886Y019093D02*
X008780Y019200D01*
X008780Y019520D01*
X008566Y019520D02*
X009207Y019520D01*
X009207Y019200D01*
X009100Y019093D01*
X008886Y019093D01*
X010437Y019880D02*
X010537Y019880D01*
X010537Y019780D01*
X010437Y019880D02*
X010437Y020480D01*
X010537Y020480D01*
X010537Y020580D01*
X010887Y021380D02*
X011237Y021380D01*
X012237Y021380D01*
X012587Y021380D01*
X012937Y020580D02*
X012937Y020480D01*
X013037Y020480D01*
X013037Y019880D01*
X012937Y019880D01*
X012937Y019780D01*
X012587Y018980D02*
X012187Y018980D01*
X011237Y018980D01*
X010887Y018980D01*
X010587Y018180D02*
X011337Y018180D01*
X011339Y018141D01*
X011345Y018102D01*
X011354Y018064D01*
X011367Y018027D01*
X011384Y017991D01*
X011404Y017958D01*
X011428Y017926D01*
X011454Y017897D01*
X011483Y017871D01*
X011515Y017847D01*
X011548Y017827D01*
X011584Y017810D01*
X011621Y017797D01*
X011659Y017788D01*
X011698Y017782D01*
X011737Y017780D01*
X011776Y017782D01*
X011815Y017788D01*
X011853Y017797D01*
X011890Y017810D01*
X011926Y017827D01*
X011959Y017847D01*
X011991Y017871D01*
X012020Y017897D01*
X012046Y017926D01*
X012070Y017958D01*
X012090Y017991D01*
X012107Y018027D01*
X012120Y018064D01*
X012129Y018102D01*
X012135Y018141D01*
X012137Y018180D01*
X012887Y018180D01*
X012887Y004180D01*
X010587Y004180D01*
X010587Y018180D01*
X011637Y020180D02*
X011639Y020200D01*
X011645Y020218D01*
X011654Y020236D01*
X011666Y020251D01*
X011681Y020263D01*
X011699Y020272D01*
X011717Y020278D01*
X011737Y020280D01*
X011757Y020278D01*
X011775Y020272D01*
X011793Y020263D01*
X011808Y020251D01*
X011820Y020236D01*
X011829Y020218D01*
X011835Y020200D01*
X011837Y020180D01*
X011835Y020160D01*
X011829Y020142D01*
X011820Y020124D01*
X011808Y020109D01*
X011793Y020097D01*
X011775Y020088D01*
X011757Y020082D01*
X011737Y020080D01*
X011717Y020082D01*
X011699Y020088D01*
X011681Y020097D01*
X011666Y020109D01*
X011654Y020124D01*
X011645Y020142D01*
X011639Y020160D01*
X011637Y020180D01*
X011037Y020180D02*
X011039Y020232D01*
X011045Y020284D01*
X011055Y020336D01*
X011068Y020386D01*
X011085Y020436D01*
X011106Y020484D01*
X011131Y020530D01*
X011159Y020574D01*
X011190Y020616D01*
X011224Y020656D01*
X011261Y020693D01*
X011301Y020727D01*
X011343Y020758D01*
X011387Y020786D01*
X011433Y020811D01*
X011481Y020832D01*
X011531Y020849D01*
X011581Y020862D01*
X011633Y020872D01*
X011685Y020878D01*
X011737Y020880D01*
X011789Y020878D01*
X011841Y020872D01*
X011893Y020862D01*
X011943Y020849D01*
X011993Y020832D01*
X012041Y020811D01*
X012087Y020786D01*
X012131Y020758D01*
X012173Y020727D01*
X012213Y020693D01*
X012250Y020656D01*
X012284Y020616D01*
X012315Y020574D01*
X012343Y020530D01*
X012368Y020484D01*
X012389Y020436D01*
X012406Y020386D01*
X012419Y020336D01*
X012429Y020284D01*
X012435Y020232D01*
X012437Y020180D01*
X012435Y020128D01*
X012429Y020076D01*
X012419Y020024D01*
X012406Y019974D01*
X012389Y019924D01*
X012368Y019876D01*
X012343Y019830D01*
X012315Y019786D01*
X012284Y019744D01*
X012250Y019704D01*
X012213Y019667D01*
X012173Y019633D01*
X012131Y019602D01*
X012087Y019574D01*
X012041Y019549D01*
X011993Y019528D01*
X011943Y019511D01*
X011893Y019498D01*
X011841Y019488D01*
X011789Y019482D01*
X011737Y019480D01*
X011685Y019482D01*
X011633Y019488D01*
X011581Y019498D01*
X011531Y019511D01*
X011481Y019528D01*
X011433Y019549D01*
X011387Y019574D01*
X011343Y019602D01*
X011301Y019633D01*
X011261Y019667D01*
X011224Y019704D01*
X011190Y019744D01*
X011159Y019786D01*
X011131Y019830D01*
X011106Y019876D01*
X011085Y019924D01*
X011068Y019974D01*
X011055Y020024D01*
X011045Y020076D01*
X011039Y020128D01*
X011037Y020180D01*
X011130Y029210D02*
X011130Y029637D01*
X011237Y029637D01*
X011344Y029530D01*
X011450Y029637D01*
X011557Y029530D01*
X011557Y029210D01*
X011344Y029210D02*
X011344Y029530D01*
X010914Y029210D02*
X010700Y029210D01*
X010807Y029210D02*
X010807Y029637D01*
X010700Y029637D01*
X010807Y029851D02*
X010807Y029957D01*
X010376Y029637D02*
X010483Y029530D01*
X010483Y029210D01*
X010056Y029210D02*
X010056Y029637D01*
X010376Y029637D01*
X009838Y029530D02*
X009838Y029210D01*
X009838Y029530D02*
X009731Y029637D01*
X009411Y029637D01*
X009411Y029210D01*
X009194Y029210D02*
X009194Y029637D01*
X008980Y029851D01*
X008767Y029637D01*
X008767Y029210D01*
X008767Y029530D02*
X009194Y029530D01*
X012419Y029530D02*
X012739Y029530D01*
X012846Y029424D01*
X012846Y029317D01*
X012739Y029210D01*
X012419Y029210D01*
X012419Y029851D01*
X012739Y029851D01*
X012846Y029744D01*
X012846Y029637D01*
X012739Y029530D01*
X013064Y029317D02*
X013170Y029210D01*
X013491Y029210D01*
X013491Y029530D01*
X013384Y029637D01*
X013170Y029637D01*
X013170Y029424D02*
X013491Y029424D01*
X013708Y029210D02*
X013708Y029637D01*
X014028Y029637D01*
X014135Y029530D01*
X014135Y029210D01*
X014353Y029317D02*
X014353Y029530D01*
X014460Y029637D01*
X014673Y029637D01*
X014780Y029530D01*
X014780Y029424D01*
X014353Y029424D01*
X014353Y029317D02*
X014460Y029210D01*
X014673Y029210D01*
X014997Y029210D02*
X014997Y029637D01*
X014997Y029424D02*
X015211Y029637D01*
X015318Y029637D01*
X015748Y029637D02*
X015748Y029103D01*
X015641Y028996D01*
X015534Y028996D01*
X015964Y029317D02*
X016071Y029210D01*
X016284Y029210D01*
X016391Y029424D02*
X015964Y029424D01*
X015964Y029530D02*
X016071Y029637D01*
X016284Y029637D01*
X016391Y029530D01*
X016391Y029424D01*
X016609Y029424D02*
X017036Y029424D01*
X017036Y029530D01*
X016929Y029637D01*
X016715Y029637D01*
X016609Y029530D01*
X016609Y029317D01*
X016715Y029210D01*
X016929Y029210D01*
X015964Y029317D02*
X015964Y029530D01*
X015748Y029851D02*
X015748Y029957D01*
X013170Y029424D02*
X013064Y029317D01*
X024066Y028464D02*
X024066Y028250D01*
X024173Y028144D01*
X024386Y028357D02*
X024386Y028464D01*
X024493Y028571D01*
X024600Y028571D01*
X024707Y028464D01*
X024707Y028250D01*
X024600Y028144D01*
X024707Y027926D02*
X024707Y027499D01*
X024707Y027713D02*
X024066Y027713D01*
X024280Y027499D01*
X024173Y027282D02*
X024600Y026855D01*
X024707Y026961D01*
X024707Y027175D01*
X024600Y027282D01*
X024173Y027282D01*
X024066Y027175D01*
X024066Y026961D01*
X024173Y026855D01*
X024600Y026855D01*
X024707Y026637D02*
X024707Y026210D01*
X024280Y026637D01*
X024173Y026637D01*
X024066Y026530D01*
X024066Y026317D01*
X024173Y026210D01*
X024066Y028464D02*
X024173Y028571D01*
X024280Y028571D01*
X024386Y028464D01*
X014800Y009992D02*
X014907Y009886D01*
X014907Y009672D01*
X014800Y009565D01*
X014693Y009565D01*
X014586Y009672D01*
X014586Y009886D01*
X014693Y009992D01*
X014800Y009992D01*
X014586Y009886D02*
X014480Y009992D01*
X014373Y009992D01*
X014266Y009886D01*
X014266Y009672D01*
X014373Y009565D01*
X014480Y009565D01*
X014586Y009672D01*
X014480Y009348D02*
X014373Y009348D01*
X014266Y009241D01*
X014266Y009028D01*
X014373Y008921D01*
X014373Y008703D02*
X014266Y008597D01*
X014266Y008383D01*
X014373Y008276D01*
X014586Y008490D02*
X014586Y008597D01*
X014693Y008703D01*
X014800Y008703D01*
X014907Y008597D01*
X014907Y008383D01*
X014800Y008276D01*
X014907Y008059D02*
X014586Y008059D01*
X014480Y007952D01*
X014480Y007739D01*
X014693Y007739D02*
X014693Y008059D01*
X014907Y008059D02*
X014907Y007739D01*
X014800Y007632D01*
X014693Y007739D01*
X014480Y007414D02*
X014480Y007094D01*
X014586Y006987D01*
X014800Y006987D01*
X014907Y007094D01*
X014907Y007414D01*
X015013Y007414D02*
X014480Y007414D01*
X015013Y007414D02*
X015120Y007308D01*
X015120Y007201D01*
X014907Y006663D02*
X014907Y006449D01*
X014800Y006343D01*
X014586Y006343D01*
X014480Y006449D01*
X014480Y006663D01*
X014586Y006770D01*
X014693Y006770D01*
X014693Y006343D01*
X014586Y006125D02*
X014907Y006125D01*
X014907Y005912D02*
X014586Y005912D01*
X014480Y006018D01*
X014586Y006125D01*
X014586Y005912D02*
X014480Y005805D01*
X014480Y005698D01*
X014907Y005698D01*
X014907Y005482D02*
X014800Y005375D01*
X014373Y005375D01*
X014480Y005268D02*
X014480Y005482D01*
X014480Y005051D02*
X014907Y005051D01*
X014586Y005051D02*
X014586Y004624D01*
X014480Y004624D02*
X014266Y004837D01*
X014480Y005051D01*
X014480Y004624D02*
X014907Y004624D01*
X015320Y004257D02*
X015320Y004151D01*
X015320Y003937D02*
X015320Y003510D01*
X015214Y003510D02*
X015427Y003510D01*
X015643Y003510D02*
X015643Y003937D01*
X015750Y003937D01*
X015857Y003830D01*
X015964Y003937D01*
X016070Y003830D01*
X016070Y003510D01*
X015857Y003510D02*
X015857Y003830D01*
X015320Y003937D02*
X015214Y003937D01*
X014996Y003830D02*
X014996Y003510D01*
X014996Y003830D02*
X014889Y003937D01*
X014569Y003937D01*
X014569Y003510D01*
X014352Y003510D02*
X014352Y003830D01*
X014245Y003937D01*
X013925Y003937D01*
X013925Y003510D01*
X013707Y003510D02*
X013707Y003937D01*
X013494Y004151D01*
X013280Y003937D01*
X013280Y003510D01*
X013280Y003830D02*
X013707Y003830D01*
X013487Y003180D02*
X013987Y003180D01*
X014237Y002930D01*
X014237Y001430D01*
X013987Y001180D01*
X013487Y001180D01*
X013237Y001430D01*
X013237Y002930D01*
X012987Y003180D01*
X012487Y003180D01*
X012237Y002930D01*
X012237Y001430D01*
X011987Y001180D01*
X011487Y001180D01*
X011237Y001430D01*
X011237Y002930D01*
X010987Y003180D01*
X010487Y003180D01*
X010237Y002930D01*
X009987Y003180D01*
X009487Y003180D01*
X009237Y002930D01*
X009237Y001430D01*
X009487Y001180D01*
X009987Y001180D01*
X010237Y001430D01*
X010237Y002930D01*
X011237Y002930D02*
X011487Y003180D01*
X011987Y003180D01*
X012237Y002930D01*
X013237Y002930D02*
X013487Y003180D01*
X013237Y001430D02*
X012987Y001180D01*
X012487Y001180D01*
X012237Y001430D01*
X011237Y001430D02*
X010987Y001180D01*
X010487Y001180D01*
X010237Y001430D01*
X014373Y008703D02*
X014480Y008703D01*
X014586Y008597D01*
X014907Y008921D02*
X014480Y009348D01*
X014907Y009348D02*
X014907Y008921D01*
X016933Y004151D02*
X017253Y004151D01*
X017360Y004044D01*
X017360Y003937D01*
X017253Y003830D01*
X016933Y003830D01*
X017253Y003830D02*
X017360Y003724D01*
X017360Y003617D01*
X017253Y003510D01*
X016933Y003510D01*
X016933Y004151D01*
X017684Y003937D02*
X017897Y003937D01*
X018004Y003830D01*
X018004Y003510D01*
X017684Y003510D01*
X017577Y003617D01*
X017684Y003724D01*
X018004Y003724D01*
X018222Y003937D02*
X018542Y003937D01*
X018649Y003830D01*
X018649Y003510D01*
X018866Y003617D02*
X018866Y003830D01*
X018973Y003937D01*
X019186Y003937D01*
X019293Y003830D01*
X019293Y003724D01*
X018866Y003724D01*
X018866Y003617D02*
X018973Y003510D01*
X019186Y003510D01*
X019511Y003510D02*
X019511Y003937D01*
X019724Y003937D02*
X019831Y003937D01*
X019724Y003937D02*
X019511Y003724D01*
X020048Y003296D02*
X020155Y003296D01*
X020261Y003403D01*
X020261Y003937D01*
X020261Y004151D02*
X020261Y004257D01*
X020584Y003937D02*
X020478Y003830D01*
X020478Y003617D01*
X020584Y003510D01*
X020798Y003510D01*
X020905Y003724D02*
X020905Y003830D01*
X020798Y003937D01*
X020584Y003937D01*
X020478Y003724D02*
X020905Y003724D01*
X021122Y003724D02*
X021549Y003724D01*
X021549Y003830D01*
X021442Y003937D01*
X021229Y003937D01*
X021122Y003830D01*
X021122Y003617D01*
X021229Y003510D01*
X021442Y003510D01*
X018222Y003510D02*
X018222Y003937D01*
D12*
X017222Y004195D02*
X016931Y004195D01*
X016931Y004340D01*
X016980Y004388D01*
X017077Y004388D01*
X017125Y004340D01*
X017125Y004195D01*
X017125Y004292D02*
X017222Y004388D01*
X017173Y004490D02*
X017222Y004538D01*
X017222Y004635D01*
X017173Y004683D01*
X017125Y004683D01*
X017077Y004635D01*
X017077Y004538D01*
X017028Y004490D01*
X016980Y004490D01*
X016931Y004538D01*
X016931Y004635D01*
X016980Y004683D01*
X016931Y004784D02*
X016931Y004978D01*
X016931Y004881D02*
X017222Y004881D01*
X017267Y002665D02*
X017267Y002472D01*
X017170Y002375D01*
X017073Y002472D01*
X017073Y002665D01*
X017368Y002665D02*
X017368Y002375D01*
X017513Y002375D01*
X017561Y002423D01*
X017561Y002472D01*
X017513Y002520D01*
X017368Y002520D01*
X017513Y002520D02*
X017561Y002568D01*
X017561Y002617D01*
X017513Y002665D01*
X017368Y002665D01*
X017662Y002665D02*
X017662Y002423D01*
X017711Y002375D01*
X017807Y002375D01*
X017856Y002423D01*
X017856Y002665D01*
X017957Y002617D02*
X017957Y002568D01*
X018005Y002520D01*
X018102Y002520D01*
X018151Y002472D01*
X018151Y002423D01*
X018102Y002375D01*
X018005Y002375D01*
X017957Y002423D01*
X017957Y002617D02*
X018005Y002665D01*
X018102Y002665D01*
X018151Y002617D01*
X015232Y002695D02*
X015136Y002695D01*
X015184Y002695D02*
X015184Y002985D01*
X015136Y002985D02*
X015232Y002985D01*
X015034Y002937D02*
X014986Y002985D01*
X014889Y002985D01*
X014841Y002937D01*
X014841Y002888D01*
X014889Y002840D01*
X014986Y002840D01*
X015034Y002792D01*
X015034Y002743D01*
X014986Y002695D01*
X014889Y002695D01*
X014841Y002743D01*
X014740Y002743D02*
X014740Y002937D01*
X014691Y002985D01*
X014595Y002985D01*
X014546Y002937D01*
X014546Y002743D01*
X014595Y002695D01*
X014691Y002695D01*
X014740Y002743D01*
X014445Y002695D02*
X014445Y002985D01*
X014348Y002888D01*
X014252Y002985D01*
X014252Y002695D01*
X012222Y004195D02*
X011931Y004195D01*
X011931Y004340D01*
X011980Y004388D01*
X012077Y004388D01*
X012125Y004340D01*
X012125Y004195D01*
X012125Y004292D02*
X012222Y004388D01*
X012173Y004490D02*
X012222Y004538D01*
X012222Y004635D01*
X012173Y004683D01*
X012125Y004683D01*
X012077Y004635D01*
X012077Y004538D01*
X012028Y004490D01*
X011980Y004490D01*
X011931Y004538D01*
X011931Y004635D01*
X011980Y004683D01*
X011931Y004784D02*
X011931Y004978D01*
X011931Y004881D02*
X012222Y004881D01*
X011222Y003978D02*
X011077Y003833D01*
X011125Y003784D02*
X010931Y003978D01*
X010931Y003784D02*
X011222Y003784D01*
X011173Y003683D02*
X011222Y003635D01*
X011222Y003538D01*
X011173Y003490D01*
X010980Y003490D01*
X010931Y003538D01*
X010931Y003635D01*
X010980Y003683D01*
X010980Y003388D02*
X010931Y003340D01*
X010931Y003243D01*
X010980Y003195D01*
X011028Y003195D01*
X011077Y003243D01*
X011077Y003340D01*
X011125Y003388D01*
X011173Y003388D01*
X011222Y003340D01*
X011222Y003243D01*
X011173Y003195D01*
X008722Y003234D02*
X008673Y003186D01*
X008722Y003234D02*
X008722Y003331D01*
X008673Y003380D01*
X008625Y003380D01*
X008577Y003331D01*
X008577Y003234D01*
X008528Y003186D01*
X008480Y003186D01*
X008431Y003234D01*
X008431Y003331D01*
X008480Y003380D01*
X008480Y003481D02*
X008673Y003481D01*
X008722Y003529D01*
X008722Y003626D01*
X008673Y003674D01*
X008480Y003674D01*
X008431Y003626D01*
X008431Y003529D01*
X008480Y003481D01*
X008431Y003086D02*
X008431Y002990D01*
X008431Y003038D02*
X008722Y003038D01*
X008722Y002990D02*
X008722Y003086D01*
X008722Y002888D02*
X008431Y002888D01*
X008528Y002792D01*
X008431Y002695D01*
X008722Y002695D01*
X007329Y005695D02*
X007136Y005695D01*
X007136Y005985D01*
X007034Y005888D02*
X007034Y005695D01*
X007034Y005840D02*
X006841Y005840D01*
X006841Y005888D02*
X006938Y005985D01*
X007034Y005888D01*
X006841Y005888D02*
X006841Y005695D01*
X006643Y005695D02*
X006643Y005985D01*
X006546Y005985D02*
X006740Y005985D01*
X006445Y005985D02*
X006252Y005695D01*
X006445Y005695D02*
X006252Y005985D01*
X004102Y008875D02*
X004005Y008875D01*
X003957Y008923D01*
X003856Y008972D02*
X003856Y009165D01*
X003957Y009117D02*
X004005Y009165D01*
X004102Y009165D01*
X004151Y009117D01*
X004151Y009068D01*
X004102Y009020D01*
X004151Y008972D01*
X004151Y008923D01*
X004102Y008875D01*
X004102Y009020D02*
X004054Y009020D01*
X003856Y008972D02*
X003759Y008875D01*
X003662Y008972D01*
X003662Y009165D01*
X003561Y009117D02*
X003561Y009068D01*
X003513Y009020D01*
X003561Y008972D01*
X003561Y008923D01*
X003513Y008875D01*
X003416Y008875D01*
X003368Y008923D01*
X003464Y009020D02*
X003513Y009020D01*
X003561Y009117D02*
X003513Y009165D01*
X003416Y009165D01*
X003368Y009117D01*
X003267Y009020D02*
X003073Y009020D01*
X003170Y009117D02*
X003170Y008923D01*
X002781Y009695D02*
X002684Y009695D01*
X002636Y009743D01*
X002534Y009743D02*
X002534Y009985D01*
X002636Y009937D02*
X002636Y009888D01*
X002684Y009840D01*
X002781Y009840D01*
X002829Y009792D01*
X002829Y009743D01*
X002781Y009695D01*
X002829Y009937D02*
X002781Y009985D01*
X002684Y009985D01*
X002636Y009937D01*
X002534Y009743D02*
X002486Y009695D01*
X002389Y009695D01*
X002341Y009743D01*
X002341Y009985D01*
X002240Y009937D02*
X002240Y009888D01*
X002191Y009840D01*
X002046Y009840D01*
X001945Y009792D02*
X001945Y009985D01*
X002046Y009985D02*
X002191Y009985D01*
X002240Y009937D01*
X002191Y009840D02*
X002240Y009792D01*
X002240Y009743D01*
X002191Y009695D01*
X002046Y009695D01*
X002046Y009985D01*
X001945Y009792D02*
X001848Y009695D01*
X001752Y009792D01*
X001752Y009985D01*
X000673Y011195D02*
X000722Y011243D01*
X000722Y011340D01*
X000673Y011388D01*
X000577Y011388D01*
X000577Y011292D01*
X000673Y011195D02*
X000480Y011195D01*
X000431Y011243D01*
X000431Y011340D01*
X000480Y011388D01*
X000431Y011490D02*
X000722Y011683D01*
X000431Y011683D01*
X000431Y011784D02*
X000431Y011929D01*
X000480Y011978D01*
X000673Y011978D01*
X000722Y011929D01*
X000722Y011784D01*
X000431Y011784D01*
X000431Y011490D02*
X000722Y011490D01*
X000897Y012016D02*
X000897Y012210D01*
X000993Y012113D02*
X000800Y012113D01*
X000800Y012311D02*
X000751Y012359D01*
X000751Y012456D01*
X000800Y012505D01*
X000848Y012505D01*
X000897Y012456D01*
X000945Y012505D01*
X000993Y012505D01*
X001042Y012456D01*
X001042Y012359D01*
X000993Y012311D01*
X000897Y012408D02*
X000897Y012456D01*
X000945Y012606D02*
X000751Y012606D01*
X000751Y012799D02*
X000945Y012799D01*
X001042Y012702D01*
X000945Y012606D01*
X000993Y012900D02*
X001042Y012949D01*
X001042Y013045D01*
X000993Y013094D01*
X000945Y013094D01*
X000897Y013045D01*
X000897Y012997D01*
X000897Y013045D02*
X000848Y013094D01*
X000800Y013094D01*
X000751Y013045D01*
X000751Y012949D01*
X000800Y012900D01*
X000673Y013195D02*
X000480Y013195D01*
X000431Y013243D01*
X000431Y013340D01*
X000480Y013388D01*
X000577Y013388D02*
X000577Y013292D01*
X000577Y013388D02*
X000673Y013388D01*
X000722Y013340D01*
X000722Y013243D01*
X000673Y013195D01*
X000722Y013490D02*
X000431Y013490D01*
X000722Y013683D01*
X000431Y013683D01*
X000431Y013784D02*
X000431Y013929D01*
X000480Y013978D01*
X000673Y013978D01*
X000722Y013929D01*
X000722Y013784D01*
X000431Y013784D01*
D13*
X000366Y011396D02*
X000667Y011096D01*
X000742Y011096D01*
X000516Y010936D02*
X000592Y010861D01*
X000592Y010635D01*
X000742Y010635D02*
X000291Y010635D01*
X000291Y010861D01*
X000366Y010936D01*
X000516Y010936D01*
X000291Y011096D02*
X000291Y011396D01*
X000366Y011396D01*
X000291Y010475D02*
X000291Y010325D01*
X000291Y010400D02*
X000667Y010400D01*
X000742Y010325D01*
X000742Y010250D01*
X000667Y010175D01*
X003041Y010325D02*
X003041Y010475D01*
X003041Y010400D02*
X003417Y010400D01*
X003492Y010325D01*
X003492Y010250D01*
X003417Y010175D01*
X003492Y010635D02*
X003041Y010635D01*
X003041Y010861D01*
X003116Y010936D01*
X003266Y010936D01*
X003342Y010861D01*
X003342Y010635D01*
X003492Y011096D02*
X003191Y011396D01*
X003116Y011396D01*
X003041Y011321D01*
X003041Y011171D01*
X003116Y011096D01*
X003492Y011096D02*
X003492Y011396D01*
X005711Y007316D02*
X006162Y007316D01*
X006162Y007466D02*
X006162Y007165D01*
X006162Y007005D02*
X006012Y006855D01*
X006162Y006780D02*
X006087Y006705D01*
X005786Y006705D01*
X005711Y006780D01*
X005711Y006930D01*
X005786Y007005D01*
X006087Y007005D01*
X006162Y006930D01*
X006162Y006780D01*
X005861Y007165D02*
X005711Y007316D01*
X000742Y002821D02*
X000742Y002671D01*
X000667Y002596D01*
X000516Y002746D02*
X000516Y002821D01*
X000592Y002896D01*
X000667Y002896D01*
X000742Y002821D01*
X000516Y002821D02*
X000441Y002896D01*
X000366Y002896D01*
X000291Y002821D01*
X000291Y002671D01*
X000366Y002596D01*
X000366Y002436D02*
X000516Y002436D01*
X000592Y002361D01*
X000592Y002135D01*
X000742Y002135D02*
X000291Y002135D01*
X000291Y002361D01*
X000366Y002436D01*
X000291Y001975D02*
X000291Y001825D01*
X000291Y001900D02*
X000667Y001900D01*
X000742Y001825D01*
X000742Y001750D01*
X000667Y001675D01*
X010612Y018305D02*
X010762Y018305D01*
X010687Y018305D02*
X010687Y018755D01*
X010612Y018755D02*
X010762Y018755D01*
X010919Y018680D02*
X010919Y018380D01*
X010994Y018305D01*
X011144Y018305D01*
X011219Y018380D01*
X011379Y018305D02*
X011679Y018305D01*
X011529Y018305D02*
X011529Y018755D01*
X011379Y018605D01*
X011219Y018680D02*
X011144Y018755D01*
X010994Y018755D01*
X010919Y018680D01*
X011022Y021655D02*
X011322Y021655D01*
X011172Y021655D02*
X011172Y022105D01*
X011022Y021955D01*
X010862Y022030D02*
X010787Y022105D01*
X010637Y022105D01*
X010562Y022030D01*
X010562Y021955D01*
X010637Y021880D01*
X010787Y021880D01*
X010862Y021805D01*
X010862Y021730D01*
X010787Y021655D01*
X010637Y021655D01*
X010562Y021730D01*
X004867Y022188D02*
X004688Y022188D01*
X003607Y022188D01*
X003607Y025182D01*
X003688Y025182D01*
X004867Y025182D01*
X004867Y022188D01*
X004785Y022188D02*
X004688Y022188D01*
X004412Y023405D02*
X004062Y023405D01*
X004062Y023555D02*
X004237Y023405D01*
X004412Y023555D01*
X004062Y023555D01*
X003710Y025182D02*
X003688Y025182D01*
X021481Y009000D02*
X021706Y008775D01*
X021706Y009075D01*
X021481Y009000D02*
X021932Y009000D01*
X021706Y008614D02*
X021782Y008539D01*
X021782Y008314D01*
X021932Y008314D02*
X021481Y008314D01*
X021481Y008539D01*
X021556Y008614D01*
X021706Y008614D01*
X021481Y008154D02*
X021481Y008004D01*
X021481Y008079D02*
X021857Y008079D01*
X021932Y008004D01*
X021932Y007929D01*
X021857Y007854D01*
X024731Y008004D02*
X024731Y008154D01*
X024731Y008079D02*
X025107Y008079D01*
X025182Y008004D01*
X025182Y007929D01*
X025107Y007854D01*
X025182Y008314D02*
X024731Y008314D01*
X024731Y008539D01*
X024806Y008614D01*
X024956Y008614D01*
X025032Y008539D01*
X025032Y008314D01*
X025107Y008775D02*
X025182Y008850D01*
X025182Y009000D01*
X025107Y009075D01*
X025032Y009075D01*
X024956Y009000D01*
X024956Y008775D01*
X025107Y008775D01*
X024956Y008775D02*
X024806Y008925D01*
X024731Y009075D01*
X022667Y011175D02*
X022742Y011250D01*
X022742Y011325D01*
X022667Y011400D01*
X022291Y011400D01*
X022291Y011325D02*
X022291Y011475D01*
X022291Y011635D02*
X022291Y011861D01*
X022366Y011936D01*
X022516Y011936D01*
X022592Y011861D01*
X022592Y011635D01*
X022742Y011635D02*
X022291Y011635D01*
X022366Y012096D02*
X022441Y012096D01*
X022516Y012171D01*
X022516Y012321D01*
X022592Y012396D01*
X022667Y012396D01*
X022742Y012321D01*
X022742Y012171D01*
X022667Y012096D01*
X022592Y012096D01*
X022516Y012171D01*
X022516Y012321D02*
X022441Y012396D01*
X022366Y012396D01*
X022291Y012321D01*
X022291Y012171D01*
X022366Y012096D01*
X023107Y015854D02*
X023182Y015929D01*
X023182Y016004D01*
X023107Y016079D01*
X022731Y016079D01*
X022731Y016004D02*
X022731Y016154D01*
X022731Y016314D02*
X022731Y016539D01*
X022806Y016614D01*
X022956Y016614D01*
X023032Y016539D01*
X023032Y016314D01*
X023182Y016314D02*
X022731Y016314D01*
X022731Y016775D02*
X022956Y016775D01*
X022881Y016925D01*
X022881Y017000D01*
X022956Y017075D01*
X023107Y017075D01*
X023182Y017000D01*
X023182Y016850D01*
X023107Y016775D01*
X022731Y016775D02*
X022731Y017075D01*
D14*
X012187Y018980D02*
X012187Y019080D01*
X011237Y019080D01*
X011237Y018980D01*
X011237Y021280D02*
X012237Y021280D01*
X012237Y021380D01*
X011237Y021380D02*
X011237Y021280D01*
D15*
X011169Y023075D02*
X011194Y023100D01*
X011194Y023125D01*
X011169Y023150D01*
X011094Y023150D01*
X011094Y023100D01*
X011119Y023075D01*
X011169Y023075D01*
X011094Y023150D02*
X011144Y023200D01*
X011194Y023225D01*
X011047Y023200D02*
X011047Y023150D01*
X011022Y023125D01*
X010947Y023125D01*
X010947Y023075D02*
X010947Y023225D01*
X011022Y023225D01*
X011047Y023200D01*
X010997Y023125D02*
X011047Y023075D01*
X011047Y024075D02*
X010997Y024125D01*
X011022Y024125D02*
X010947Y024125D01*
X010947Y024075D02*
X010947Y024225D01*
X011022Y024225D01*
X011047Y024200D01*
X011047Y024150D01*
X011022Y024125D01*
X011094Y024100D02*
X011094Y024075D01*
X011094Y024100D02*
X011194Y024200D01*
X011194Y024225D01*
X011094Y024225D01*
X011657Y026185D02*
X011757Y026185D01*
X011782Y026210D01*
X011782Y026260D01*
X011757Y026285D01*
X011757Y026332D02*
X011782Y026357D01*
X011782Y026407D01*
X011757Y026432D01*
X011707Y026432D01*
X011682Y026407D01*
X011682Y026382D01*
X011707Y026332D01*
X011632Y026332D01*
X011632Y026432D01*
X011657Y026285D02*
X011632Y026260D01*
X011632Y026210D01*
X011657Y026185D01*
X013692Y026890D02*
X013692Y026965D01*
X013717Y026990D01*
X013767Y026990D01*
X013792Y026965D01*
X013792Y026890D01*
X013842Y026890D02*
X013692Y026890D01*
X013792Y026940D02*
X013842Y026990D01*
X013817Y027038D02*
X013792Y027038D01*
X013767Y027063D01*
X013767Y027113D01*
X013792Y027138D01*
X013817Y027138D01*
X013842Y027113D01*
X013842Y027063D01*
X013817Y027038D01*
X013767Y027063D02*
X013742Y027038D01*
X013717Y027038D01*
X013692Y027063D01*
X013692Y027113D01*
X013717Y027138D01*
X013742Y027138D01*
X013767Y027113D01*
X008342Y027113D02*
X008192Y027113D01*
X008267Y027038D01*
X008267Y027138D01*
X008317Y026990D02*
X008342Y026965D01*
X008342Y026915D01*
X008317Y026890D01*
X008217Y026890D01*
X008192Y026915D01*
X008192Y026965D01*
X008217Y026990D01*
X007342Y026965D02*
X007317Y026990D01*
X007342Y026965D02*
X007342Y026915D01*
X007317Y026890D01*
X007217Y026890D01*
X007192Y026915D01*
X007192Y026965D01*
X007217Y026990D01*
X007217Y027038D02*
X007192Y027063D01*
X007192Y027113D01*
X007217Y027138D01*
X007242Y027138D01*
X007267Y027113D01*
X007292Y027138D01*
X007317Y027138D01*
X007342Y027113D01*
X007342Y027063D01*
X007317Y027038D01*
X007267Y027088D02*
X007267Y027113D01*
X007767Y025285D02*
X007742Y025260D01*
X007742Y025160D01*
X007767Y025135D01*
X007817Y025135D01*
X007842Y025160D01*
X007889Y025160D02*
X007914Y025135D01*
X007964Y025135D01*
X007989Y025160D01*
X007989Y025185D01*
X007964Y025210D01*
X007889Y025210D01*
X007889Y025160D01*
X007889Y025210D02*
X007939Y025260D01*
X007989Y025285D01*
X007842Y025260D02*
X007817Y025285D01*
X007767Y025285D01*
X007742Y024285D02*
X007817Y024285D01*
X007842Y024260D01*
X007842Y024210D01*
X007817Y024185D01*
X007742Y024185D01*
X007792Y024185D02*
X007842Y024135D01*
X007889Y024135D02*
X007989Y024135D01*
X007939Y024135D02*
X007939Y024285D01*
X007889Y024235D01*
X007742Y024285D02*
X007742Y024135D01*
X003867Y028743D02*
X003892Y028768D01*
X003892Y028793D01*
X003867Y028818D01*
X003742Y028818D01*
X003742Y028793D02*
X003742Y028843D01*
X003742Y028890D02*
X003742Y028965D01*
X003767Y028990D01*
X003817Y028990D01*
X003842Y028965D01*
X003842Y028890D01*
X003892Y028890D02*
X003742Y028890D01*
X003792Y029038D02*
X003742Y029088D01*
X003892Y029088D01*
X003892Y029038D02*
X003892Y029138D01*
X003357Y022932D02*
X003457Y022832D01*
X003482Y022832D01*
X003457Y022785D02*
X003357Y022785D01*
X003332Y022760D01*
X003332Y022685D01*
X003482Y022685D01*
X003482Y022760D01*
X003457Y022785D01*
X003332Y022832D02*
X003332Y022932D01*
X003357Y022932D01*
X004447Y016725D02*
X004522Y016725D01*
X004547Y016700D01*
X004547Y016650D01*
X004522Y016625D01*
X004447Y016625D01*
X004447Y016575D02*
X004447Y016725D01*
X004497Y016625D02*
X004547Y016575D01*
X004594Y016650D02*
X004694Y016650D01*
X004669Y016575D02*
X004669Y016725D01*
X004594Y016650D01*
X004594Y015725D02*
X004594Y015650D01*
X004644Y015675D01*
X004669Y015675D01*
X004694Y015650D01*
X004694Y015600D01*
X004669Y015575D01*
X004619Y015575D01*
X004594Y015600D01*
X004547Y015575D02*
X004497Y015625D01*
X004522Y015625D02*
X004447Y015625D01*
X004447Y015575D02*
X004447Y015725D01*
X004522Y015725D01*
X004547Y015700D01*
X004547Y015650D01*
X004522Y015625D01*
X004594Y015725D02*
X004694Y015725D01*
X010442Y003435D02*
X010442Y003310D01*
X010467Y003285D01*
X010517Y003285D01*
X010542Y003310D01*
X010542Y003435D01*
X010589Y003410D02*
X010614Y003435D01*
X010664Y003435D01*
X010689Y003410D01*
X010736Y003385D02*
X010786Y003435D01*
X010786Y003285D01*
X010736Y003285D02*
X010836Y003285D01*
X010689Y003310D02*
X010689Y003335D01*
X010664Y003360D01*
X010614Y003360D01*
X010589Y003385D01*
X010589Y003410D01*
X010639Y003460D02*
X010639Y003260D01*
X010614Y003285D02*
X010664Y003285D01*
X010689Y003310D01*
X010614Y003285D02*
X010589Y003310D01*
X016767Y012635D02*
X016742Y012660D01*
X016742Y012760D01*
X016767Y012785D01*
X016817Y012785D01*
X016842Y012760D01*
X016889Y012735D02*
X016939Y012785D01*
X016939Y012635D01*
X016889Y012635D02*
X016989Y012635D01*
X017036Y012635D02*
X017136Y012635D01*
X017086Y012635D02*
X017086Y012785D01*
X017036Y012735D01*
X016842Y012660D02*
X016817Y012635D01*
X016767Y012635D01*
X016057Y018885D02*
X016082Y018910D01*
X016082Y018960D01*
X016057Y018985D01*
X016082Y019032D02*
X016082Y019132D01*
X016082Y019082D02*
X015932Y019082D01*
X015982Y019032D01*
X015957Y018985D02*
X015932Y018960D01*
X015932Y018910D01*
X015957Y018885D01*
X016057Y018885D01*
X016057Y019180D02*
X015957Y019280D01*
X016057Y019280D01*
X016082Y019255D01*
X016082Y019205D01*
X016057Y019180D01*
X015957Y019180D01*
X015932Y019205D01*
X015932Y019255D01*
X015957Y019280D01*
X018932Y019132D02*
X018957Y019132D01*
X019057Y019032D01*
X019082Y019032D01*
X019057Y018985D02*
X019082Y018960D01*
X019082Y018910D01*
X019057Y018885D01*
X018957Y018885D01*
X018932Y018910D01*
X018932Y018960D01*
X018957Y018985D01*
X018932Y019032D02*
X018932Y019132D01*
D16*
X008087Y009880D02*
X008087Y007480D01*
X008085Y007423D01*
X008079Y007367D01*
X008070Y007311D01*
X008057Y007255D01*
X008040Y007201D01*
X008020Y007148D01*
X007996Y007097D01*
X007968Y007047D01*
X007938Y006999D01*
X007904Y006953D01*
X007867Y006910D01*
X007828Y006869D01*
X007786Y006831D01*
X007741Y006796D01*
X007694Y006764D01*
X007645Y006735D01*
X007595Y006709D01*
X007542Y006687D01*
X007489Y006668D01*
X007434Y006653D01*
X007378Y006642D01*
X007322Y006634D01*
X007265Y006630D01*
X007209Y006630D01*
X007152Y006634D01*
X007096Y006642D01*
X007040Y006653D01*
X006985Y006668D01*
X006932Y006687D01*
X006879Y006709D01*
X006829Y006735D01*
X006780Y006764D01*
X006733Y006796D01*
X006688Y006831D01*
X006646Y006869D01*
X006607Y006910D01*
X006570Y006953D01*
X006536Y006999D01*
X006506Y007047D01*
X006478Y007097D01*
X006454Y007148D01*
X006434Y007201D01*
X006417Y007255D01*
X006404Y007311D01*
X006395Y007367D01*
X006389Y007423D01*
X006387Y007480D01*
X006387Y009880D01*
X006389Y009937D01*
X006395Y009993D01*
X006404Y010049D01*
X006417Y010105D01*
X006434Y010159D01*
X006454Y010212D01*
X006478Y010263D01*
X006506Y010313D01*
X006536Y010361D01*
X006570Y010407D01*
X006607Y010450D01*
X006646Y010491D01*
X006688Y010529D01*
X006733Y010564D01*
X006780Y010596D01*
X006829Y010625D01*
X006879Y010651D01*
X006932Y010673D01*
X006985Y010692D01*
X007040Y010707D01*
X007096Y010718D01*
X007152Y010726D01*
X007209Y010730D01*
X007265Y010730D01*
X007322Y010726D01*
X007378Y010718D01*
X007434Y010707D01*
X007489Y010692D01*
X007542Y010673D01*
X007595Y010651D01*
X007645Y010625D01*
X007694Y010596D01*
X007741Y010564D01*
X007786Y010529D01*
X007828Y010491D01*
X007867Y010450D01*
X007904Y010407D01*
X007938Y010361D01*
X007968Y010313D01*
X007996Y010263D01*
X008020Y010212D01*
X008040Y010159D01*
X008057Y010105D01*
X008070Y010049D01*
X008079Y009993D01*
X008085Y009937D01*
X008087Y009880D01*
D17*
X007868Y016700D02*
X007715Y016700D01*
X007638Y016777D01*
X007484Y016777D02*
X007484Y017084D01*
X007408Y017160D01*
X007177Y017160D01*
X007177Y016700D01*
X007408Y016700D01*
X007484Y016777D01*
X007638Y017084D02*
X007715Y017160D01*
X007868Y017160D01*
X007945Y017084D01*
X007945Y017007D01*
X007868Y016930D01*
X007945Y016853D01*
X007945Y016777D01*
X007868Y016700D01*
X007868Y016930D02*
X007791Y016930D01*
X007638Y017700D02*
X007945Y018007D01*
X007945Y018084D01*
X007868Y018160D01*
X007715Y018160D01*
X007638Y018084D01*
X007484Y018084D02*
X007484Y017777D01*
X007408Y017700D01*
X007177Y017700D01*
X007177Y018160D01*
X007408Y018160D01*
X007484Y018084D01*
X007638Y017700D02*
X007945Y017700D01*
X007024Y017700D02*
X006717Y017700D01*
X006717Y018160D01*
X007024Y018160D01*
X006871Y017930D02*
X006717Y017930D01*
X006564Y017700D02*
X006257Y017700D01*
X006257Y018160D01*
X006257Y017160D02*
X006257Y016700D01*
X006564Y016700D01*
X006717Y016700D02*
X007024Y016700D01*
X006871Y016930D02*
X006717Y016930D01*
X006717Y017160D02*
X006717Y016700D01*
X006717Y017160D02*
X007024Y017160D01*
X015915Y010660D02*
X015915Y010200D01*
X016222Y010200D01*
X016375Y010200D02*
X016682Y010200D01*
X016836Y010200D02*
X016836Y010660D01*
X017066Y010660D01*
X017143Y010584D01*
X017143Y010277D01*
X017066Y010200D01*
X016836Y010200D01*
X016529Y010430D02*
X016375Y010430D01*
X016375Y010660D02*
X016375Y010200D01*
X016375Y010660D02*
X016682Y010660D01*
X017296Y010507D02*
X017450Y010660D01*
X017450Y010200D01*
X017603Y010200D02*
X017296Y010200D01*
X025913Y024700D02*
X025989Y024700D01*
X026066Y024777D01*
X026066Y025160D01*
X025989Y025160D02*
X026143Y025160D01*
X026296Y025007D02*
X026450Y025160D01*
X026450Y024700D01*
X026603Y024700D02*
X026296Y024700D01*
X025913Y024700D02*
X025836Y024777D01*
X018717Y030356D02*
X018717Y030433D01*
X018640Y030509D01*
X018256Y030509D01*
X018256Y030433D02*
X018256Y030586D01*
X018333Y030740D02*
X018256Y030816D01*
X018256Y030970D01*
X018333Y031047D01*
X018410Y031047D01*
X018717Y030740D01*
X018717Y031047D01*
X018717Y030356D02*
X018640Y030279D01*
D18*
X006958Y017451D03*
X006958Y016909D03*
X006958Y016451D03*
X006958Y015909D03*
X017015Y011451D03*
X017015Y010909D03*
D19*
X017168Y011180D03*
X006806Y016180D03*
X006806Y017180D03*
D20*
X004487Y015180D02*
X003987Y015180D01*
X001987Y017180D02*
X001487Y017180D01*
X001487Y010180D02*
X001987Y010180D01*
X003987Y010180D02*
X004487Y010180D01*
X001987Y005680D02*
X001487Y005680D01*
X001487Y001680D02*
X001987Y001680D01*
X013487Y003430D02*
X013987Y003430D01*
X020487Y004180D02*
X020987Y004180D01*
X023487Y001180D02*
X023987Y001180D01*
X023987Y009180D02*
X023487Y009180D01*
X023487Y011180D02*
X023987Y011180D01*
X021987Y011180D02*
X021487Y011180D01*
X020987Y009180D02*
X020487Y009180D01*
X021487Y017180D02*
X021987Y017180D01*
X023487Y017180D02*
X023987Y017180D01*
X021201Y020987D02*
X021201Y021617D01*
X021201Y020987D02*
X026831Y020987D01*
X026831Y024373D01*
X023701Y024373D01*
X022430Y025645D02*
X021800Y025645D01*
X022430Y025645D02*
X022430Y031274D01*
X019044Y031274D01*
X019044Y028145D01*
X019044Y026274D02*
X019044Y025645D01*
X019674Y025645D01*
X021201Y024373D02*
X021201Y023743D01*
X021201Y024373D02*
X021831Y024373D01*
X018457Y019180D02*
X018459Y019251D01*
X018465Y019322D01*
X018475Y019393D01*
X018489Y019462D01*
X018506Y019531D01*
X018528Y019599D01*
X018553Y019666D01*
X018582Y019731D01*
X018614Y019794D01*
X018650Y019856D01*
X018689Y019915D01*
X018732Y019972D01*
X018777Y020027D01*
X018826Y020079D01*
X018877Y020128D01*
X018931Y020174D01*
X018988Y020218D01*
X019046Y020258D01*
X019107Y020294D01*
X019170Y020328D01*
X019235Y020357D01*
X019301Y020383D01*
X019369Y020406D01*
X019437Y020424D01*
X019507Y020439D01*
X019577Y020450D01*
X019648Y020457D01*
X019719Y020460D01*
X019790Y020459D01*
X019861Y020454D01*
X019932Y020445D01*
X020002Y020432D01*
X020071Y020416D01*
X020139Y020395D01*
X020206Y020371D01*
X020272Y020343D01*
X020335Y020311D01*
X020397Y020276D01*
X020457Y020238D01*
X020515Y020196D01*
X020570Y020152D01*
X020623Y020104D01*
X020673Y020053D01*
X020720Y020000D01*
X020764Y019944D01*
X020805Y019886D01*
X020843Y019825D01*
X020877Y019763D01*
X020907Y019698D01*
X020934Y019633D01*
X020958Y019565D01*
X020977Y019497D01*
X020993Y019428D01*
X021005Y019357D01*
X021013Y019287D01*
X021017Y019216D01*
X021017Y019144D01*
X021013Y019073D01*
X021005Y019003D01*
X020993Y018932D01*
X020977Y018863D01*
X020958Y018795D01*
X020934Y018727D01*
X020907Y018662D01*
X020877Y018597D01*
X020843Y018535D01*
X020805Y018474D01*
X020764Y018416D01*
X020720Y018360D01*
X020673Y018307D01*
X020623Y018256D01*
X020570Y018208D01*
X020515Y018164D01*
X020457Y018122D01*
X020397Y018084D01*
X020335Y018049D01*
X020272Y018017D01*
X020206Y017989D01*
X020139Y017965D01*
X020071Y017944D01*
X020002Y017928D01*
X019932Y017915D01*
X019861Y017906D01*
X019790Y017901D01*
X019719Y017900D01*
X019648Y017903D01*
X019577Y017910D01*
X019507Y017921D01*
X019437Y017936D01*
X019369Y017954D01*
X019301Y017977D01*
X019235Y018003D01*
X019170Y018032D01*
X019107Y018066D01*
X019046Y018102D01*
X018988Y018142D01*
X018931Y018186D01*
X018877Y018232D01*
X018826Y018281D01*
X018777Y018333D01*
X018732Y018388D01*
X018689Y018445D01*
X018650Y018504D01*
X018614Y018566D01*
X018582Y018629D01*
X018553Y018694D01*
X018528Y018761D01*
X018506Y018829D01*
X018489Y018898D01*
X018475Y018967D01*
X018465Y019038D01*
X018459Y019109D01*
X018457Y019180D01*
X019237Y018930D02*
X019237Y018430D01*
X015457Y019180D02*
X015459Y019251D01*
X015465Y019322D01*
X015475Y019393D01*
X015489Y019462D01*
X015506Y019531D01*
X015528Y019599D01*
X015553Y019666D01*
X015582Y019731D01*
X015614Y019794D01*
X015650Y019856D01*
X015689Y019915D01*
X015732Y019972D01*
X015777Y020027D01*
X015826Y020079D01*
X015877Y020128D01*
X015931Y020174D01*
X015988Y020218D01*
X016046Y020258D01*
X016107Y020294D01*
X016170Y020328D01*
X016235Y020357D01*
X016301Y020383D01*
X016369Y020406D01*
X016437Y020424D01*
X016507Y020439D01*
X016577Y020450D01*
X016648Y020457D01*
X016719Y020460D01*
X016790Y020459D01*
X016861Y020454D01*
X016932Y020445D01*
X017002Y020432D01*
X017071Y020416D01*
X017139Y020395D01*
X017206Y020371D01*
X017272Y020343D01*
X017335Y020311D01*
X017397Y020276D01*
X017457Y020238D01*
X017515Y020196D01*
X017570Y020152D01*
X017623Y020104D01*
X017673Y020053D01*
X017720Y020000D01*
X017764Y019944D01*
X017805Y019886D01*
X017843Y019825D01*
X017877Y019763D01*
X017907Y019698D01*
X017934Y019633D01*
X017958Y019565D01*
X017977Y019497D01*
X017993Y019428D01*
X018005Y019357D01*
X018013Y019287D01*
X018017Y019216D01*
X018017Y019144D01*
X018013Y019073D01*
X018005Y019003D01*
X017993Y018932D01*
X017977Y018863D01*
X017958Y018795D01*
X017934Y018727D01*
X017907Y018662D01*
X017877Y018597D01*
X017843Y018535D01*
X017805Y018474D01*
X017764Y018416D01*
X017720Y018360D01*
X017673Y018307D01*
X017623Y018256D01*
X017570Y018208D01*
X017515Y018164D01*
X017457Y018122D01*
X017397Y018084D01*
X017335Y018049D01*
X017272Y018017D01*
X017206Y017989D01*
X017139Y017965D01*
X017071Y017944D01*
X017002Y017928D01*
X016932Y017915D01*
X016861Y017906D01*
X016790Y017901D01*
X016719Y017900D01*
X016648Y017903D01*
X016577Y017910D01*
X016507Y017921D01*
X016437Y017936D01*
X016369Y017954D01*
X016301Y017977D01*
X016235Y018003D01*
X016170Y018032D01*
X016107Y018066D01*
X016046Y018102D01*
X015988Y018142D01*
X015931Y018186D01*
X015877Y018232D01*
X015826Y018281D01*
X015777Y018333D01*
X015732Y018388D01*
X015689Y018445D01*
X015650Y018504D01*
X015614Y018566D01*
X015582Y018629D01*
X015553Y018694D01*
X015528Y018761D01*
X015506Y018829D01*
X015489Y018898D01*
X015475Y018967D01*
X015465Y019038D01*
X015459Y019109D01*
X015457Y019180D01*
X016237Y018930D02*
X016237Y018430D01*
X004733Y027365D02*
X004733Y028192D01*
X004457Y026381D02*
X004103Y026381D01*
X002371Y026381D02*
X002016Y026381D01*
X001741Y027365D02*
X001741Y028192D01*
D21*
X011737Y002680D03*
M02*
