G75*
G70*
%OFA0B0*%
%FSLAX24Y24*%
%IPPOS*%
%LPD*%
%AMOC8*
5,1,8,0,0,1.08239X$1,22.5*
%
%ADD10C,0.0520*%
%ADD11C,0.0600*%
%ADD12R,0.0630X0.0709*%
%ADD13C,0.0520*%
%ADD14R,0.0591X0.0591*%
%ADD15C,0.0740*%
%ADD16C,0.0554*%
%ADD17R,0.0197X0.0984*%
%ADD18R,0.0787X0.0984*%
%ADD19R,0.0709X0.0630*%
%ADD20OC8,0.0740*%
%ADD21C,0.0787*%
%ADD22C,0.0650*%
%ADD23R,0.0650X0.0650*%
%ADD24R,0.1000X0.1000*%
%ADD25R,0.0531X0.0531*%
%ADD26C,0.0240*%
%ADD27C,0.0160*%
%ADD28R,0.0396X0.0396*%
%ADD29C,0.0700*%
D10*
X009977Y004680D02*
X010497Y004680D01*
X010497Y005680D02*
X009977Y005680D01*
X009977Y006680D02*
X010497Y006680D01*
X010497Y007680D02*
X009977Y007680D01*
X009977Y008680D02*
X010497Y008680D01*
X010497Y009680D02*
X009977Y009680D01*
X009977Y010680D02*
X010497Y010680D01*
X010497Y011680D02*
X009977Y011680D01*
X009977Y012680D02*
X010497Y012680D01*
X010497Y013680D02*
X009977Y013680D01*
X009977Y014680D02*
X010497Y014680D01*
X010497Y015680D02*
X009977Y015680D01*
X009977Y016680D02*
X010497Y016680D01*
X010497Y017680D02*
X009977Y017680D01*
X012977Y017680D02*
X013497Y017680D01*
X013497Y016680D02*
X012977Y016680D01*
X012977Y015680D02*
X013497Y015680D01*
X013497Y014680D02*
X012977Y014680D01*
X012977Y013680D02*
X013497Y013680D01*
X013497Y012680D02*
X012977Y012680D01*
X012977Y011680D02*
X013497Y011680D01*
X013497Y010680D02*
X012977Y010680D01*
X012977Y009680D02*
X013497Y009680D01*
X013497Y008680D02*
X012977Y008680D01*
X012977Y007680D02*
X013497Y007680D01*
X013497Y006680D02*
X012977Y006680D01*
X012977Y005680D02*
X013497Y005680D01*
X013497Y004680D02*
X012977Y004680D01*
D11*
X012717Y019290D02*
X013317Y019290D01*
X013317Y021070D02*
X012717Y021070D01*
X010757Y021070D02*
X010157Y021070D01*
X010157Y019290D02*
X010757Y019290D01*
D12*
X011288Y023680D03*
X011288Y024680D03*
X010185Y024680D03*
X010185Y023680D03*
X008788Y023680D03*
X008788Y024680D03*
X007685Y024680D03*
X007685Y023680D03*
X004788Y017180D03*
X004788Y016180D03*
X003685Y016180D03*
X003685Y017180D03*
X016685Y012180D03*
X017788Y012180D03*
D13*
X007237Y009630D03*
X007237Y007730D03*
D14*
X007426Y016180D03*
X007426Y017180D03*
X006048Y017180D03*
X006048Y016180D03*
X016548Y011180D03*
X017926Y011180D03*
D15*
X017107Y009180D02*
X016367Y009180D01*
X016367Y008180D02*
X017107Y008180D01*
X020367Y007680D02*
X021107Y007680D01*
X021107Y006680D02*
X020367Y006680D01*
X020367Y005680D02*
X021107Y005680D01*
X021107Y004680D02*
X020367Y004680D01*
X023367Y004680D02*
X024107Y004680D01*
X024107Y003680D02*
X023367Y003680D01*
X023367Y002680D02*
X024107Y002680D01*
X024107Y001680D02*
X023367Y001680D01*
X023367Y005680D02*
X024107Y005680D01*
X024107Y006680D02*
X023367Y006680D01*
X023367Y007680D02*
X024107Y007680D01*
X024107Y008680D02*
X023367Y008680D01*
X021107Y008680D02*
X020367Y008680D01*
X021367Y011680D02*
X022107Y011680D01*
X022107Y012680D02*
X021367Y012680D01*
X021367Y013680D02*
X022107Y013680D01*
X022107Y014680D02*
X021367Y014680D01*
X021367Y015680D02*
X022107Y015680D01*
X022107Y016680D02*
X021367Y016680D01*
X023367Y016680D02*
X024107Y016680D01*
X024107Y015680D02*
X023367Y015680D01*
X023367Y014680D02*
X024107Y014680D01*
X024107Y013680D02*
X023367Y013680D01*
X023367Y012680D02*
X024107Y012680D01*
X024107Y011680D02*
X023367Y011680D01*
X017237Y028310D02*
X017237Y029050D01*
X016237Y029050D02*
X016237Y028310D01*
X004607Y014680D02*
X003867Y014680D01*
X003867Y013680D02*
X004607Y013680D01*
X004607Y012680D02*
X003867Y012680D01*
X003867Y011680D02*
X004607Y011680D01*
X004607Y010680D02*
X003867Y010680D01*
X002107Y010680D02*
X001367Y010680D01*
X001367Y011680D02*
X002107Y011680D01*
X002107Y012680D02*
X001367Y012680D01*
X001367Y013680D02*
X002107Y013680D01*
X002107Y014680D02*
X001367Y014680D01*
X001367Y015680D02*
X002107Y015680D01*
X002107Y016680D02*
X001367Y016680D01*
X001367Y005180D02*
X002107Y005180D01*
X002107Y004180D02*
X001367Y004180D01*
X001367Y003180D02*
X002107Y003180D01*
X002107Y002180D02*
X001367Y002180D01*
D16*
X002371Y027680D03*
X004103Y027680D03*
D17*
X003867Y026696D03*
X003552Y026696D03*
X003237Y026696D03*
X002922Y026696D03*
X002607Y026696D03*
D18*
X001465Y026696D03*
X001465Y028861D03*
X005008Y028861D03*
X005008Y026696D03*
D19*
X006737Y027231D03*
X006737Y026129D03*
X007737Y026129D03*
X007737Y027231D03*
X012237Y027231D03*
X013237Y027231D03*
X013237Y026129D03*
X012237Y026129D03*
D20*
X012737Y002680D03*
X013737Y002680D03*
X013737Y001680D03*
X012737Y001680D03*
X011737Y001680D03*
X011737Y002680D03*
X010737Y002680D03*
X010737Y001680D03*
X009737Y001680D03*
X009737Y002680D03*
D21*
X021516Y022286D02*
X021516Y023074D01*
X022343Y024570D02*
X023130Y024570D01*
X023918Y023074D02*
X023918Y022286D01*
X021130Y025960D02*
X020343Y025960D01*
X018847Y026786D02*
X018847Y027574D01*
X020343Y028361D02*
X021130Y028361D01*
D22*
X019737Y018680D03*
X016737Y018680D03*
D23*
X016737Y019680D03*
X019737Y019680D03*
D24*
X004237Y022755D03*
X004237Y024605D03*
D25*
X003237Y022680D03*
X002237Y023180D03*
X001237Y025180D03*
X004237Y021180D03*
X005237Y022180D03*
X006737Y022680D03*
X006237Y023680D03*
X007737Y020680D03*
X006237Y019180D03*
X008237Y017180D03*
X008237Y016180D03*
X011737Y017680D03*
X009737Y020180D03*
X009737Y022180D03*
X010402Y022819D03*
X011287Y022693D03*
X011440Y021717D03*
X014737Y025680D03*
X013237Y028680D03*
X008237Y029180D03*
X007237Y028680D03*
X006237Y028680D03*
X000737Y019180D03*
X001737Y017680D03*
X003737Y006680D03*
X008237Y001180D03*
X009737Y003680D03*
X011737Y003680D03*
X011737Y007180D03*
X015737Y010180D03*
X015237Y012180D03*
X014237Y011680D03*
X014237Y014180D03*
X016737Y015680D03*
X017237Y016680D03*
X018237Y015180D03*
X020237Y010680D03*
X020737Y009680D03*
X017737Y009180D03*
X022737Y003680D03*
X024737Y018180D03*
X022737Y020180D03*
D26*
X024237Y020180D01*
X024737Y019680D01*
X024737Y018180D01*
X024237Y017680D02*
X019737Y017680D01*
X019237Y017180D01*
X019237Y015180D01*
X018237Y014180D01*
X014237Y014180D01*
X015237Y012180D02*
X016685Y012180D01*
X016788Y011180D02*
X016548Y011180D01*
X014737Y011180D01*
X014237Y011680D01*
X015737Y010180D02*
X016737Y010180D01*
X017737Y011180D01*
X017926Y011180D01*
X017788Y012180D02*
X019737Y012180D01*
X020237Y011680D01*
X020237Y010680D01*
X019737Y009680D02*
X020737Y009680D01*
X019737Y009680D02*
X019237Y009180D01*
X017737Y009180D01*
X016788Y011180D02*
X017788Y012180D01*
X016737Y015680D02*
X013737Y018680D01*
X009737Y018680D01*
X009237Y019180D01*
X009237Y019680D01*
X009737Y020180D01*
X008788Y018731D02*
X008237Y018180D01*
X008737Y018180D01*
X009237Y017680D01*
X009237Y012180D01*
X009737Y011680D01*
X010237Y011680D01*
X006237Y011680D01*
X005237Y010680D01*
X005237Y009680D01*
X004737Y009180D01*
X001237Y009180D01*
X000737Y009680D01*
X000737Y012180D01*
X001237Y012680D01*
X001737Y012680D01*
X004788Y016180D02*
X006048Y016180D01*
X006048Y017180D02*
X004788Y017180D01*
X004237Y018180D02*
X003737Y017680D01*
X003737Y017231D01*
X003685Y017180D01*
X004237Y018180D02*
X008237Y018180D01*
X008788Y018731D02*
X008788Y023680D01*
X010185Y023680D01*
X010185Y024680D01*
X010237Y024731D01*
X010237Y028680D01*
X009737Y029180D01*
X008237Y029180D01*
X007737Y029680D02*
X007237Y029180D01*
X007237Y028680D01*
X007737Y028180D01*
X008737Y028180D01*
X009237Y027680D01*
X009237Y026680D01*
X008685Y026129D01*
X007737Y026129D01*
X007737Y027231D02*
X007737Y027680D01*
X007237Y028180D01*
X006737Y028180D01*
X006237Y028680D01*
X007737Y029680D02*
X009737Y029680D01*
X010737Y028680D01*
X010737Y028180D01*
X011237Y027680D01*
X011788Y027680D01*
X012237Y027231D01*
X013237Y027231D01*
X013237Y028680D01*
X013237Y026129D02*
X012237Y026129D01*
X012237Y022680D01*
X011737Y022180D01*
X011440Y021717D02*
X011440Y020676D01*
X011951Y020165D01*
X013425Y020165D01*
X016246Y017343D01*
X016574Y017343D01*
X017237Y016680D01*
X012237Y017180D02*
X012237Y006680D01*
X011737Y006180D01*
X011737Y003680D01*
X011237Y004180D02*
X010737Y003680D01*
X009737Y003680D01*
X011237Y004180D02*
X011237Y006680D01*
X011737Y007180D01*
X008237Y001180D02*
X005237Y001180D01*
X004737Y001680D01*
X004737Y005680D01*
X003737Y006680D01*
X007426Y016180D02*
X008237Y016180D01*
X008237Y017180D02*
X007426Y017180D01*
X011737Y017680D02*
X012237Y017180D01*
X011287Y022693D02*
X011288Y022826D01*
X011288Y023680D01*
X010737Y024180D02*
X010737Y023154D01*
X010402Y022819D01*
X010737Y024180D02*
X011237Y024680D01*
X011288Y024680D01*
X013237Y026129D02*
X014288Y026129D01*
X014737Y025680D01*
X024237Y017680D02*
X024737Y017180D01*
X024737Y014180D01*
X024237Y013680D01*
X023737Y013680D01*
X024237Y013680D02*
X024737Y013180D01*
X024737Y001180D01*
X024237Y000680D01*
X019237Y000680D01*
X018737Y001180D01*
X018737Y003180D01*
X019237Y003680D01*
X022737Y003680D01*
X002237Y025180D02*
X002607Y025550D01*
X002607Y026696D01*
X002237Y025180D02*
X001237Y025180D01*
D27*
X000717Y001946D02*
X000717Y000660D01*
X018634Y000660D01*
X018364Y000931D01*
X018297Y001092D01*
X018297Y003268D01*
X018364Y003429D01*
X018487Y003553D01*
X018987Y004053D01*
X019149Y004120D01*
X019951Y004120D01*
X019782Y004289D01*
X019677Y004543D01*
X019677Y004817D01*
X019782Y005071D01*
X019891Y005180D01*
X019782Y005289D01*
X019677Y005543D01*
X019677Y005817D01*
X019782Y006071D01*
X019891Y006180D01*
X019782Y006289D01*
X019677Y006543D01*
X019677Y006817D01*
X019782Y007071D01*
X019891Y007180D01*
X019782Y007289D01*
X019677Y007543D01*
X019677Y007817D01*
X019782Y008071D01*
X019891Y008180D01*
X019782Y008289D01*
X019677Y008543D01*
X019677Y008817D01*
X019782Y009071D01*
X019951Y009240D01*
X019919Y009240D01*
X019486Y008807D01*
X019324Y008740D01*
X018277Y008740D01*
X018274Y008733D01*
X018184Y008643D01*
X018066Y008594D01*
X017668Y008594D01*
X017692Y008571D01*
X017797Y008317D01*
X017797Y008043D01*
X017692Y007789D01*
X017498Y007595D01*
X017244Y007490D01*
X016229Y007490D01*
X015976Y007595D01*
X015782Y007789D01*
X015677Y008043D01*
X015677Y008317D01*
X015782Y008571D01*
X015891Y008680D01*
X015782Y008789D01*
X015677Y009043D01*
X015677Y009317D01*
X015782Y009571D01*
X015805Y009594D01*
X015407Y009594D01*
X015290Y009643D01*
X015200Y009733D01*
X015151Y009851D01*
X015151Y010509D01*
X015200Y010627D01*
X015290Y010717D01*
X015407Y010766D01*
X016066Y010766D01*
X016181Y010718D01*
X016142Y010741D01*
X016108Y010774D01*
X016085Y010815D01*
X016072Y010861D01*
X016072Y011112D01*
X016480Y011112D01*
X016615Y011112D01*
X016615Y010705D01*
X016639Y010705D01*
X016554Y010620D01*
X016277Y010620D01*
X016274Y010627D01*
X016184Y010717D01*
X016229Y010705D01*
X016480Y010705D01*
X016480Y011112D01*
X016480Y011248D01*
X016072Y011248D01*
X016072Y011499D01*
X016085Y011545D01*
X016108Y011586D01*
X016133Y011611D01*
X016099Y011644D01*
X016060Y011740D01*
X015777Y011740D01*
X015774Y011733D01*
X015684Y011643D01*
X015566Y011594D01*
X014907Y011594D01*
X014790Y011643D01*
X014700Y011733D01*
X014651Y011851D01*
X014651Y012509D01*
X014700Y012627D01*
X014790Y012717D01*
X014907Y012766D01*
X015566Y012766D01*
X015684Y012717D01*
X015774Y012627D01*
X015777Y012620D01*
X016060Y012620D01*
X016099Y012716D01*
X016189Y012806D01*
X016307Y012854D01*
X017064Y012854D01*
X017182Y012806D01*
X017272Y012716D01*
X017313Y012617D01*
X017329Y012645D01*
X017362Y012678D01*
X017403Y012702D01*
X017449Y012714D01*
X017710Y012714D01*
X017710Y012257D01*
X017865Y012257D01*
X018283Y012257D01*
X018283Y012558D01*
X018271Y012604D01*
X018247Y012645D01*
X018213Y012678D01*
X018172Y012702D01*
X018127Y012714D01*
X017865Y012714D01*
X017865Y012257D01*
X017865Y012103D01*
X018283Y012103D01*
X018283Y011802D01*
X018281Y011795D01*
X018285Y011795D01*
X018402Y011747D01*
X018492Y011657D01*
X018541Y011539D01*
X018541Y010821D01*
X018492Y010703D01*
X018402Y010613D01*
X018285Y010565D01*
X017744Y010565D01*
X017110Y009931D01*
X017110Y009931D01*
X017049Y009870D01*
X017244Y009870D01*
X017496Y009766D01*
X018066Y009766D01*
X018184Y009717D01*
X018274Y009627D01*
X018277Y009620D01*
X019054Y009620D01*
X019364Y009929D01*
X019487Y010053D01*
X019649Y010120D01*
X020197Y010120D01*
X020200Y010127D01*
X020290Y010217D01*
X020407Y010266D01*
X021066Y010266D01*
X021184Y010217D01*
X021274Y010127D01*
X021322Y010009D01*
X021322Y009351D01*
X021318Y009339D01*
X021498Y009265D01*
X021692Y009071D01*
X021797Y008817D01*
X021797Y008543D01*
X021692Y008289D01*
X021582Y008180D01*
X021692Y008071D01*
X021797Y007817D01*
X021797Y007543D01*
X021692Y007289D01*
X021582Y007180D01*
X021692Y007071D01*
X021797Y006817D01*
X021797Y006543D01*
X021692Y006289D01*
X021582Y006180D01*
X021692Y006071D01*
X021797Y005817D01*
X021797Y005543D01*
X021692Y005289D01*
X021582Y005180D01*
X021692Y005071D01*
X021797Y004817D01*
X021797Y004543D01*
X021692Y004289D01*
X021522Y004120D01*
X022197Y004120D01*
X022200Y004127D01*
X022290Y004217D01*
X022407Y004266D01*
X022978Y004266D01*
X022996Y004273D01*
X022947Y004322D01*
X022896Y004392D01*
X022857Y004469D01*
X022830Y004551D01*
X022817Y004637D01*
X022817Y004650D01*
X023707Y004650D01*
X023707Y004710D01*
X022817Y004710D01*
X022817Y004723D01*
X022830Y004809D01*
X022857Y004891D01*
X022896Y004968D01*
X022947Y005038D01*
X022996Y005087D01*
X022976Y005095D01*
X022782Y005289D01*
X022677Y005543D01*
X022677Y005817D01*
X022782Y006071D01*
X022891Y006180D01*
X022782Y006289D01*
X022677Y006543D01*
X022677Y006817D01*
X022782Y007071D01*
X022891Y007180D01*
X022782Y007289D01*
X022677Y007543D01*
X022677Y007817D01*
X022782Y008071D01*
X022891Y008180D01*
X022782Y008289D01*
X022677Y008543D01*
X022677Y008817D01*
X022782Y009071D01*
X022976Y009265D01*
X023229Y009370D01*
X024244Y009370D01*
X024297Y009348D01*
X024297Y011012D01*
X024244Y010990D01*
X023229Y010990D01*
X022976Y011095D01*
X022782Y011289D01*
X022737Y011398D01*
X022692Y011289D01*
X022498Y011095D01*
X022244Y010990D01*
X021229Y010990D01*
X020976Y011095D01*
X020782Y011289D01*
X020677Y011543D01*
X020677Y011817D01*
X020782Y012071D01*
X020891Y012180D01*
X020782Y012289D01*
X020677Y012543D01*
X018283Y012543D01*
X018283Y012385D02*
X020742Y012385D01*
X020677Y012543D02*
X020677Y012817D01*
X020782Y013071D01*
X020891Y013180D01*
X020782Y013289D01*
X020677Y013543D01*
X020677Y013817D01*
X020782Y014071D01*
X020891Y014180D01*
X020782Y014289D01*
X020677Y014543D01*
X020677Y014817D01*
X020782Y015071D01*
X020891Y015180D01*
X020782Y015289D01*
X020677Y015543D01*
X020677Y015817D01*
X020782Y016071D01*
X020891Y016180D01*
X020782Y016289D01*
X020677Y016543D01*
X020677Y016817D01*
X020782Y017071D01*
X020951Y017240D01*
X019919Y017240D01*
X019677Y016998D01*
X019677Y015092D01*
X019610Y014931D01*
X018610Y013931D01*
X018486Y013807D01*
X018324Y013740D01*
X014777Y013740D01*
X014774Y013733D01*
X014684Y013643D01*
X014566Y013594D01*
X014077Y013594D01*
X014077Y013565D01*
X013988Y013351D01*
X013825Y013188D01*
X013805Y013180D01*
X013825Y013172D01*
X013988Y013009D01*
X014077Y012795D01*
X014077Y012565D01*
X013988Y012351D01*
X013825Y012188D01*
X013619Y012103D01*
X013666Y012088D01*
X013727Y012056D01*
X013783Y012016D01*
X013832Y011967D01*
X013873Y011911D01*
X013904Y011849D01*
X013926Y011783D01*
X013937Y011715D01*
X013937Y011680D01*
X013237Y011680D01*
X013237Y011680D01*
X013937Y011680D01*
X013937Y011645D01*
X013926Y011577D01*
X013904Y011511D01*
X013873Y011449D01*
X013832Y011393D01*
X013783Y011344D01*
X013727Y011304D01*
X013666Y011272D01*
X013619Y011257D01*
X013825Y011172D01*
X013988Y011009D01*
X014077Y010795D01*
X014077Y010565D01*
X013988Y010351D01*
X013825Y010188D01*
X013805Y010180D01*
X013825Y010172D01*
X013988Y010009D01*
X014077Y009795D01*
X014077Y009565D01*
X013988Y009351D01*
X013825Y009188D01*
X013805Y009180D01*
X013825Y009172D01*
X013988Y009009D01*
X014077Y008795D01*
X014077Y008565D01*
X013988Y008351D01*
X013825Y008188D01*
X013805Y008180D01*
X013825Y008172D01*
X013988Y008009D01*
X014077Y007795D01*
X014077Y007565D01*
X013988Y007351D01*
X013825Y007188D01*
X013805Y007180D01*
X013825Y007172D01*
X013988Y007009D01*
X014077Y006795D01*
X014077Y006565D01*
X013988Y006351D01*
X013825Y006188D01*
X013805Y006180D01*
X013825Y006172D01*
X013988Y006009D01*
X014077Y005795D01*
X014077Y005565D01*
X013988Y005351D01*
X013825Y005188D01*
X013805Y005180D01*
X013825Y005172D01*
X013988Y005009D01*
X014077Y004795D01*
X014077Y004565D01*
X013988Y004351D01*
X013825Y004188D01*
X013612Y004100D01*
X012861Y004100D01*
X012648Y004188D01*
X012485Y004351D01*
X012397Y004565D01*
X012397Y004795D01*
X012485Y005009D01*
X012648Y005172D01*
X012668Y005180D01*
X012648Y005188D01*
X012485Y005351D01*
X012397Y005565D01*
X012397Y005795D01*
X012485Y006009D01*
X012648Y006172D01*
X012668Y006180D01*
X012648Y006188D01*
X012508Y006329D01*
X012486Y006307D01*
X012177Y005998D01*
X012177Y004220D01*
X012184Y004217D01*
X012274Y004127D01*
X012322Y004009D01*
X012322Y003351D01*
X012274Y003233D01*
X012217Y003176D01*
X012237Y003156D01*
X012451Y003370D01*
X013022Y003370D01*
X013237Y003156D01*
X013451Y003370D01*
X014022Y003370D01*
X014427Y002966D01*
X014427Y002394D01*
X014212Y002180D01*
X014427Y001966D01*
X014427Y001394D01*
X014022Y000990D01*
X013451Y000990D01*
X013138Y001303D01*
X012964Y001130D01*
X012757Y001130D01*
X012757Y001660D01*
X012717Y001660D01*
X012717Y001130D01*
X012509Y001130D01*
X012237Y001402D01*
X011964Y001130D01*
X011757Y001130D01*
X011757Y001660D01*
X011757Y001700D01*
X012287Y001700D01*
X012717Y001700D01*
X012717Y001660D01*
X011757Y001660D01*
X011717Y001660D01*
X011717Y001130D01*
X011509Y001130D01*
X011237Y001402D01*
X010964Y001130D01*
X010757Y001130D01*
X010757Y001660D01*
X010757Y001700D01*
X011287Y001700D01*
X011717Y001700D01*
X011717Y001660D01*
X010757Y001660D01*
X010717Y001660D01*
X010717Y001130D01*
X010509Y001130D01*
X010237Y001402D01*
X009964Y001130D01*
X009757Y001130D01*
X009757Y001660D01*
X009757Y001700D01*
X010287Y001700D01*
X010717Y001700D01*
X010717Y001660D01*
X009757Y001660D01*
X009717Y001660D01*
X009717Y001130D01*
X009509Y001130D01*
X009187Y001452D01*
X009187Y001660D01*
X009717Y001660D01*
X009717Y001700D01*
X009187Y001700D01*
X009187Y001908D01*
X009360Y002081D01*
X009047Y002394D01*
X009047Y002966D01*
X009257Y003176D01*
X009200Y003233D01*
X009151Y003351D01*
X009151Y004009D01*
X009200Y004127D01*
X009290Y004217D01*
X009407Y004266D01*
X009571Y004266D01*
X009485Y004351D01*
X009397Y004565D01*
X009397Y004795D01*
X009485Y005009D01*
X009648Y005172D01*
X009668Y005180D01*
X009648Y005188D01*
X009485Y005351D01*
X009397Y005565D01*
X009397Y005795D01*
X009485Y006009D01*
X009648Y006172D01*
X009668Y006180D01*
X009648Y006188D01*
X009485Y006351D01*
X009397Y006565D01*
X009397Y006795D01*
X009485Y007009D01*
X009648Y007172D01*
X009668Y007180D01*
X009648Y007188D01*
X009485Y007351D01*
X009397Y007565D01*
X009397Y007795D01*
X009485Y008009D01*
X009648Y008172D01*
X009668Y008180D01*
X009648Y008188D01*
X009485Y008351D01*
X009397Y008565D01*
X009397Y008795D01*
X009485Y009009D01*
X009648Y009172D01*
X009668Y009180D01*
X009648Y009188D01*
X009485Y009351D01*
X009397Y009565D01*
X009397Y009795D01*
X009485Y010009D01*
X009648Y010172D01*
X009854Y010257D01*
X009808Y010272D01*
X009746Y010304D01*
X009690Y010344D01*
X009641Y010393D01*
X009600Y010449D01*
X009569Y010511D01*
X009548Y010577D01*
X009537Y010645D01*
X009537Y010680D01*
X010237Y010680D01*
X010937Y010680D01*
X010937Y010715D01*
X010926Y010783D01*
X010904Y010849D01*
X010873Y010911D01*
X010832Y010967D01*
X010783Y011016D01*
X010727Y011056D01*
X010666Y011088D01*
X010619Y011103D01*
X010825Y011188D01*
X010988Y011351D01*
X011077Y011565D01*
X011077Y011795D01*
X010988Y012009D01*
X010825Y012172D01*
X010805Y012180D01*
X010825Y012188D01*
X010988Y012351D01*
X011077Y012565D01*
X011077Y012795D01*
X010988Y013009D01*
X010825Y013172D01*
X010805Y013180D01*
X010825Y013188D01*
X010988Y013351D01*
X011077Y013565D01*
X011077Y013795D01*
X010988Y014009D01*
X010825Y014172D01*
X010805Y014180D01*
X010825Y014188D01*
X010988Y014351D01*
X011077Y014565D01*
X011077Y014795D01*
X010988Y015009D01*
X010825Y015172D01*
X010805Y015180D01*
X010825Y015188D01*
X010988Y015351D01*
X011077Y015565D01*
X011077Y015795D01*
X010988Y016009D01*
X010825Y016172D01*
X010805Y016180D01*
X010825Y016188D01*
X010988Y016351D01*
X011077Y016565D01*
X011077Y016795D01*
X010988Y017009D01*
X010825Y017172D01*
X010805Y017180D01*
X010825Y017188D01*
X010988Y017351D01*
X011077Y017565D01*
X011077Y017795D01*
X010988Y018009D01*
X010825Y018172D01*
X010660Y018240D01*
X011345Y018240D01*
X011290Y018217D01*
X011200Y018127D01*
X011151Y018009D01*
X011151Y017351D01*
X011200Y017233D01*
X011290Y017143D01*
X011407Y017094D01*
X011700Y017094D01*
X011797Y016998D01*
X011797Y007766D01*
X011407Y007766D01*
X011290Y007717D01*
X011200Y007627D01*
X011151Y007509D01*
X011151Y007217D01*
X010987Y007053D01*
X010966Y007031D01*
X010825Y007172D01*
X010805Y007180D01*
X010825Y007188D01*
X010988Y007351D01*
X011077Y007565D01*
X011077Y007795D01*
X010988Y008009D01*
X010825Y008172D01*
X010805Y008180D01*
X010825Y008188D01*
X010988Y008351D01*
X011077Y008565D01*
X011077Y008795D01*
X010988Y009009D01*
X010825Y009172D01*
X010805Y009180D01*
X010825Y009188D01*
X010988Y009351D01*
X011077Y009565D01*
X011077Y009795D01*
X010988Y010009D01*
X010825Y010172D01*
X010619Y010257D01*
X010666Y010272D01*
X010727Y010304D01*
X010783Y010344D01*
X010832Y010393D01*
X010873Y010449D01*
X010904Y010511D01*
X010926Y010577D01*
X010937Y010645D01*
X010937Y010680D01*
X010237Y010680D01*
X010237Y010680D01*
X010237Y010680D01*
X009537Y010680D01*
X009537Y010715D01*
X009548Y010783D01*
X009569Y010849D01*
X009600Y010911D01*
X009641Y010967D01*
X009690Y011016D01*
X009746Y011056D01*
X009808Y011088D01*
X009854Y011103D01*
X009648Y011188D01*
X009596Y011240D01*
X006419Y011240D01*
X005677Y010498D01*
X005677Y009592D01*
X005610Y009431D01*
X005486Y009307D01*
X004986Y008807D01*
X004824Y008740D01*
X001149Y008740D01*
X000987Y008807D01*
X000864Y008931D01*
X000717Y009078D01*
X000717Y005414D01*
X000782Y005571D01*
X000976Y005765D01*
X001229Y005870D01*
X002244Y005870D01*
X002498Y005765D01*
X002692Y005571D01*
X002797Y005317D01*
X002797Y005043D01*
X002692Y004789D01*
X002582Y004680D01*
X002692Y004571D01*
X002797Y004317D01*
X002797Y004043D01*
X002692Y003789D01*
X002582Y003680D01*
X002692Y003571D01*
X002797Y003317D01*
X002797Y003043D01*
X002692Y002789D01*
X002582Y002680D01*
X002692Y002571D01*
X002797Y002317D01*
X002797Y002043D01*
X002692Y001789D01*
X002498Y001595D01*
X002244Y001490D01*
X001229Y001490D01*
X000976Y001595D01*
X000782Y001789D01*
X000717Y001946D01*
X000717Y001924D02*
X000726Y001924D01*
X000717Y001765D02*
X000806Y001765D01*
X000717Y001607D02*
X000964Y001607D01*
X000717Y001448D02*
X009191Y001448D01*
X009187Y001607D02*
X002509Y001607D01*
X002667Y001765D02*
X009187Y001765D01*
X009202Y001924D02*
X002747Y001924D01*
X002797Y002082D02*
X009359Y002082D01*
X009200Y002241D02*
X002797Y002241D01*
X002763Y002399D02*
X009047Y002399D01*
X009047Y002558D02*
X002697Y002558D01*
X002618Y002716D02*
X009047Y002716D01*
X009047Y002875D02*
X002727Y002875D01*
X002793Y003033D02*
X009114Y003033D01*
X009241Y003192D02*
X002797Y003192D01*
X002783Y003350D02*
X009151Y003350D01*
X009151Y003509D02*
X002717Y003509D01*
X002595Y003667D02*
X009151Y003667D01*
X009151Y003826D02*
X002707Y003826D01*
X002772Y003984D02*
X009151Y003984D01*
X009215Y004143D02*
X002797Y004143D01*
X002797Y004301D02*
X009535Y004301D01*
X009440Y004460D02*
X002738Y004460D01*
X002644Y004618D02*
X009397Y004618D01*
X009397Y004777D02*
X002679Y004777D01*
X002752Y004935D02*
X009455Y004935D01*
X009570Y005094D02*
X002797Y005094D01*
X002797Y005252D02*
X009584Y005252D01*
X009461Y005411D02*
X002758Y005411D01*
X002692Y005569D02*
X009397Y005569D01*
X009397Y005728D02*
X002535Y005728D01*
X000938Y005728D02*
X000717Y005728D01*
X000717Y005886D02*
X009434Y005886D01*
X009521Y006045D02*
X000717Y006045D01*
X000717Y006203D02*
X009633Y006203D01*
X009481Y006362D02*
X000717Y006362D01*
X000717Y006520D02*
X009415Y006520D01*
X009397Y006679D02*
X000717Y006679D01*
X000717Y006837D02*
X009414Y006837D01*
X009480Y006996D02*
X000717Y006996D01*
X000717Y007154D02*
X007112Y007154D01*
X007121Y007150D02*
X007352Y007150D01*
X007565Y007238D01*
X007728Y007401D01*
X007817Y007615D01*
X007817Y007845D01*
X007728Y008059D01*
X007565Y008222D01*
X007352Y008310D01*
X007121Y008310D01*
X006908Y008222D01*
X006745Y008059D01*
X006657Y007845D01*
X006657Y007615D01*
X006745Y007401D01*
X006908Y007238D01*
X007121Y007150D01*
X007362Y007154D02*
X009630Y007154D01*
X009524Y007313D02*
X007639Y007313D01*
X007757Y007471D02*
X009435Y007471D01*
X009397Y007630D02*
X007817Y007630D01*
X007817Y007788D02*
X009397Y007788D01*
X009459Y007947D02*
X007775Y007947D01*
X007682Y008105D02*
X009581Y008105D01*
X009573Y008264D02*
X007464Y008264D01*
X007009Y008264D02*
X000717Y008264D01*
X000717Y008422D02*
X009456Y008422D01*
X009397Y008581D02*
X000717Y008581D01*
X000717Y008739D02*
X009397Y008739D01*
X009439Y008898D02*
X005076Y008898D01*
X005235Y009056D02*
X007107Y009056D01*
X007121Y009050D02*
X007352Y009050D01*
X007565Y009138D01*
X007728Y009301D01*
X007817Y009515D01*
X007817Y009745D01*
X007728Y009959D01*
X007565Y010122D01*
X007352Y010210D01*
X007121Y010210D01*
X006908Y010122D01*
X006745Y009959D01*
X006657Y009745D01*
X006657Y009515D01*
X006745Y009301D01*
X006908Y009138D01*
X007121Y009050D01*
X007367Y009056D02*
X009532Y009056D01*
X009622Y009215D02*
X007641Y009215D01*
X007758Y009373D02*
X009476Y009373D01*
X009410Y009532D02*
X007817Y009532D01*
X007817Y009690D02*
X009397Y009690D01*
X009419Y009849D02*
X007774Y009849D01*
X007680Y010007D02*
X009484Y010007D01*
X009642Y010166D02*
X007459Y010166D01*
X007014Y010166D02*
X005677Y010166D01*
X005677Y010324D02*
X009718Y010324D01*
X009583Y010483D02*
X005677Y010483D01*
X005820Y010641D02*
X009537Y010641D01*
X009553Y010800D02*
X005978Y010800D01*
X006137Y010958D02*
X009635Y010958D01*
X009821Y011117D02*
X006295Y011117D01*
X006793Y010007D02*
X005677Y010007D01*
X005677Y009849D02*
X006699Y009849D01*
X006657Y009690D02*
X005677Y009690D01*
X005651Y009532D02*
X006657Y009532D01*
X006715Y009373D02*
X005552Y009373D01*
X005393Y009215D02*
X006832Y009215D01*
X006791Y008105D02*
X000717Y008105D01*
X000717Y007947D02*
X006699Y007947D01*
X006657Y007788D02*
X000717Y007788D01*
X000717Y007630D02*
X006657Y007630D01*
X006716Y007471D02*
X000717Y007471D01*
X000717Y007313D02*
X006834Y007313D01*
X004554Y009620D02*
X004797Y009862D01*
X004797Y010012D01*
X004744Y009990D01*
X003729Y009990D01*
X003476Y010095D01*
X003282Y010289D01*
X003177Y010543D01*
X003177Y010817D01*
X003282Y011071D01*
X003391Y011180D01*
X003282Y011289D01*
X003177Y011543D01*
X003177Y011817D01*
X003282Y012071D01*
X003391Y012180D01*
X003282Y012289D01*
X003177Y012543D01*
X002797Y012543D01*
X002797Y012817D01*
X002692Y013071D01*
X002498Y013265D01*
X002478Y013273D01*
X002526Y013322D01*
X002577Y013392D01*
X002616Y013469D01*
X002643Y013551D01*
X002657Y013637D01*
X002657Y013660D01*
X001757Y013660D01*
X001757Y013700D01*
X002657Y013700D01*
X002657Y013723D01*
X002643Y013809D01*
X002616Y013891D01*
X002577Y013968D01*
X002526Y014038D01*
X002478Y014087D01*
X002498Y014095D01*
X002567Y014164D01*
X002567Y014047D01*
X002669Y013800D01*
X002857Y013612D01*
X003103Y013510D01*
X003190Y013510D01*
X003282Y013289D01*
X003391Y013180D01*
X003282Y013071D01*
X003177Y012817D01*
X003177Y012543D01*
X003177Y012702D02*
X002797Y012702D01*
X002779Y012860D02*
X003194Y012860D01*
X003260Y013019D02*
X002713Y013019D01*
X002585Y013177D02*
X003388Y013177D01*
X003263Y013336D02*
X002536Y013336D01*
X002625Y013494D02*
X003197Y013494D01*
X002817Y013653D02*
X002657Y013653D01*
X002642Y013811D02*
X002664Y013811D01*
X002599Y013970D02*
X002576Y013970D01*
X002567Y014128D02*
X002530Y014128D01*
X003237Y014180D02*
X003237Y015180D01*
X002737Y015680D01*
X002737Y017180D01*
X001737Y017680D01*
X002737Y017680D02*
X003055Y017361D01*
X003055Y016855D01*
X003231Y016680D01*
X003237Y016680D01*
X003685Y016231D01*
X003685Y016180D01*
X002737Y017680D02*
X002737Y018180D01*
X003237Y018680D01*
X006737Y018680D01*
X007237Y019180D01*
X007237Y019680D01*
X006737Y020180D01*
X006737Y022680D01*
X006237Y023680D02*
X006237Y024180D01*
X006737Y024680D01*
X007685Y024680D01*
X007051Y025080D02*
X006657Y025080D01*
X006510Y025019D01*
X006137Y024646D01*
X006137Y026514D01*
X006248Y026626D01*
X006300Y026604D01*
X006272Y026588D01*
X006238Y026554D01*
X006215Y026513D01*
X006202Y026467D01*
X006202Y026206D01*
X006659Y026206D01*
X006659Y026051D01*
X006814Y026051D01*
X006814Y025634D01*
X007115Y025634D01*
X007160Y025646D01*
X007202Y025670D01*
X007235Y025703D01*
X007237Y025706D01*
X007238Y025703D01*
X007272Y025670D01*
X007313Y025646D01*
X007359Y025634D01*
X007659Y025634D01*
X007659Y026051D01*
X007814Y026051D01*
X007814Y025634D01*
X008115Y025634D01*
X008160Y025646D01*
X008202Y025670D01*
X008235Y025703D01*
X008259Y025744D01*
X008271Y025790D01*
X008271Y026051D01*
X007814Y026051D01*
X007814Y026206D01*
X008271Y026206D01*
X008271Y026467D01*
X008259Y026513D01*
X008235Y026554D01*
X008202Y026588D01*
X008173Y026604D01*
X008272Y026645D01*
X008362Y026735D01*
X008411Y026853D01*
X008411Y027610D01*
X008362Y027727D01*
X008272Y027817D01*
X008155Y027866D01*
X008136Y027866D01*
X008110Y027929D01*
X007986Y028053D01*
X007486Y028553D01*
X007324Y028620D01*
X006919Y028620D01*
X006822Y028717D01*
X006822Y029009D01*
X006774Y029127D01*
X006684Y029217D01*
X006566Y029266D01*
X005907Y029266D01*
X005790Y029217D01*
X005722Y029149D01*
X005722Y029417D01*
X005673Y029534D01*
X005638Y029570D01*
X007676Y029570D01*
X007651Y029509D01*
X007651Y028851D01*
X007700Y028733D01*
X007790Y028643D01*
X007907Y028594D01*
X008566Y028594D01*
X008684Y028643D01*
X008774Y028733D01*
X008777Y028740D01*
X009554Y028740D01*
X009797Y028498D01*
X009797Y025350D01*
X009689Y025306D01*
X009599Y025216D01*
X009551Y025098D01*
X009551Y024262D01*
X009584Y024180D01*
X009560Y024120D01*
X009414Y024120D01*
X009389Y024180D01*
X009423Y024262D01*
X009423Y025098D01*
X009374Y025216D01*
X009284Y025306D01*
X009166Y025354D01*
X008409Y025354D01*
X008292Y025306D01*
X008237Y025251D01*
X008182Y025306D01*
X008064Y025354D01*
X007307Y025354D01*
X007189Y025306D01*
X007099Y025216D01*
X007051Y025098D01*
X007051Y025080D01*
X007107Y025223D02*
X006137Y025223D01*
X006137Y025065D02*
X006620Y025065D01*
X006397Y024906D02*
X006137Y024906D01*
X006137Y024748D02*
X006239Y024748D01*
X006137Y025382D02*
X009797Y025382D01*
X009797Y025540D02*
X006137Y025540D01*
X006137Y025699D02*
X006243Y025699D01*
X006238Y025703D02*
X006272Y025670D01*
X006313Y025646D01*
X006359Y025634D01*
X006659Y025634D01*
X006659Y026051D01*
X006202Y026051D01*
X006202Y025790D01*
X006215Y025744D01*
X006238Y025703D01*
X006202Y025857D02*
X006137Y025857D01*
X006137Y026016D02*
X006202Y026016D01*
X006137Y026174D02*
X006659Y026174D01*
X006814Y026174D02*
X007659Y026174D01*
X007659Y026206D02*
X007659Y026051D01*
X007202Y026051D01*
X006814Y026051D01*
X006814Y026206D01*
X007659Y026206D01*
X007814Y026174D02*
X009797Y026174D01*
X009797Y026016D02*
X008271Y026016D01*
X008271Y025857D02*
X009797Y025857D01*
X009797Y025699D02*
X008230Y025699D01*
X007814Y025699D02*
X007659Y025699D01*
X007659Y025857D02*
X007814Y025857D01*
X007814Y026016D02*
X007659Y026016D01*
X007243Y025699D02*
X007230Y025699D01*
X006814Y025699D02*
X006659Y025699D01*
X006659Y025857D02*
X006814Y025857D01*
X006814Y026016D02*
X006659Y026016D01*
X006202Y026333D02*
X006137Y026333D01*
X006137Y026491D02*
X006209Y026491D01*
X005737Y026680D02*
X005737Y019680D01*
X006237Y019180D01*
X005237Y019680D02*
X004737Y019180D01*
X000737Y019180D01*
X000717Y019766D02*
X000717Y029570D01*
X000836Y029570D01*
X000800Y029534D01*
X000751Y029417D01*
X000751Y028305D01*
X000800Y028188D01*
X000890Y028098D01*
X001008Y028049D01*
X001895Y028049D01*
X001864Y028018D01*
X001773Y027799D01*
X001773Y027561D01*
X001795Y027508D01*
X001008Y027508D01*
X000890Y027459D01*
X000800Y027369D01*
X000751Y027252D01*
X000751Y026140D01*
X000800Y026022D01*
X000890Y025932D01*
X001008Y025884D01*
X001922Y025884D01*
X002040Y025932D01*
X002130Y026022D01*
X002179Y026140D01*
X002179Y027113D01*
X002252Y027083D01*
X002328Y027083D01*
X002328Y026696D01*
X002503Y026696D01*
X002503Y026696D01*
X002328Y026696D01*
X002328Y026180D01*
X002341Y026134D01*
X002364Y026093D01*
X002398Y026060D01*
X002439Y026036D01*
X002485Y026024D01*
X002551Y026024D01*
X002552Y026022D01*
X002642Y025932D01*
X002760Y025884D01*
X002837Y025884D01*
X002837Y025846D01*
X002510Y025519D01*
X002398Y025407D01*
X002337Y025260D01*
X002337Y024346D01*
X001898Y023907D01*
X001837Y023760D01*
X001837Y023737D01*
X001790Y023717D01*
X001700Y023627D01*
X001651Y023509D01*
X001651Y022851D01*
X001700Y022733D01*
X001790Y022643D01*
X001907Y022594D01*
X002566Y022594D01*
X002651Y022629D01*
X002651Y022351D01*
X002700Y022233D01*
X002790Y022143D01*
X002907Y022094D01*
X003457Y022094D01*
X003465Y022074D01*
X003555Y021984D01*
X003673Y021935D01*
X003837Y021935D01*
X003837Y021737D01*
X003790Y021717D01*
X003700Y021627D01*
X003651Y021509D01*
X003651Y020851D01*
X003700Y020733D01*
X003790Y020643D01*
X003907Y020594D01*
X004566Y020594D01*
X004684Y020643D01*
X004774Y020733D01*
X004822Y020851D01*
X004822Y021509D01*
X004774Y021627D01*
X004684Y021717D01*
X004637Y021737D01*
X004637Y021935D01*
X004651Y021935D01*
X004651Y021851D01*
X004700Y021733D01*
X004790Y021643D01*
X004837Y021623D01*
X004837Y019846D01*
X004571Y019580D01*
X001293Y019580D01*
X001274Y019627D01*
X001184Y019717D01*
X001066Y019766D01*
X000717Y019766D01*
X000717Y019834D02*
X004825Y019834D01*
X004837Y019993D02*
X000717Y019993D01*
X000717Y020151D02*
X004837Y020151D01*
X004837Y020310D02*
X000717Y020310D01*
X000717Y020468D02*
X004837Y020468D01*
X004837Y020627D02*
X004644Y020627D01*
X004795Y020785D02*
X004837Y020785D01*
X004822Y020944D02*
X004837Y020944D01*
X004822Y021102D02*
X004837Y021102D01*
X004822Y021261D02*
X004837Y021261D01*
X004822Y021419D02*
X004837Y021419D01*
X004837Y021578D02*
X004794Y021578D01*
X004698Y021736D02*
X004638Y021736D01*
X004637Y021895D02*
X004651Y021895D01*
X005237Y022180D02*
X005237Y019680D01*
X004667Y019676D02*
X001225Y019676D01*
X000717Y020627D02*
X003829Y020627D01*
X003678Y020785D02*
X000717Y020785D01*
X000717Y020944D02*
X003651Y020944D01*
X003651Y021102D02*
X000717Y021102D01*
X000717Y021261D02*
X003651Y021261D01*
X003651Y021419D02*
X000717Y021419D01*
X000717Y021578D02*
X003679Y021578D01*
X003836Y021736D02*
X000717Y021736D01*
X000717Y021895D02*
X003837Y021895D01*
X003486Y022053D02*
X000717Y022053D01*
X000717Y022212D02*
X002721Y022212D01*
X002651Y022370D02*
X000717Y022370D01*
X000717Y022529D02*
X002651Y022529D01*
X003237Y022680D02*
X003237Y025180D01*
X003552Y025495D01*
X003552Y026696D01*
X003867Y026696D02*
X003867Y025550D01*
X004237Y025180D01*
X004237Y024605D01*
X003237Y025680D02*
X002737Y025180D01*
X002737Y024180D01*
X002237Y023680D01*
X002237Y023180D01*
X001651Y023163D02*
X000717Y023163D01*
X000717Y023321D02*
X001651Y023321D01*
X001651Y023480D02*
X000717Y023480D01*
X000717Y023638D02*
X001711Y023638D01*
X001852Y023797D02*
X000717Y023797D01*
X000717Y023955D02*
X001946Y023955D01*
X002105Y024114D02*
X000717Y024114D01*
X000717Y024272D02*
X002263Y024272D01*
X002337Y024431D02*
X000717Y024431D01*
X000717Y024589D02*
X002337Y024589D01*
X002337Y024748D02*
X000717Y024748D01*
X000717Y024906D02*
X002337Y024906D01*
X002337Y025065D02*
X000717Y025065D01*
X000717Y025223D02*
X002337Y025223D01*
X002387Y025382D02*
X000717Y025382D01*
X000717Y025540D02*
X002531Y025540D01*
X002690Y025699D02*
X000717Y025699D01*
X000717Y025857D02*
X002837Y025857D01*
X002559Y026016D02*
X002123Y026016D01*
X002179Y026174D02*
X002330Y026174D01*
X002328Y026333D02*
X002179Y026333D01*
X002179Y026491D02*
X002328Y026491D01*
X002328Y026650D02*
X002179Y026650D01*
X002179Y026808D02*
X002328Y026808D01*
X002328Y026967D02*
X002179Y026967D01*
X001773Y027601D02*
X000717Y027601D01*
X000717Y027759D02*
X001773Y027759D01*
X001823Y027918D02*
X000717Y027918D01*
X000717Y028076D02*
X000942Y028076D01*
X000781Y028235D02*
X000717Y028235D01*
X000717Y028393D02*
X000751Y028393D01*
X000751Y028552D02*
X000717Y028552D01*
X000717Y028710D02*
X000751Y028710D01*
X000751Y028869D02*
X000717Y028869D01*
X000717Y029027D02*
X000751Y029027D01*
X000751Y029186D02*
X000717Y029186D01*
X000717Y029344D02*
X000751Y029344D01*
X000717Y029503D02*
X000787Y029503D01*
X000717Y027442D02*
X000873Y027442D01*
X000765Y027284D02*
X000717Y027284D01*
X000717Y027125D02*
X000751Y027125D01*
X000751Y026967D02*
X000717Y026967D01*
X000717Y026808D02*
X000751Y026808D01*
X000751Y026650D02*
X000717Y026650D01*
X000717Y026491D02*
X000751Y026491D01*
X000751Y026333D02*
X000717Y026333D01*
X000717Y026174D02*
X000751Y026174D01*
X000717Y026016D02*
X000807Y026016D01*
X003237Y025680D02*
X003237Y026696D01*
X005737Y026680D02*
X006288Y027231D01*
X006737Y027231D01*
X007804Y028235D02*
X009797Y028235D01*
X009797Y028393D02*
X007646Y028393D01*
X007487Y028552D02*
X009743Y028552D01*
X009584Y028710D02*
X008751Y028710D01*
X007963Y028076D02*
X009797Y028076D01*
X009797Y027918D02*
X008115Y027918D01*
X008331Y027759D02*
X009797Y027759D01*
X009797Y027601D02*
X008411Y027601D01*
X008411Y027442D02*
X009797Y027442D01*
X009797Y027284D02*
X008411Y027284D01*
X008411Y027125D02*
X009797Y027125D01*
X009797Y026967D02*
X008411Y026967D01*
X008393Y026808D02*
X009797Y026808D01*
X009797Y026650D02*
X008277Y026650D01*
X008265Y026491D02*
X009797Y026491D01*
X009797Y026333D02*
X008271Y026333D01*
X009367Y025223D02*
X009607Y025223D01*
X009551Y025065D02*
X009423Y025065D01*
X009423Y024906D02*
X009551Y024906D01*
X009551Y024748D02*
X009423Y024748D01*
X009423Y024589D02*
X009551Y024589D01*
X009551Y024431D02*
X009423Y024431D01*
X009423Y024272D02*
X009551Y024272D01*
X008788Y024680D02*
X008737Y024680D01*
X007737Y023680D01*
X007685Y023680D01*
X007737Y023629D01*
X007737Y020680D01*
X009228Y020655D02*
X009228Y021705D01*
X009290Y021643D01*
X009407Y021594D01*
X010066Y021594D01*
X010184Y021643D01*
X010274Y021733D01*
X010293Y021780D01*
X010854Y021780D01*
X010854Y021541D01*
X010794Y021550D01*
X010477Y021550D01*
X010477Y021090D01*
X010437Y021090D01*
X010437Y021550D01*
X010119Y021550D01*
X010044Y021538D01*
X009972Y021515D01*
X009905Y021481D01*
X009844Y021436D01*
X009791Y021383D01*
X009746Y021322D01*
X009712Y021254D01*
X009688Y021182D01*
X009677Y021108D01*
X009677Y021090D01*
X010437Y021090D01*
X010437Y021050D01*
X010477Y021050D01*
X010477Y020590D01*
X010794Y020590D01*
X010869Y020602D01*
X010941Y020625D01*
X011000Y020655D01*
X011000Y020589D01*
X011067Y020427D01*
X011578Y019916D01*
X011702Y019792D01*
X011864Y019725D01*
X012275Y019725D01*
X012191Y019641D01*
X012097Y019413D01*
X012097Y019167D01*
X012116Y019120D01*
X011357Y019120D01*
X011377Y019167D01*
X011377Y019413D01*
X011282Y019641D01*
X011108Y019816D01*
X010880Y019910D01*
X010322Y019910D01*
X010322Y020509D01*
X010289Y020590D01*
X010437Y020590D01*
X010437Y021050D01*
X009677Y021050D01*
X009677Y021032D01*
X009688Y020958D01*
X009712Y020886D01*
X009746Y020818D01*
X009784Y020766D01*
X009407Y020766D01*
X009290Y020717D01*
X009228Y020655D01*
X009228Y020785D02*
X009770Y020785D01*
X009693Y020944D02*
X009228Y020944D01*
X009228Y021102D02*
X009677Y021102D01*
X009715Y021261D02*
X009228Y021261D01*
X009228Y021419D02*
X009827Y021419D01*
X010275Y021736D02*
X010854Y021736D01*
X010854Y021578D02*
X009228Y021578D01*
X009737Y022180D02*
X011737Y022180D01*
X012026Y021847D02*
X012486Y022307D01*
X012610Y022431D01*
X012677Y022592D01*
X012677Y025503D01*
X012737Y025528D01*
X012819Y025494D01*
X013655Y025494D01*
X013772Y025543D01*
X013862Y025633D01*
X013886Y025689D01*
X014106Y025689D01*
X014151Y025643D01*
X014151Y025351D01*
X014200Y025233D01*
X014290Y025143D01*
X014407Y025094D01*
X015066Y025094D01*
X015184Y025143D01*
X015274Y025233D01*
X015322Y025351D01*
X015322Y026009D01*
X015274Y026127D01*
X015184Y026217D01*
X015066Y026266D01*
X014773Y026266D01*
X014537Y026502D01*
X014375Y026569D01*
X013886Y026569D01*
X013862Y026625D01*
X013772Y026715D01*
X013673Y026756D01*
X013702Y026772D01*
X013735Y026806D01*
X013759Y026847D01*
X013771Y026893D01*
X013771Y027154D01*
X013314Y027154D01*
X013314Y027309D01*
X013159Y027309D01*
X013159Y027726D01*
X012859Y027726D01*
X012813Y027714D01*
X012772Y027690D01*
X012738Y027657D01*
X012737Y027654D01*
X012735Y027657D01*
X012702Y027690D01*
X012660Y027714D01*
X012615Y027726D01*
X012314Y027726D01*
X012314Y027309D01*
X012159Y027309D01*
X012159Y027726D01*
X011859Y027726D01*
X011813Y027714D01*
X011772Y027690D01*
X011738Y027657D01*
X011715Y027616D01*
X011702Y027570D01*
X011702Y027309D01*
X012159Y027309D01*
X012159Y027154D01*
X011702Y027154D01*
X011702Y026893D01*
X011715Y026847D01*
X011738Y026806D01*
X011772Y026772D01*
X011800Y026756D01*
X011701Y026715D01*
X011611Y026625D01*
X011562Y026507D01*
X011562Y025750D01*
X011611Y025633D01*
X011701Y025543D01*
X011797Y025503D01*
X011797Y025293D01*
X011784Y025306D01*
X011666Y025354D01*
X010909Y025354D01*
X010792Y025306D01*
X010737Y025251D01*
X010682Y025306D01*
X010677Y025308D01*
X010677Y028768D01*
X010610Y028929D01*
X010486Y029053D01*
X009986Y029553D01*
X009945Y029570D01*
X016057Y029570D01*
X016026Y029560D01*
X015948Y029520D01*
X015878Y029470D01*
X015817Y029408D01*
X015766Y029338D01*
X015727Y029261D01*
X015700Y029179D01*
X015687Y029093D01*
X015687Y028710D01*
X016207Y028710D01*
X016207Y028650D01*
X016267Y028650D01*
X016267Y027760D01*
X016280Y027760D01*
X016365Y027774D01*
X016448Y027800D01*
X016525Y027840D01*
X016595Y027890D01*
X016643Y027939D01*
X016652Y027919D01*
X016846Y027725D01*
X017099Y027620D01*
X017374Y027620D01*
X017628Y027725D01*
X017822Y027919D01*
X017927Y028173D01*
X017927Y029187D01*
X017822Y029441D01*
X017692Y029570D01*
X024749Y029570D01*
X024749Y020290D01*
X024486Y020553D01*
X024324Y020620D01*
X023277Y020620D01*
X023274Y020627D01*
X023184Y020717D01*
X023066Y020766D01*
X022407Y020766D01*
X022290Y020717D01*
X022200Y020627D01*
X022151Y020509D01*
X022151Y019851D01*
X022200Y019733D01*
X022290Y019643D01*
X022407Y019594D01*
X023066Y019594D01*
X023184Y019643D01*
X023274Y019733D01*
X023277Y019740D01*
X024054Y019740D01*
X024297Y019498D01*
X024297Y018720D01*
X024290Y018717D01*
X024200Y018627D01*
X024151Y018509D01*
X024151Y018120D01*
X019649Y018120D01*
X019487Y018053D01*
X018987Y017553D01*
X018864Y017429D01*
X018797Y017268D01*
X018797Y015362D01*
X018054Y014620D01*
X014777Y014620D01*
X014774Y014627D01*
X014684Y014717D01*
X014566Y014766D01*
X014077Y014766D01*
X014077Y014795D01*
X013988Y015009D01*
X013825Y015172D01*
X013805Y015180D01*
X013825Y015188D01*
X013988Y015351D01*
X014077Y015565D01*
X014077Y015795D01*
X013988Y016009D01*
X013825Y016172D01*
X013805Y016180D01*
X013825Y016188D01*
X013988Y016351D01*
X014077Y016565D01*
X014077Y016795D01*
X013988Y017009D01*
X013825Y017172D01*
X013805Y017180D01*
X013825Y017188D01*
X013988Y017351D01*
X014077Y017565D01*
X014077Y017718D01*
X016151Y015643D01*
X016151Y015351D01*
X016200Y015233D01*
X016290Y015143D01*
X016407Y015094D01*
X017066Y015094D01*
X017184Y015143D01*
X017274Y015233D01*
X017322Y015351D01*
X017322Y016009D01*
X017287Y016094D01*
X017566Y016094D01*
X017684Y016143D01*
X017774Y016233D01*
X017822Y016351D01*
X017822Y017009D01*
X017774Y017127D01*
X017684Y017217D01*
X017566Y017266D01*
X017273Y017266D01*
X016823Y017716D01*
X016661Y017783D01*
X016429Y017783D01*
X013674Y020538D01*
X013512Y020605D01*
X013438Y020605D01*
X013501Y020625D01*
X013568Y020659D01*
X013629Y020704D01*
X013683Y020757D01*
X013727Y020818D01*
X013761Y020886D01*
X013785Y020958D01*
X013797Y021032D01*
X013797Y021050D01*
X013037Y021050D01*
X013037Y021090D01*
X013797Y021090D01*
X013797Y021108D01*
X013785Y021182D01*
X013761Y021254D01*
X013727Y021322D01*
X013683Y021383D01*
X013629Y021436D01*
X013568Y021481D01*
X013501Y021515D01*
X013429Y021538D01*
X013354Y021550D01*
X013037Y021550D01*
X013037Y021090D01*
X012997Y021090D01*
X012997Y021550D01*
X012679Y021550D01*
X012604Y021538D01*
X012532Y021515D01*
X012465Y021481D01*
X012404Y021436D01*
X012351Y021383D01*
X012306Y021322D01*
X012272Y021254D01*
X012248Y021182D01*
X012237Y021108D01*
X012237Y021090D01*
X012997Y021090D01*
X012997Y021050D01*
X012237Y021050D01*
X012237Y021032D01*
X012248Y020958D01*
X012272Y020886D01*
X012306Y020818D01*
X012351Y020757D01*
X012404Y020704D01*
X012465Y020659D01*
X012532Y020625D01*
X012595Y020605D01*
X012133Y020605D01*
X011880Y020858D01*
X011880Y021177D01*
X011887Y021180D01*
X011977Y021270D01*
X012026Y021388D01*
X012026Y021847D01*
X012073Y021895D02*
X020906Y021895D01*
X020911Y021882D02*
X021112Y021681D01*
X021374Y021573D01*
X021658Y021573D01*
X021920Y021681D01*
X022121Y021882D01*
X022230Y022144D01*
X022230Y023216D01*
X022121Y023478D01*
X021920Y023679D01*
X021658Y023787D01*
X021374Y023787D01*
X021112Y023679D01*
X020911Y023478D01*
X020802Y023216D01*
X020802Y022144D01*
X020911Y021882D01*
X020840Y022053D02*
X012232Y022053D01*
X012390Y022212D02*
X020802Y022212D01*
X020802Y022370D02*
X012549Y022370D01*
X012650Y022529D02*
X020802Y022529D01*
X020802Y022687D02*
X012677Y022687D01*
X012677Y022846D02*
X020802Y022846D01*
X020802Y023004D02*
X012677Y023004D01*
X012677Y023163D02*
X020802Y023163D01*
X020846Y023321D02*
X012677Y023321D01*
X012677Y023480D02*
X020913Y023480D01*
X021071Y023638D02*
X012677Y023638D01*
X012677Y023797D02*
X024749Y023797D01*
X024749Y023955D02*
X012677Y023955D01*
X012677Y024114D02*
X021995Y024114D01*
X021969Y024132D02*
X022042Y024079D01*
X022123Y024038D01*
X022209Y024010D01*
X022298Y023996D01*
X022718Y023996D01*
X022718Y024551D01*
X022755Y024551D01*
X022755Y023996D01*
X023176Y023996D01*
X023265Y024010D01*
X023351Y024038D01*
X023431Y024079D01*
X023504Y024132D01*
X023568Y024196D01*
X023621Y024269D01*
X023662Y024350D01*
X023690Y024435D01*
X023704Y024525D01*
X023704Y024551D01*
X022755Y024551D01*
X022755Y024588D01*
X023704Y024588D01*
X023704Y024615D01*
X023690Y024704D01*
X023662Y024790D01*
X023621Y024870D01*
X023568Y024944D01*
X023504Y025007D01*
X023431Y025060D01*
X023351Y025101D01*
X023265Y025129D01*
X023176Y025143D01*
X022755Y025143D01*
X022755Y024588D01*
X022718Y024588D01*
X022718Y024551D01*
X021769Y024551D01*
X021769Y024525D01*
X021783Y024435D01*
X021811Y024350D01*
X021852Y024269D01*
X021905Y024196D01*
X021969Y024132D01*
X021851Y024272D02*
X012677Y024272D01*
X012677Y024431D02*
X021785Y024431D01*
X021769Y024588D02*
X022718Y024588D01*
X022718Y025143D01*
X022298Y025143D01*
X022209Y025129D01*
X022123Y025101D01*
X022042Y025060D01*
X021969Y025007D01*
X021905Y024944D01*
X021852Y024870D01*
X021811Y024790D01*
X021783Y024704D01*
X021769Y024615D01*
X021769Y024588D01*
X021769Y024589D02*
X012677Y024589D01*
X012677Y024748D02*
X021798Y024748D01*
X021878Y024906D02*
X012677Y024906D01*
X012677Y025065D02*
X022050Y025065D01*
X021720Y025540D02*
X024749Y025540D01*
X024749Y025382D02*
X021562Y025382D01*
X021535Y025354D02*
X021735Y025555D01*
X021844Y025818D01*
X021844Y026101D01*
X021735Y026364D01*
X021535Y026565D01*
X021272Y026673D01*
X020201Y026673D01*
X019939Y026565D01*
X019738Y026364D01*
X019629Y026101D01*
X019629Y025818D01*
X019738Y025555D01*
X019939Y025354D01*
X020201Y025246D01*
X021272Y025246D01*
X021535Y025354D01*
X021795Y025699D02*
X024749Y025699D01*
X024749Y025857D02*
X021844Y025857D01*
X021844Y026016D02*
X024749Y026016D01*
X024749Y026174D02*
X021814Y026174D01*
X021748Y026333D02*
X024749Y026333D01*
X024749Y026491D02*
X021608Y026491D01*
X021330Y026650D02*
X024749Y026650D01*
X024749Y026808D02*
X019421Y026808D01*
X019421Y026741D02*
X019421Y027162D01*
X018865Y027162D01*
X018865Y027198D01*
X019421Y027198D01*
X019421Y027619D01*
X019406Y027708D01*
X019379Y027794D01*
X019338Y027874D01*
X019284Y027947D01*
X019221Y028011D01*
X019148Y028064D01*
X019067Y028105D01*
X018981Y028133D01*
X018892Y028147D01*
X018865Y028147D01*
X018865Y027198D01*
X018828Y027198D01*
X018828Y027162D01*
X018273Y027162D01*
X018273Y026741D01*
X018287Y026652D01*
X018315Y026566D01*
X018356Y026486D01*
X018409Y026413D01*
X018473Y026349D01*
X018546Y026296D01*
X018627Y026255D01*
X018713Y026227D01*
X018802Y026213D01*
X018828Y026213D01*
X018828Y027162D01*
X018865Y027162D01*
X018865Y026213D01*
X018892Y026213D01*
X018981Y026227D01*
X019067Y026255D01*
X019148Y026296D01*
X019221Y026349D01*
X019284Y026413D01*
X019338Y026486D01*
X019379Y026566D01*
X019406Y026652D01*
X019421Y026741D01*
X019406Y026650D02*
X020144Y026650D01*
X019865Y026491D02*
X019340Y026491D01*
X019198Y026333D02*
X019725Y026333D01*
X019659Y026174D02*
X015227Y026174D01*
X015320Y026016D02*
X019629Y026016D01*
X019629Y025857D02*
X015322Y025857D01*
X015322Y025699D02*
X019679Y025699D01*
X019753Y025540D02*
X015322Y025540D01*
X015322Y025382D02*
X019912Y025382D01*
X018865Y026333D02*
X018828Y026333D01*
X018828Y026491D02*
X018865Y026491D01*
X018865Y026650D02*
X018828Y026650D01*
X018828Y026808D02*
X018865Y026808D01*
X018865Y026967D02*
X018828Y026967D01*
X018828Y027125D02*
X018865Y027125D01*
X018828Y027198D02*
X018273Y027198D01*
X018273Y027619D01*
X018287Y027708D01*
X018315Y027794D01*
X018356Y027874D01*
X018409Y027947D01*
X018473Y028011D01*
X018546Y028064D01*
X018627Y028105D01*
X018713Y028133D01*
X018802Y028147D01*
X018828Y028147D01*
X018828Y027198D01*
X018828Y027284D02*
X018865Y027284D01*
X018865Y027442D02*
X018828Y027442D01*
X018828Y027601D02*
X018865Y027601D01*
X018865Y027759D02*
X018828Y027759D01*
X018828Y027918D02*
X018865Y027918D01*
X018865Y028076D02*
X018828Y028076D01*
X018569Y028076D02*
X017887Y028076D01*
X017927Y028235D02*
X019782Y028235D01*
X019783Y028227D02*
X019811Y028141D01*
X019852Y028060D01*
X019905Y027987D01*
X019969Y027924D01*
X020042Y027870D01*
X020123Y027829D01*
X020209Y027802D01*
X020298Y027787D01*
X020718Y027787D01*
X020718Y028343D01*
X019769Y028343D01*
X019769Y028316D01*
X019783Y028227D01*
X019769Y028380D02*
X020718Y028380D01*
X020718Y028935D01*
X020298Y028935D01*
X020209Y028921D01*
X020123Y028893D01*
X020042Y028852D01*
X019969Y028799D01*
X019905Y028735D01*
X019852Y028662D01*
X019811Y028581D01*
X019783Y028495D01*
X019769Y028406D01*
X019769Y028380D01*
X019769Y028393D02*
X017927Y028393D01*
X017927Y028552D02*
X019802Y028552D01*
X019887Y028710D02*
X017927Y028710D01*
X017927Y028869D02*
X020075Y028869D01*
X020718Y028869D02*
X020755Y028869D01*
X020755Y028935D02*
X020755Y028380D01*
X020718Y028380D01*
X020718Y028343D01*
X020755Y028343D01*
X020755Y028380D01*
X021704Y028380D01*
X021704Y028406D01*
X021690Y028495D01*
X021662Y028581D01*
X021621Y028662D01*
X021568Y028735D01*
X021504Y028799D01*
X021431Y028852D01*
X021351Y028893D01*
X021265Y028921D01*
X021176Y028935D01*
X020755Y028935D01*
X020755Y028710D02*
X020718Y028710D01*
X020718Y028552D02*
X020755Y028552D01*
X020755Y028393D02*
X020718Y028393D01*
X020755Y028343D02*
X020755Y027787D01*
X021176Y027787D01*
X021265Y027802D01*
X021351Y027829D01*
X021431Y027870D01*
X021504Y027924D01*
X021568Y027987D01*
X021621Y028060D01*
X021662Y028141D01*
X021690Y028227D01*
X021704Y028316D01*
X021704Y028343D01*
X020755Y028343D01*
X020755Y028235D02*
X020718Y028235D01*
X020718Y028076D02*
X020755Y028076D01*
X020755Y027918D02*
X020718Y027918D01*
X019977Y027918D02*
X019306Y027918D01*
X019390Y027759D02*
X024749Y027759D01*
X024749Y027601D02*
X019421Y027601D01*
X019421Y027442D02*
X024749Y027442D01*
X024749Y027284D02*
X019421Y027284D01*
X019421Y027125D02*
X024749Y027125D01*
X024749Y026967D02*
X019421Y026967D01*
X018495Y026333D02*
X014706Y026333D01*
X014548Y026491D02*
X018353Y026491D01*
X018288Y026650D02*
X013838Y026650D01*
X013736Y026808D02*
X018273Y026808D01*
X018273Y026967D02*
X013771Y026967D01*
X013771Y027125D02*
X018273Y027125D01*
X018273Y027284D02*
X013314Y027284D01*
X013314Y027309D02*
X013771Y027309D01*
X013771Y027570D01*
X013759Y027616D01*
X013735Y027657D01*
X013702Y027690D01*
X013660Y027714D01*
X013615Y027726D01*
X013314Y027726D01*
X013314Y027309D01*
X013314Y027442D02*
X013159Y027442D01*
X013159Y027309D02*
X013159Y027154D01*
X012771Y027154D01*
X012314Y027154D01*
X012314Y027309D01*
X013159Y027309D01*
X013159Y027284D02*
X012314Y027284D01*
X012159Y027284D02*
X010677Y027284D01*
X010677Y027442D02*
X011702Y027442D01*
X011711Y027601D02*
X010677Y027601D01*
X010677Y027759D02*
X016812Y027759D01*
X016653Y027918D02*
X016622Y027918D01*
X016267Y027918D02*
X016207Y027918D01*
X016207Y027760D02*
X016207Y028650D01*
X015687Y028650D01*
X015687Y028267D01*
X015700Y028181D01*
X015727Y028099D01*
X015766Y028022D01*
X015817Y027952D01*
X015878Y027890D01*
X015948Y027840D01*
X016026Y027800D01*
X016108Y027774D01*
X016193Y027760D01*
X016207Y027760D01*
X016207Y028076D02*
X016267Y028076D01*
X016267Y028235D02*
X016207Y028235D01*
X016207Y028393D02*
X016267Y028393D01*
X016267Y028552D02*
X016207Y028552D01*
X015687Y028552D02*
X010677Y028552D01*
X010677Y028710D02*
X015687Y028710D01*
X015687Y028869D02*
X010635Y028869D01*
X010512Y029027D02*
X015687Y029027D01*
X015702Y029186D02*
X010353Y029186D01*
X010195Y029344D02*
X015770Y029344D01*
X015924Y029503D02*
X010036Y029503D01*
X010677Y028393D02*
X015687Y028393D01*
X015692Y028235D02*
X010677Y028235D01*
X010677Y028076D02*
X015739Y028076D01*
X015851Y027918D02*
X010677Y027918D01*
X010677Y027125D02*
X011702Y027125D01*
X011702Y026967D02*
X010677Y026967D01*
X010677Y026808D02*
X011737Y026808D01*
X011636Y026650D02*
X010677Y026650D01*
X010677Y026491D02*
X011562Y026491D01*
X011562Y026333D02*
X010677Y026333D01*
X010677Y026174D02*
X011562Y026174D01*
X011562Y026016D02*
X010677Y026016D01*
X010677Y025857D02*
X011562Y025857D01*
X011584Y025699D02*
X010677Y025699D01*
X010677Y025540D02*
X011707Y025540D01*
X011797Y025382D02*
X010677Y025382D01*
X012677Y025382D02*
X014151Y025382D01*
X014151Y025540D02*
X013766Y025540D01*
X014210Y025223D02*
X012677Y025223D01*
X012314Y027442D02*
X012159Y027442D01*
X012159Y027601D02*
X012314Y027601D01*
X013159Y027601D02*
X013314Y027601D01*
X013763Y027601D02*
X018273Y027601D01*
X018273Y027442D02*
X013771Y027442D01*
X015264Y025223D02*
X024749Y025223D01*
X024749Y025065D02*
X023423Y025065D01*
X023595Y024906D02*
X024749Y024906D01*
X024749Y024748D02*
X023676Y024748D01*
X023704Y024589D02*
X024749Y024589D01*
X024749Y024431D02*
X023688Y024431D01*
X023623Y024272D02*
X024749Y024272D01*
X024749Y024114D02*
X023478Y024114D01*
X023698Y023605D02*
X023783Y023633D01*
X023873Y023647D01*
X023899Y023647D01*
X023899Y022698D01*
X023899Y022662D01*
X023344Y022662D01*
X023344Y022241D01*
X023358Y022152D01*
X023386Y022066D01*
X023427Y021986D01*
X023480Y021913D01*
X023544Y021849D01*
X023617Y021796D01*
X023698Y021755D01*
X023783Y021727D01*
X023873Y021713D01*
X023899Y021713D01*
X023899Y022662D01*
X023936Y022662D01*
X023936Y022698D01*
X024491Y022698D01*
X024491Y023119D01*
X024477Y023208D01*
X024449Y023294D01*
X024408Y023374D01*
X024355Y023447D01*
X024292Y023511D01*
X024218Y023564D01*
X024138Y023605D01*
X024052Y023633D01*
X023963Y023647D01*
X023936Y023647D01*
X023936Y022698D01*
X023899Y022698D01*
X023344Y022698D01*
X023344Y023119D01*
X023358Y023208D01*
X023386Y023294D01*
X023427Y023374D01*
X023480Y023447D01*
X023544Y023511D01*
X023617Y023564D01*
X023698Y023605D01*
X023813Y023638D02*
X021961Y023638D01*
X022120Y023480D02*
X023512Y023480D01*
X023400Y023321D02*
X022186Y023321D01*
X022230Y023163D02*
X023351Y023163D01*
X023344Y023004D02*
X022230Y023004D01*
X022230Y022846D02*
X023344Y022846D01*
X023344Y022529D02*
X022230Y022529D01*
X022230Y022687D02*
X023899Y022687D01*
X023936Y022687D02*
X024749Y022687D01*
X024749Y022529D02*
X024491Y022529D01*
X024491Y022662D02*
X023936Y022662D01*
X023936Y021713D01*
X023963Y021713D01*
X024052Y021727D01*
X024138Y021755D01*
X024218Y021796D01*
X024292Y021849D01*
X024355Y021913D01*
X024408Y021986D01*
X024449Y022066D01*
X024477Y022152D01*
X024491Y022241D01*
X024491Y022662D01*
X024491Y022846D02*
X024749Y022846D01*
X024749Y023004D02*
X024491Y023004D01*
X024485Y023163D02*
X024749Y023163D01*
X024749Y023321D02*
X024436Y023321D01*
X024323Y023480D02*
X024749Y023480D01*
X024749Y023638D02*
X024022Y023638D01*
X023936Y023638D02*
X023899Y023638D01*
X023899Y023480D02*
X023936Y023480D01*
X023936Y023321D02*
X023899Y023321D01*
X023899Y023163D02*
X023936Y023163D01*
X023936Y023004D02*
X023899Y023004D01*
X023899Y022846D02*
X023936Y022846D01*
X023936Y022529D02*
X023899Y022529D01*
X023899Y022370D02*
X023936Y022370D01*
X023936Y022212D02*
X023899Y022212D01*
X023899Y022053D02*
X023936Y022053D01*
X023936Y021895D02*
X023899Y021895D01*
X023899Y021736D02*
X023936Y021736D01*
X024081Y021736D02*
X024749Y021736D01*
X024749Y021578D02*
X021670Y021578D01*
X021362Y021578D02*
X012026Y021578D01*
X012026Y021736D02*
X021057Y021736D01*
X021975Y021736D02*
X023755Y021736D01*
X023498Y021895D02*
X022126Y021895D01*
X022192Y022053D02*
X023393Y022053D01*
X023349Y022212D02*
X022230Y022212D01*
X022230Y022370D02*
X023344Y022370D01*
X024337Y021895D02*
X024749Y021895D01*
X024749Y022053D02*
X024443Y022053D01*
X024487Y022212D02*
X024749Y022212D01*
X024749Y022370D02*
X024491Y022370D01*
X024749Y021419D02*
X013646Y021419D01*
X013758Y021261D02*
X024749Y021261D01*
X024749Y021102D02*
X013797Y021102D01*
X013780Y020944D02*
X024749Y020944D01*
X024749Y020785D02*
X013703Y020785D01*
X013504Y020627D02*
X022199Y020627D01*
X022151Y020468D02*
X013744Y020468D01*
X013902Y020310D02*
X016311Y020310D01*
X016348Y020325D02*
X016230Y020276D01*
X016140Y020186D01*
X016092Y020069D01*
X016092Y019291D01*
X016140Y019174D01*
X016230Y019084D01*
X016348Y019035D01*
X016377Y019035D01*
X016351Y019009D01*
X016305Y018945D01*
X016269Y018874D01*
X016244Y018798D01*
X016232Y018720D01*
X016232Y018680D01*
X016232Y018640D01*
X016244Y018562D01*
X016269Y018486D01*
X016305Y018415D01*
X016351Y018351D01*
X016408Y018295D01*
X016472Y018248D01*
X016543Y018212D01*
X016618Y018187D01*
X016697Y018175D01*
X016737Y018175D01*
X016776Y018175D01*
X016855Y018187D01*
X016931Y018212D01*
X017001Y018248D01*
X017066Y018295D01*
X017122Y018351D01*
X017169Y018415D01*
X017205Y018486D01*
X017229Y018562D01*
X017242Y018640D01*
X017242Y018680D01*
X017242Y018720D01*
X017229Y018798D01*
X017205Y018874D01*
X017169Y018945D01*
X017122Y019009D01*
X017096Y019035D01*
X017125Y019035D01*
X017243Y019084D01*
X017333Y019174D01*
X017382Y019291D01*
X017382Y020069D01*
X017333Y020186D01*
X017243Y020276D01*
X017125Y020325D01*
X016348Y020325D01*
X016126Y020151D02*
X014061Y020151D01*
X014219Y019993D02*
X016092Y019993D01*
X016092Y019834D02*
X014378Y019834D01*
X014536Y019676D02*
X016092Y019676D01*
X016092Y019517D02*
X014695Y019517D01*
X014853Y019359D02*
X016092Y019359D01*
X016129Y019200D02*
X015012Y019200D01*
X015170Y019042D02*
X016332Y019042D01*
X016273Y018883D02*
X015329Y018883D01*
X015487Y018725D02*
X016232Y018725D01*
X016232Y018680D02*
X016737Y018680D01*
X017242Y018680D01*
X016737Y018680D01*
X016737Y018680D01*
X016737Y018175D01*
X016737Y018680D01*
X016737Y018680D01*
X016232Y018680D01*
X016243Y018566D02*
X015646Y018566D01*
X015804Y018408D02*
X016310Y018408D01*
X016471Y018249D02*
X015963Y018249D01*
X016121Y018091D02*
X019578Y018091D01*
X019618Y018187D02*
X019697Y018175D01*
X019737Y018175D01*
X019776Y018175D01*
X019855Y018187D01*
X019931Y018212D01*
X020001Y018248D01*
X020066Y018295D01*
X020122Y018351D01*
X020169Y018415D01*
X020205Y018486D01*
X020229Y018562D01*
X020242Y018640D01*
X020242Y018680D01*
X020242Y018720D01*
X020229Y018798D01*
X020205Y018874D01*
X020169Y018945D01*
X020122Y019009D01*
X020096Y019035D01*
X020125Y019035D01*
X020243Y019084D01*
X020333Y019174D01*
X020382Y019291D01*
X020382Y020069D01*
X020333Y020186D01*
X020243Y020276D01*
X020125Y020325D01*
X019348Y020325D01*
X019230Y020276D01*
X019140Y020186D01*
X019092Y020069D01*
X019092Y019291D01*
X019140Y019174D01*
X019230Y019084D01*
X019348Y019035D01*
X019377Y019035D01*
X019351Y019009D01*
X019305Y018945D01*
X019269Y018874D01*
X019244Y018798D01*
X019232Y018720D01*
X019232Y018680D01*
X019232Y018640D01*
X019244Y018562D01*
X019269Y018486D01*
X019305Y018415D01*
X019351Y018351D01*
X019408Y018295D01*
X019472Y018248D01*
X019543Y018212D01*
X019618Y018187D01*
X019737Y018175D02*
X019737Y018680D01*
X020242Y018680D01*
X019737Y018680D01*
X019737Y018680D01*
X019737Y018175D01*
X019737Y018249D02*
X019737Y018249D01*
X019737Y018408D02*
X019737Y018408D01*
X019737Y018566D02*
X019737Y018566D01*
X019737Y018680D02*
X019737Y018680D01*
X018737Y018680D01*
X018237Y018180D01*
X018237Y015180D01*
X018355Y014921D02*
X014025Y014921D01*
X013918Y015079D02*
X018513Y015079D01*
X018672Y015238D02*
X017276Y015238D01*
X017322Y015396D02*
X018797Y015396D01*
X018797Y015555D02*
X017322Y015555D01*
X017322Y015713D02*
X018797Y015713D01*
X018797Y015872D02*
X017322Y015872D01*
X017314Y016030D02*
X018797Y016030D01*
X018797Y016189D02*
X017729Y016189D01*
X017821Y016347D02*
X018797Y016347D01*
X018797Y016506D02*
X017822Y016506D01*
X017822Y016664D02*
X018797Y016664D01*
X018797Y016823D02*
X017822Y016823D01*
X017822Y016981D02*
X018797Y016981D01*
X018797Y017140D02*
X017761Y017140D01*
X017241Y017298D02*
X018809Y017298D01*
X018891Y017457D02*
X017082Y017457D01*
X016924Y017615D02*
X019049Y017615D01*
X019208Y017774D02*
X016684Y017774D01*
X016280Y017932D02*
X019366Y017932D01*
X019471Y018249D02*
X017003Y018249D01*
X017163Y018408D02*
X019310Y018408D01*
X019243Y018566D02*
X017230Y018566D01*
X017241Y018725D02*
X019232Y018725D01*
X019232Y018680D02*
X019737Y018680D01*
X019232Y018680D01*
X019273Y018883D02*
X017200Y018883D01*
X017141Y019042D02*
X019332Y019042D01*
X019129Y019200D02*
X017344Y019200D01*
X017382Y019359D02*
X019092Y019359D01*
X019092Y019517D02*
X017382Y019517D01*
X017382Y019676D02*
X019092Y019676D01*
X019092Y019834D02*
X017382Y019834D01*
X017382Y019993D02*
X019092Y019993D01*
X019126Y020151D02*
X017348Y020151D01*
X017163Y020310D02*
X019311Y020310D01*
X020163Y020310D02*
X022151Y020310D01*
X022151Y020151D02*
X020348Y020151D01*
X020382Y019993D02*
X022151Y019993D01*
X022158Y019834D02*
X020382Y019834D01*
X020382Y019676D02*
X022257Y019676D01*
X023216Y019676D02*
X024119Y019676D01*
X024277Y019517D02*
X020382Y019517D01*
X020382Y019359D02*
X024297Y019359D01*
X024297Y019200D02*
X020344Y019200D01*
X020141Y019042D02*
X024297Y019042D01*
X024297Y018883D02*
X020200Y018883D01*
X020241Y018725D02*
X024297Y018725D01*
X024174Y018566D02*
X020230Y018566D01*
X020163Y018408D02*
X024151Y018408D01*
X024151Y018249D02*
X020003Y018249D01*
X019737Y018680D02*
X019737Y018680D01*
X019818Y017140D02*
X020850Y017140D01*
X020745Y016981D02*
X019677Y016981D01*
X019677Y016823D02*
X020679Y016823D01*
X020677Y016664D02*
X019677Y016664D01*
X019677Y016506D02*
X020692Y016506D01*
X020758Y016347D02*
X019677Y016347D01*
X019677Y016189D02*
X020882Y016189D01*
X020765Y016030D02*
X019677Y016030D01*
X019677Y015872D02*
X020699Y015872D01*
X020677Y015713D02*
X019677Y015713D01*
X019677Y015555D02*
X020677Y015555D01*
X020737Y015396D02*
X019677Y015396D01*
X019677Y015238D02*
X020833Y015238D01*
X020790Y015079D02*
X019671Y015079D01*
X019599Y014921D02*
X020719Y014921D01*
X020677Y014762D02*
X019441Y014762D01*
X019282Y014604D02*
X020677Y014604D01*
X020717Y014445D02*
X019124Y014445D01*
X018965Y014287D02*
X020784Y014287D01*
X020839Y014128D02*
X018807Y014128D01*
X018648Y013970D02*
X020740Y013970D01*
X020677Y013811D02*
X018490Y013811D01*
X018196Y014762D02*
X014575Y014762D01*
X013874Y015238D02*
X016198Y015238D01*
X016151Y015396D02*
X014007Y015396D01*
X014072Y015555D02*
X016151Y015555D01*
X016081Y015713D02*
X014077Y015713D01*
X014045Y015872D02*
X015923Y015872D01*
X015764Y016030D02*
X013967Y016030D01*
X013825Y016189D02*
X015606Y016189D01*
X015447Y016347D02*
X013984Y016347D01*
X014052Y016506D02*
X015289Y016506D01*
X015130Y016664D02*
X014077Y016664D01*
X014065Y016823D02*
X014972Y016823D01*
X014813Y016981D02*
X014000Y016981D01*
X013857Y017140D02*
X014655Y017140D01*
X014496Y017298D02*
X013935Y017298D01*
X014032Y017457D02*
X014338Y017457D01*
X014179Y017615D02*
X014077Y017615D01*
X012225Y019676D02*
X011248Y019676D01*
X011334Y019517D02*
X012140Y019517D01*
X012097Y019359D02*
X011377Y019359D01*
X011377Y019200D02*
X012097Y019200D01*
X011660Y019834D02*
X011063Y019834D01*
X011343Y020151D02*
X010322Y020151D01*
X010322Y019993D02*
X011501Y019993D01*
X011184Y020310D02*
X010322Y020310D01*
X010322Y020468D02*
X011050Y020468D01*
X011000Y020627D02*
X010944Y020627D01*
X010477Y020627D02*
X010437Y020627D01*
X010437Y020785D02*
X010477Y020785D01*
X010477Y020944D02*
X010437Y020944D01*
X010437Y021102D02*
X010477Y021102D01*
X010477Y021261D02*
X010437Y021261D01*
X010437Y021419D02*
X010477Y021419D01*
X011880Y021102D02*
X012237Y021102D01*
X012253Y020944D02*
X011880Y020944D01*
X011953Y020785D02*
X012330Y020785D01*
X012530Y020627D02*
X012112Y020627D01*
X011967Y021261D02*
X012275Y021261D01*
X012387Y021419D02*
X012026Y021419D01*
X012997Y021419D02*
X013037Y021419D01*
X013037Y021261D02*
X012997Y021261D01*
X012997Y021102D02*
X013037Y021102D01*
X011185Y018091D02*
X010906Y018091D01*
X011020Y017932D02*
X011151Y017932D01*
X011151Y017774D02*
X011077Y017774D01*
X011077Y017615D02*
X011151Y017615D01*
X011151Y017457D02*
X011032Y017457D01*
X010935Y017298D02*
X011173Y017298D01*
X011298Y017140D02*
X010857Y017140D01*
X011000Y016981D02*
X011797Y016981D01*
X011797Y016823D02*
X011065Y016823D01*
X011077Y016664D02*
X011797Y016664D01*
X011797Y016506D02*
X011052Y016506D01*
X010984Y016347D02*
X011797Y016347D01*
X011797Y016189D02*
X010825Y016189D01*
X010967Y016030D02*
X011797Y016030D01*
X011797Y015872D02*
X011045Y015872D01*
X011077Y015713D02*
X011797Y015713D01*
X011797Y015555D02*
X011072Y015555D01*
X011007Y015396D02*
X011797Y015396D01*
X011797Y015238D02*
X010874Y015238D01*
X010918Y015079D02*
X011797Y015079D01*
X011797Y014921D02*
X011025Y014921D01*
X011077Y014762D02*
X011797Y014762D01*
X011797Y014604D02*
X011077Y014604D01*
X011027Y014445D02*
X011797Y014445D01*
X011797Y014287D02*
X010923Y014287D01*
X010869Y014128D02*
X011797Y014128D01*
X011797Y013970D02*
X011005Y013970D01*
X011070Y013811D02*
X011797Y013811D01*
X011797Y013653D02*
X011077Y013653D01*
X011047Y013494D02*
X011797Y013494D01*
X011797Y013336D02*
X010972Y013336D01*
X010812Y013177D02*
X011797Y013177D01*
X011797Y013019D02*
X010978Y013019D01*
X011050Y012860D02*
X011797Y012860D01*
X011797Y012702D02*
X011077Y012702D01*
X011068Y012543D02*
X011797Y012543D01*
X011797Y012385D02*
X011002Y012385D01*
X010863Y012226D02*
X011797Y012226D01*
X011797Y012068D02*
X010929Y012068D01*
X011030Y011909D02*
X011797Y011909D01*
X011797Y011751D02*
X011077Y011751D01*
X011077Y011592D02*
X011797Y011592D01*
X011797Y011434D02*
X011022Y011434D01*
X010912Y011275D02*
X011797Y011275D01*
X011797Y011117D02*
X010652Y011117D01*
X010839Y010958D02*
X011797Y010958D01*
X011797Y010800D02*
X010920Y010800D01*
X010936Y010641D02*
X011797Y010641D01*
X011797Y010483D02*
X010890Y010483D01*
X010755Y010324D02*
X011797Y010324D01*
X011797Y010166D02*
X010831Y010166D01*
X010989Y010007D02*
X011797Y010007D01*
X011797Y009849D02*
X011055Y009849D01*
X011077Y009690D02*
X011797Y009690D01*
X011797Y009532D02*
X011063Y009532D01*
X010997Y009373D02*
X011797Y009373D01*
X011797Y009215D02*
X010851Y009215D01*
X010941Y009056D02*
X011797Y009056D01*
X011797Y008898D02*
X011034Y008898D01*
X011077Y008739D02*
X011797Y008739D01*
X011797Y008581D02*
X011077Y008581D01*
X011018Y008422D02*
X011797Y008422D01*
X011797Y008264D02*
X010900Y008264D01*
X010892Y008105D02*
X011797Y008105D01*
X011797Y007947D02*
X011014Y007947D01*
X011077Y007788D02*
X011797Y007788D01*
X011202Y007630D02*
X011077Y007630D01*
X011038Y007471D02*
X011151Y007471D01*
X011151Y007313D02*
X010949Y007313D01*
X010843Y007154D02*
X011088Y007154D01*
X012223Y006045D02*
X012521Y006045D01*
X012434Y005886D02*
X012177Y005886D01*
X012177Y005728D02*
X012397Y005728D01*
X012397Y005569D02*
X012177Y005569D01*
X012177Y005411D02*
X012461Y005411D01*
X012584Y005252D02*
X012177Y005252D01*
X012177Y005094D02*
X012570Y005094D01*
X012455Y004935D02*
X012177Y004935D01*
X012177Y004777D02*
X012397Y004777D01*
X012397Y004618D02*
X012177Y004618D01*
X012177Y004460D02*
X012440Y004460D01*
X012535Y004301D02*
X012177Y004301D01*
X012258Y004143D02*
X012759Y004143D01*
X012322Y003984D02*
X018918Y003984D01*
X018760Y003826D02*
X012322Y003826D01*
X012322Y003667D02*
X018601Y003667D01*
X018443Y003509D02*
X012322Y003509D01*
X012322Y003350D02*
X012431Y003350D01*
X012272Y003192D02*
X012232Y003192D01*
X013042Y003350D02*
X013431Y003350D01*
X013272Y003192D02*
X013201Y003192D01*
X014042Y003350D02*
X018331Y003350D01*
X018297Y003192D02*
X014201Y003192D01*
X014359Y003033D02*
X018297Y003033D01*
X018297Y002875D02*
X014427Y002875D01*
X014427Y002716D02*
X018297Y002716D01*
X018297Y002558D02*
X014427Y002558D01*
X014427Y002399D02*
X018297Y002399D01*
X018297Y002241D02*
X014273Y002241D01*
X014310Y002082D02*
X018297Y002082D01*
X018297Y001924D02*
X014427Y001924D01*
X014427Y001765D02*
X018297Y001765D01*
X018297Y001607D02*
X014427Y001607D01*
X014427Y001448D02*
X018297Y001448D01*
X018297Y001290D02*
X014322Y001290D01*
X014163Y001131D02*
X018297Y001131D01*
X018346Y000973D02*
X000717Y000973D01*
X000717Y001131D02*
X009508Y001131D01*
X009717Y001131D02*
X009757Y001131D01*
X009757Y001290D02*
X009717Y001290D01*
X009717Y001448D02*
X009757Y001448D01*
X009757Y001607D02*
X009717Y001607D01*
X009349Y001290D02*
X000717Y001290D01*
X000717Y000814D02*
X018480Y000814D01*
X019177Y001362D02*
X019177Y002998D01*
X019419Y003240D01*
X022197Y003240D01*
X022200Y003233D01*
X022290Y003143D01*
X022407Y003094D01*
X022978Y003094D01*
X022996Y003087D01*
X022947Y003038D01*
X022896Y002968D01*
X022857Y002891D01*
X022830Y002809D01*
X022817Y002723D01*
X022817Y002710D01*
X023707Y002710D01*
X023707Y002650D01*
X022817Y002650D01*
X022817Y002637D01*
X022830Y002551D01*
X022857Y002469D01*
X022896Y002392D01*
X022947Y002322D01*
X022996Y002273D01*
X022976Y002265D01*
X022782Y002071D01*
X022677Y001817D01*
X022677Y001543D01*
X022782Y001289D01*
X022951Y001120D01*
X019419Y001120D01*
X019177Y001362D01*
X019177Y001448D02*
X022716Y001448D01*
X022677Y001607D02*
X019177Y001607D01*
X019177Y001765D02*
X022677Y001765D01*
X022721Y001924D02*
X019177Y001924D01*
X019177Y002082D02*
X022793Y002082D01*
X022951Y002241D02*
X019177Y002241D01*
X019177Y002399D02*
X022893Y002399D01*
X022829Y002558D02*
X019177Y002558D01*
X019177Y002716D02*
X022817Y002716D01*
X022852Y002875D02*
X019177Y002875D01*
X019212Y003033D02*
X022943Y003033D01*
X022241Y003192D02*
X019370Y003192D01*
X019928Y004143D02*
X013715Y004143D01*
X013938Y004301D02*
X019777Y004301D01*
X019711Y004460D02*
X014033Y004460D01*
X014077Y004618D02*
X019677Y004618D01*
X019677Y004777D02*
X014077Y004777D01*
X014019Y004935D02*
X019725Y004935D01*
X019804Y005094D02*
X013903Y005094D01*
X013889Y005252D02*
X019819Y005252D01*
X019731Y005411D02*
X014013Y005411D01*
X014077Y005569D02*
X019677Y005569D01*
X019677Y005728D02*
X014077Y005728D01*
X014039Y005886D02*
X019705Y005886D01*
X019771Y006045D02*
X013952Y006045D01*
X013840Y006203D02*
X019868Y006203D01*
X019752Y006362D02*
X013993Y006362D01*
X014058Y006520D02*
X019686Y006520D01*
X019677Y006679D02*
X014077Y006679D01*
X014059Y006837D02*
X019685Y006837D01*
X019751Y006996D02*
X013994Y006996D01*
X013843Y007154D02*
X019865Y007154D01*
X019772Y007313D02*
X013949Y007313D01*
X014038Y007471D02*
X019706Y007471D01*
X019677Y007630D02*
X017532Y007630D01*
X017690Y007788D02*
X019677Y007788D01*
X019730Y007947D02*
X017757Y007947D01*
X017797Y008105D02*
X019816Y008105D01*
X019807Y008264D02*
X017797Y008264D01*
X017753Y008422D02*
X019727Y008422D01*
X019677Y008581D02*
X017682Y008581D01*
X018276Y008739D02*
X019677Y008739D01*
X019710Y008898D02*
X019576Y008898D01*
X019735Y009056D02*
X019776Y009056D01*
X019893Y009215D02*
X019925Y009215D01*
X019283Y009849D02*
X017296Y009849D01*
X017186Y010007D02*
X019441Y010007D01*
X019124Y009690D02*
X018211Y009690D01*
X017503Y010324D02*
X024297Y010324D01*
X024297Y010166D02*
X021235Y010166D01*
X021322Y010007D02*
X024297Y010007D01*
X024297Y009849D02*
X021322Y009849D01*
X021322Y009690D02*
X024297Y009690D01*
X024297Y009532D02*
X021322Y009532D01*
X021322Y009373D02*
X024297Y009373D01*
X024297Y010483D02*
X017661Y010483D01*
X017344Y010166D02*
X020238Y010166D01*
X020237Y010680D02*
X021237Y010680D01*
X022237Y009680D01*
X022237Y004680D01*
X022215Y004143D02*
X021545Y004143D01*
X021697Y004301D02*
X022968Y004301D01*
X022862Y004460D02*
X021762Y004460D01*
X021797Y004618D02*
X022820Y004618D01*
X022825Y004777D02*
X021797Y004777D01*
X021748Y004935D02*
X022879Y004935D01*
X022980Y005094D02*
X021669Y005094D01*
X021654Y005252D02*
X022819Y005252D01*
X022731Y005411D02*
X021742Y005411D01*
X021797Y005569D02*
X022677Y005569D01*
X022677Y005728D02*
X021797Y005728D01*
X021768Y005886D02*
X022705Y005886D01*
X022771Y006045D02*
X021703Y006045D01*
X021605Y006203D02*
X022868Y006203D01*
X022752Y006362D02*
X021722Y006362D01*
X021787Y006520D02*
X022686Y006520D01*
X022677Y006679D02*
X021797Y006679D01*
X021788Y006837D02*
X022685Y006837D01*
X022751Y006996D02*
X021723Y006996D01*
X021608Y007154D02*
X022865Y007154D01*
X022772Y007313D02*
X021701Y007313D01*
X021767Y007471D02*
X022706Y007471D01*
X022677Y007630D02*
X021797Y007630D01*
X021797Y007788D02*
X022677Y007788D01*
X022730Y007947D02*
X021743Y007947D01*
X021657Y008105D02*
X022816Y008105D01*
X022807Y008264D02*
X021666Y008264D01*
X021747Y008422D02*
X022727Y008422D01*
X022677Y008581D02*
X021797Y008581D01*
X021797Y008739D02*
X022677Y008739D01*
X022710Y008898D02*
X021763Y008898D01*
X021698Y009056D02*
X022776Y009056D01*
X022925Y009215D02*
X021548Y009215D01*
X020954Y011117D02*
X018541Y011117D01*
X018541Y011275D02*
X020796Y011275D01*
X020722Y011434D02*
X018541Y011434D01*
X018519Y011592D02*
X020677Y011592D01*
X020677Y011751D02*
X018393Y011751D01*
X018283Y011909D02*
X020715Y011909D01*
X020780Y012068D02*
X018283Y012068D01*
X017865Y012226D02*
X020845Y012226D01*
X020677Y012702D02*
X018173Y012702D01*
X017865Y012702D02*
X017710Y012702D01*
X017710Y012543D02*
X017865Y012543D01*
X017865Y012385D02*
X017710Y012385D01*
X017402Y012702D02*
X017278Y012702D01*
X017313Y011743D02*
X017329Y011715D01*
X017362Y011682D01*
X017376Y011674D01*
X017359Y011657D01*
X017310Y011539D01*
X017310Y011376D01*
X017023Y011089D01*
X017023Y011112D01*
X016615Y011112D01*
X016615Y011248D01*
X017023Y011248D01*
X017023Y011499D01*
X017021Y011506D01*
X017064Y011506D01*
X017182Y011554D01*
X017272Y011644D01*
X017313Y011743D01*
X017332Y011592D02*
X017219Y011592D01*
X017310Y011434D02*
X017023Y011434D01*
X017023Y011275D02*
X017209Y011275D01*
X017051Y011117D02*
X016615Y011117D01*
X016480Y011117D02*
X013880Y011117D01*
X014009Y010958D02*
X016072Y010958D01*
X016094Y010800D02*
X014075Y010800D01*
X014077Y010641D02*
X015214Y010641D01*
X015151Y010483D02*
X014043Y010483D01*
X013961Y010324D02*
X015151Y010324D01*
X015151Y010166D02*
X013831Y010166D01*
X013989Y010007D02*
X015151Y010007D01*
X015152Y009849D02*
X014055Y009849D01*
X014077Y009690D02*
X015243Y009690D01*
X015677Y009215D02*
X013851Y009215D01*
X013941Y009056D02*
X015677Y009056D01*
X015737Y008898D02*
X014034Y008898D01*
X014077Y008739D02*
X015832Y008739D01*
X015791Y008581D02*
X014077Y008581D01*
X014018Y008422D02*
X015720Y008422D01*
X015677Y008264D02*
X013900Y008264D01*
X013892Y008105D02*
X015677Y008105D01*
X015717Y007947D02*
X014014Y007947D01*
X014077Y007788D02*
X015783Y007788D01*
X015941Y007630D02*
X014077Y007630D01*
X013997Y009373D02*
X015700Y009373D01*
X015765Y009532D02*
X014063Y009532D01*
X013671Y011275D02*
X016072Y011275D01*
X016072Y011434D02*
X013861Y011434D01*
X013928Y011592D02*
X016115Y011592D01*
X016480Y010958D02*
X016615Y010958D01*
X016615Y010800D02*
X016480Y010800D01*
X016575Y010641D02*
X016260Y010641D01*
X014692Y011751D02*
X013931Y011751D01*
X013874Y011909D02*
X014651Y011909D01*
X014651Y012068D02*
X013705Y012068D01*
X013863Y012226D02*
X014651Y012226D01*
X014651Y012385D02*
X014002Y012385D01*
X014068Y012543D02*
X014665Y012543D01*
X014774Y012702D02*
X014077Y012702D01*
X014050Y012860D02*
X020694Y012860D01*
X020760Y013019D02*
X013978Y013019D01*
X013812Y013177D02*
X020888Y013177D01*
X020763Y013336D02*
X013972Y013336D01*
X014047Y013494D02*
X020697Y013494D01*
X020677Y013653D02*
X014693Y013653D01*
X015699Y012702D02*
X016093Y012702D01*
X018541Y010958D02*
X024297Y010958D01*
X024297Y010800D02*
X018532Y010800D01*
X018430Y010641D02*
X024297Y010641D01*
X022954Y011117D02*
X022519Y011117D01*
X022677Y011275D02*
X022796Y011275D01*
X022737Y011962D02*
X022692Y012071D01*
X022582Y012180D01*
X022692Y012289D01*
X022797Y012543D01*
X022833Y012543D01*
X022830Y012551D02*
X022857Y012469D01*
X022896Y012392D01*
X022947Y012322D01*
X022996Y012273D01*
X022976Y012265D01*
X022782Y012071D01*
X022737Y011962D01*
X022693Y012068D02*
X022780Y012068D01*
X022628Y012226D02*
X022937Y012226D01*
X022902Y012385D02*
X022731Y012385D01*
X022797Y012543D02*
X022797Y012817D01*
X022692Y013071D01*
X022582Y013180D01*
X022692Y013289D01*
X022737Y013398D01*
X022782Y013289D01*
X022976Y013095D01*
X022996Y013087D01*
X022947Y013038D01*
X022896Y012968D01*
X022857Y012891D01*
X022830Y012809D01*
X022817Y012723D01*
X022817Y012710D01*
X023707Y012710D01*
X023707Y012650D01*
X022817Y012650D01*
X022817Y012637D01*
X022830Y012551D01*
X022797Y012702D02*
X023707Y012702D01*
X022933Y013019D02*
X022713Y013019D01*
X022779Y012860D02*
X022847Y012860D01*
X022894Y013177D02*
X022585Y013177D01*
X022711Y013336D02*
X022763Y013336D01*
X022737Y013962D02*
X022692Y014071D01*
X022582Y014180D01*
X022692Y014289D01*
X022797Y014543D01*
X022797Y014817D01*
X022692Y015071D01*
X022582Y015180D01*
X022692Y015289D01*
X022737Y015398D01*
X022782Y015289D01*
X022976Y015095D01*
X022996Y015087D01*
X022947Y015038D01*
X022896Y014968D01*
X022857Y014891D01*
X022830Y014809D01*
X022817Y014723D01*
X022817Y014710D01*
X023707Y014710D01*
X023707Y014650D01*
X022817Y014650D01*
X022817Y014637D01*
X022830Y014551D01*
X022857Y014469D01*
X022896Y014392D01*
X022947Y014322D01*
X022996Y014273D01*
X022976Y014265D01*
X022782Y014071D01*
X022737Y013962D01*
X022734Y013970D02*
X022740Y013970D01*
X022839Y014128D02*
X022634Y014128D01*
X022689Y014287D02*
X022982Y014287D01*
X022869Y014445D02*
X022756Y014445D01*
X022797Y014604D02*
X022822Y014604D01*
X022823Y014762D02*
X022797Y014762D01*
X022754Y014921D02*
X022872Y014921D01*
X022988Y015079D02*
X022683Y015079D01*
X022640Y015238D02*
X022833Y015238D01*
X022737Y015396D02*
X022736Y015396D01*
X024729Y020310D02*
X024749Y020310D01*
X024749Y020468D02*
X024571Y020468D01*
X024749Y020627D02*
X023274Y020627D01*
X022755Y024114D02*
X022718Y024114D01*
X022718Y024272D02*
X022755Y024272D01*
X022755Y024431D02*
X022718Y024431D01*
X022718Y024589D02*
X022755Y024589D01*
X022755Y024748D02*
X022718Y024748D01*
X022718Y024906D02*
X022755Y024906D01*
X022755Y025065D02*
X022718Y025065D01*
X021496Y027918D02*
X024749Y027918D01*
X024749Y028076D02*
X021629Y028076D01*
X021691Y028235D02*
X024749Y028235D01*
X024749Y028393D02*
X021704Y028393D01*
X021672Y028552D02*
X024749Y028552D01*
X024749Y028710D02*
X021586Y028710D01*
X021398Y028869D02*
X024749Y028869D01*
X024749Y029027D02*
X017927Y029027D01*
X017927Y029186D02*
X024749Y029186D01*
X024749Y029344D02*
X017862Y029344D01*
X017760Y029503D02*
X024749Y029503D01*
X019844Y028076D02*
X019125Y028076D01*
X018388Y027918D02*
X017820Y027918D01*
X017662Y027759D02*
X018304Y027759D01*
X016737Y018680D02*
X016737Y018680D01*
X016737Y018566D02*
X016737Y018566D01*
X016737Y018408D02*
X016737Y018408D01*
X016737Y018249D02*
X016737Y018249D01*
X007723Y028710D02*
X006829Y028710D01*
X006822Y028869D02*
X007651Y028869D01*
X007651Y029027D02*
X006815Y029027D01*
X006715Y029186D02*
X007651Y029186D01*
X007651Y029344D02*
X005722Y029344D01*
X005722Y029186D02*
X005758Y029186D01*
X005687Y029503D02*
X007651Y029503D01*
X004237Y022755D02*
X004237Y021180D01*
X001746Y022687D02*
X000717Y022687D01*
X000717Y022846D02*
X001653Y022846D01*
X001651Y023004D02*
X000717Y023004D01*
X000717Y014446D02*
X000782Y014289D01*
X000976Y014095D01*
X000996Y014087D01*
X000947Y014038D01*
X000896Y013968D01*
X000857Y013891D01*
X000830Y013809D01*
X000817Y013723D01*
X000817Y013700D01*
X001717Y013700D01*
X001717Y013660D01*
X000817Y013660D01*
X000817Y013637D01*
X000830Y013551D01*
X000857Y013469D01*
X000896Y013392D01*
X000947Y013322D01*
X000996Y013273D01*
X000976Y013265D01*
X000782Y013071D01*
X000717Y012914D01*
X000717Y014446D01*
X000717Y014445D02*
X000717Y014445D01*
X000717Y014287D02*
X000784Y014287D01*
X000717Y014128D02*
X000943Y014128D01*
X000897Y013970D02*
X000717Y013970D01*
X000717Y013811D02*
X000831Y013811D01*
X000817Y013653D02*
X000717Y013653D01*
X000717Y013494D02*
X000849Y013494D01*
X000937Y013336D02*
X000717Y013336D01*
X000717Y013177D02*
X000888Y013177D01*
X000760Y013019D02*
X000717Y013019D01*
X001757Y011700D02*
X002657Y011700D01*
X002657Y011723D01*
X002643Y011809D01*
X002616Y011891D01*
X002577Y011968D01*
X002526Y012038D01*
X002478Y012087D01*
X002498Y012095D01*
X002692Y012289D01*
X002797Y012543D01*
X002731Y012385D02*
X003242Y012385D01*
X003345Y012226D02*
X002628Y012226D01*
X002497Y012068D02*
X003280Y012068D01*
X003215Y011909D02*
X002607Y011909D01*
X002652Y011751D02*
X003177Y011751D01*
X003177Y011592D02*
X002650Y011592D01*
X002643Y011551D02*
X002657Y011637D01*
X002657Y011660D01*
X001757Y011660D01*
X001757Y011700D01*
X002478Y011273D02*
X002526Y011322D01*
X002577Y011392D01*
X002616Y011469D01*
X002643Y011551D01*
X002598Y011434D02*
X003222Y011434D01*
X003296Y011275D02*
X002479Y011275D01*
X002478Y011273D02*
X002498Y011265D01*
X002692Y011071D01*
X002797Y010817D01*
X002797Y010543D01*
X002692Y010289D01*
X002498Y010095D01*
X002244Y009990D01*
X001229Y009990D01*
X001177Y010012D01*
X001177Y009862D01*
X001419Y009620D01*
X004554Y009620D01*
X004624Y009690D02*
X001349Y009690D01*
X001190Y009849D02*
X004783Y009849D01*
X004785Y010007D02*
X004797Y010007D01*
X003688Y010007D02*
X002285Y010007D01*
X002568Y010166D02*
X003405Y010166D01*
X003267Y010324D02*
X002706Y010324D01*
X002772Y010483D02*
X003202Y010483D01*
X003177Y010641D02*
X002797Y010641D01*
X002797Y010800D02*
X003177Y010800D01*
X003235Y010958D02*
X002738Y010958D01*
X002646Y011117D02*
X003327Y011117D01*
X001188Y010007D02*
X001177Y010007D01*
X000738Y009056D02*
X000717Y009056D01*
X000717Y008898D02*
X000897Y008898D01*
X000781Y005569D02*
X000717Y005569D01*
X009965Y001131D02*
X010508Y001131D01*
X010717Y001131D02*
X010757Y001131D01*
X010757Y001290D02*
X010717Y001290D01*
X010717Y001448D02*
X010757Y001448D01*
X010757Y001607D02*
X010717Y001607D01*
X010349Y001290D02*
X010124Y001290D01*
X010965Y001131D02*
X011508Y001131D01*
X011717Y001131D02*
X011757Y001131D01*
X011757Y001290D02*
X011717Y001290D01*
X011717Y001448D02*
X011757Y001448D01*
X011757Y001607D02*
X011717Y001607D01*
X012124Y001290D02*
X012349Y001290D01*
X012508Y001131D02*
X011965Y001131D01*
X011349Y001290D02*
X011124Y001290D01*
X012717Y001290D02*
X012757Y001290D01*
X012757Y001448D02*
X012717Y001448D01*
X012717Y001607D02*
X012757Y001607D01*
X013124Y001290D02*
X013151Y001290D01*
X013310Y001131D02*
X012965Y001131D01*
X012757Y001131D02*
X012717Y001131D01*
X012633Y006203D02*
X012382Y006203D01*
X019249Y001290D02*
X022782Y001290D01*
X022940Y001131D02*
X019408Y001131D01*
D28*
X022237Y004680D03*
D29*
X003237Y014180D03*
M02*
