%
M48
M72
T01C0.0236
T02C0.0276
T03C0.0320
T04C0.0354
T05C0.0394
T06C0.0400
T07C0.0440
%
T01
X22237Y4680
T02
X19737Y18680
X19737Y19680
X16737Y19680
X16737Y18680
T03
X13237Y17680
X13237Y16680
X13237Y15680
X13237Y14680
X13237Y13680
X13237Y12680
X13237Y11680
X13237Y10680
X13237Y9680
X13237Y8680
X13237Y7680
X13237Y6680
X13237Y5680
X13237Y4680
X10237Y4680
X10237Y5680
X10237Y6680
X10237Y7680
X10237Y8680
X10237Y9680
X10237Y10680
X10237Y11680
X10237Y12680
X10237Y13680
X10237Y14680
X10237Y15680
X10237Y16680
X10237Y17680
X7237Y9630
X7237Y7730
T04
X3737Y6680
X8237Y1180
X9737Y3680
X11737Y3680
X11737Y7180
X15737Y10180
X15237Y12180
X14237Y11680
X14237Y14180
X16737Y15680
X17237Y16680
X18237Y15180
X20237Y10680
X20737Y9680
X17737Y9180
X22737Y3680
X11737Y17680
X9737Y20180
X9737Y22180
X10402Y22819
X11287Y22693
X11440Y21717
X14737Y25680
X13237Y28680
X8237Y29180
X7237Y28680
X6237Y28680
X4103Y27680
X2371Y27680
X1237Y25180
X2237Y23180
X3237Y22680
X4237Y21180
X5237Y22180
X6737Y22680
X6237Y23680
X7737Y20680
X6237Y19180
X8237Y17180
X8237Y16180
X3237Y14180
X1737Y17680
X737Y19180
X22737Y20180
X24737Y18180
T05
X23918Y22680
X22737Y24570
X21516Y22680
X20737Y25960
X18847Y27180
X20737Y28361
T06
X13017Y21070
X13017Y19290
X10457Y19290
X10457Y21070
X1737Y16680
X1737Y15680
X1737Y14680
X1737Y13680
X1737Y12680
X1737Y11680
X1737Y10680
X9737Y2680
X10737Y2680
X10737Y1680
X9737Y1680
X11737Y1680
X11737Y2680
X12737Y2680
X13737Y2680
X13737Y1680
X12737Y1680
T07
X1737Y2180
X1737Y3180
X1737Y4180
X1737Y5180
X4237Y10680
X4237Y11680
X4237Y12680
X4237Y13680
X4237Y14680
X16237Y28680
X17237Y28680
X21737Y16680
X21737Y15680
X21737Y14680
X21737Y13680
X21737Y12680
X21737Y11680
X23737Y11680
X23737Y12680
X23737Y13680
X23737Y14680
X23737Y15680
X23737Y16680
X23737Y8680
X23737Y7680
X23737Y6680
X23737Y5680
X23737Y4680
X23737Y3680
X23737Y2680
X23737Y1680
X20737Y4680
X20737Y5680
X20737Y6680
X20737Y7680
X20737Y8680
X16737Y8180
X16737Y9180
M30
