G75*
G70*
%OFA0B0*%
%FSLAX24Y24*%
%IPPOS*%
%LPD*%
%AMOC8*
5,1,8,0,0,1.08239X$1,22.5*
%
%ADD10C,0.0520*%
%ADD11C,0.0600*%
%ADD12C,0.0520*%
%ADD13R,0.0630X0.0709*%
%ADD14C,0.0740*%
%ADD15R,0.0118X0.0236*%
%ADD16R,0.0236X0.0118*%
%ADD17R,0.1299X0.1299*%
%ADD18R,0.0171X0.0171*%
%ADD19C,0.0554*%
%ADD20R,0.0709X0.0630*%
%ADD21R,0.1000X0.1000*%
%ADD22OC8,0.0740*%
%ADD23R,0.0790X0.0590*%
%ADD24R,0.0790X0.1500*%
%ADD25C,0.0787*%
%ADD26C,0.0650*%
%ADD27R,0.0650X0.0650*%
%ADD28C,0.0240*%
%ADD29R,0.0531X0.0531*%
%ADD30C,0.0160*%
%ADD31R,0.0396X0.0396*%
%ADD32C,0.0700*%
D10*
X009977Y004680D02*
X010497Y004680D01*
X010497Y005680D02*
X009977Y005680D01*
X009977Y006680D02*
X010497Y006680D01*
X010497Y007680D02*
X009977Y007680D01*
X009977Y008680D02*
X010497Y008680D01*
X010497Y009680D02*
X009977Y009680D01*
X009977Y010680D02*
X010497Y010680D01*
X010497Y011680D02*
X009977Y011680D01*
X009977Y012680D02*
X010497Y012680D01*
X010497Y013680D02*
X009977Y013680D01*
X009977Y014680D02*
X010497Y014680D01*
X010497Y015680D02*
X009977Y015680D01*
X009977Y016680D02*
X010497Y016680D01*
X010497Y017680D02*
X009977Y017680D01*
X012977Y017680D02*
X013497Y017680D01*
X013497Y016680D02*
X012977Y016680D01*
X012977Y015680D02*
X013497Y015680D01*
X013497Y014680D02*
X012977Y014680D01*
X012977Y013680D02*
X013497Y013680D01*
X013497Y012680D02*
X012977Y012680D01*
X012977Y011680D02*
X013497Y011680D01*
X013497Y010680D02*
X012977Y010680D01*
X012977Y009680D02*
X013497Y009680D01*
X013497Y008680D02*
X012977Y008680D01*
X012977Y007680D02*
X013497Y007680D01*
X013497Y006680D02*
X012977Y006680D01*
X012977Y005680D02*
X013497Y005680D01*
X013497Y004680D02*
X012977Y004680D01*
D11*
X012717Y019290D02*
X013317Y019290D01*
X013317Y021070D02*
X012717Y021070D01*
X010757Y021070D02*
X010157Y021070D01*
X010157Y019290D02*
X010757Y019290D01*
D12*
X007237Y009630D03*
X007237Y007730D03*
D13*
X005788Y007680D03*
X004685Y007680D03*
X004685Y009680D03*
X005788Y009680D03*
X016685Y010180D03*
X017788Y010180D03*
D14*
X017107Y009180D02*
X016367Y009180D01*
X016367Y008180D02*
X017107Y008180D01*
X020367Y007680D02*
X021107Y007680D01*
X021107Y006680D02*
X020367Y006680D01*
X020367Y005680D02*
X021107Y005680D01*
X021107Y004680D02*
X020367Y004680D01*
X023367Y004680D02*
X024107Y004680D01*
X024107Y003680D02*
X023367Y003680D01*
X023367Y002680D02*
X024107Y002680D01*
X024107Y001680D02*
X023367Y001680D01*
X023367Y005680D02*
X024107Y005680D01*
X024107Y006680D02*
X023367Y006680D01*
X023367Y007680D02*
X024107Y007680D01*
X024107Y008680D02*
X023367Y008680D01*
X021107Y008680D02*
X020367Y008680D01*
X021367Y011680D02*
X022107Y011680D01*
X022107Y012680D02*
X021367Y012680D01*
X021367Y013680D02*
X022107Y013680D01*
X022107Y014680D02*
X021367Y014680D01*
X021367Y015680D02*
X022107Y015680D01*
X022107Y016680D02*
X021367Y016680D01*
X023367Y016680D02*
X024107Y016680D01*
X024107Y015680D02*
X023367Y015680D01*
X023367Y014680D02*
X024107Y014680D01*
X024107Y013680D02*
X023367Y013680D01*
X023367Y012680D02*
X024107Y012680D01*
X024107Y011680D02*
X023367Y011680D01*
X017237Y028310D02*
X017237Y029050D01*
X016237Y029050D02*
X016237Y028310D01*
X004607Y014680D02*
X003867Y014680D01*
X003867Y013680D02*
X004607Y013680D01*
X004607Y012680D02*
X003867Y012680D01*
X003867Y011680D02*
X004607Y011680D01*
X004607Y010680D02*
X003867Y010680D01*
X002107Y010680D02*
X001367Y010680D01*
X001367Y011680D02*
X002107Y011680D01*
X002107Y012680D02*
X001367Y012680D01*
X001367Y013680D02*
X002107Y013680D01*
X002107Y014680D02*
X001367Y014680D01*
X001367Y015680D02*
X002107Y015680D01*
X002107Y016680D02*
X001367Y016680D01*
X001367Y005180D02*
X002107Y005180D01*
X002107Y004180D02*
X001367Y004180D01*
X001367Y003180D02*
X002107Y003180D01*
X002107Y002180D02*
X001367Y002180D01*
D15*
X002646Y018774D03*
X002843Y018774D03*
X003040Y018774D03*
X003237Y018774D03*
X003434Y018774D03*
X003630Y018774D03*
X003827Y018774D03*
X003827Y020586D03*
X003630Y020586D03*
X003434Y020586D03*
X003237Y020586D03*
X003040Y020586D03*
X002843Y020586D03*
X002646Y020586D03*
D16*
X002331Y020271D03*
X002331Y020074D03*
X002331Y019877D03*
X002331Y019680D03*
X002331Y019483D03*
X002331Y019286D03*
X002331Y019089D03*
X004142Y019089D03*
X004142Y019286D03*
X004142Y019483D03*
X004142Y019680D03*
X004142Y019877D03*
X004142Y020074D03*
X004142Y020271D03*
D17*
X003237Y019680D03*
D18*
X002409Y020508D03*
D19*
X002371Y027680D03*
X004103Y027680D03*
D20*
X006737Y021731D03*
X006737Y020629D03*
X014737Y019731D03*
X014737Y018629D03*
X021737Y018629D03*
X021737Y019731D03*
D21*
X019737Y021255D03*
X018237Y021255D03*
X018237Y023105D03*
X019737Y023105D03*
X017237Y024755D03*
X017237Y026605D03*
X010737Y026255D03*
X009237Y026255D03*
X009237Y028105D03*
X010737Y028105D03*
X015312Y001680D03*
X017162Y001680D03*
D22*
X013737Y001680D03*
X013737Y002680D03*
X012737Y002680D03*
X012737Y001680D03*
X011737Y001680D03*
X011737Y002680D03*
X010737Y002680D03*
X010737Y001680D03*
X009737Y001680D03*
X009737Y002680D03*
D23*
X013497Y022290D03*
X013497Y023190D03*
X013497Y024090D03*
D24*
X015977Y023180D03*
D25*
X018847Y026786D02*
X018847Y027574D01*
X020343Y028361D02*
X021130Y028361D01*
X021130Y025960D02*
X020343Y025960D01*
X022343Y024570D02*
X023130Y024570D01*
X023918Y023074D02*
X023918Y022286D01*
X021516Y022286D02*
X021516Y023074D01*
D26*
X019737Y018680D03*
X016737Y018680D03*
D27*
X016737Y019680D03*
X019737Y019680D03*
D28*
X000737Y001180D02*
X001237Y000680D01*
X016162Y000680D01*
X017162Y001680D01*
X021237Y001680D01*
X021737Y001180D01*
X023237Y001180D01*
X023737Y001680D01*
X024237Y001680D01*
X024737Y002180D01*
X024737Y010680D01*
X023737Y011680D01*
X024237Y011680D01*
X024737Y012180D01*
X024737Y018180D01*
X023737Y019180D02*
X023737Y022499D01*
X023918Y022680D01*
X023918Y023389D01*
X022737Y024570D01*
X023237Y025070D01*
X023237Y028180D01*
X023056Y028361D01*
X020737Y028361D01*
X020418Y028680D01*
X019737Y028680D01*
X018847Y027790D01*
X018847Y027180D01*
X018847Y029070D01*
X018237Y029680D01*
X016737Y029680D01*
X016237Y029180D01*
X016237Y028680D01*
X013237Y028680D01*
X010737Y028105D02*
X010737Y027680D01*
X010237Y027180D01*
X009737Y027180D01*
X009237Y026680D01*
X009237Y026255D01*
X009162Y026255D01*
X008237Y027180D01*
X008237Y029180D01*
X008737Y029680D02*
X007237Y029680D01*
X006737Y029680D01*
X006237Y029180D01*
X006237Y028680D01*
X006237Y027680D02*
X007237Y028680D01*
X006237Y027680D02*
X005737Y027680D01*
X005237Y028180D01*
X001737Y028180D01*
X001237Y027680D01*
X001237Y025180D01*
X006737Y022680D02*
X009237Y022680D01*
X009737Y022180D01*
X009737Y021680D02*
X009237Y021180D01*
X009237Y020680D01*
X009737Y020180D01*
X010457Y021070D02*
X013017Y021070D01*
X013017Y020400D01*
X014237Y019180D01*
X014237Y019129D01*
X014737Y018629D01*
X016685Y018629D01*
X016737Y018680D01*
X019737Y018680D01*
X021685Y018680D01*
X021737Y018629D01*
X023185Y018629D01*
X023737Y019180D01*
X022737Y020180D02*
X022237Y019680D01*
X021685Y019680D01*
X021737Y019731D01*
X021685Y019680D02*
X019737Y019680D01*
X019737Y021255D01*
X018237Y021255D01*
X018162Y021180D01*
X017737Y021180D01*
X017237Y021680D01*
X017237Y024755D01*
X014237Y024755D01*
X014737Y025255D01*
X014737Y025680D01*
X014237Y024755D02*
X013812Y024755D01*
X013237Y024180D01*
X013407Y024180D01*
X013497Y024090D01*
X013497Y023190D02*
X011227Y023190D01*
X010737Y023680D01*
X010737Y026255D01*
X009237Y028105D02*
X009237Y029180D01*
X008737Y029680D01*
X013497Y023190D02*
X014227Y023190D01*
X014737Y022680D01*
X014737Y019731D01*
X016685Y019731D01*
X016737Y019680D01*
X014237Y017680D02*
X015237Y016680D01*
X017237Y016680D01*
X021737Y016680D01*
X023737Y016680D01*
X023737Y015680D02*
X021737Y015680D01*
X016737Y015680D01*
X015737Y015680D01*
X014737Y016680D01*
X013237Y016680D01*
X013237Y015680D02*
X015237Y015680D01*
X016237Y014680D01*
X021737Y014680D01*
X021737Y013680D02*
X016737Y013680D01*
X015737Y014680D01*
X013237Y014680D01*
X013237Y013680D02*
X016237Y013680D01*
X016737Y013180D01*
X018237Y013180D01*
X018737Y012680D01*
X021737Y012680D01*
X021737Y011680D02*
X018737Y011680D01*
X017737Y012680D01*
X016237Y012680D01*
X015737Y013180D01*
X014737Y013180D01*
X014237Y012680D01*
X013237Y012680D01*
X013237Y011680D02*
X011737Y011680D01*
X011237Y011180D01*
X011237Y010180D01*
X011237Y009680D01*
X010737Y009180D01*
X008237Y009180D01*
X007737Y008680D01*
X005237Y008680D01*
X004685Y008129D01*
X004685Y007680D01*
X004237Y007680D01*
X003737Y007180D01*
X003737Y006680D01*
X005237Y008680D02*
X004737Y009180D01*
X004737Y009629D01*
X004685Y009680D01*
X003737Y009680D01*
X002737Y010680D01*
X002737Y011180D01*
X002237Y011680D01*
X001737Y011680D01*
X002237Y011680D02*
X002737Y012180D01*
X002737Y013180D01*
X002237Y013680D01*
X001737Y013680D01*
X001737Y014680D02*
X002737Y014680D01*
X003237Y014180D01*
X003737Y013680D01*
X004237Y013680D01*
X005237Y013680D01*
X006737Y015180D01*
X006737Y015680D01*
X007237Y016180D01*
X008237Y016180D01*
X008737Y016180D01*
X009237Y015680D01*
X010237Y015680D01*
X010237Y016680D02*
X009237Y016680D01*
X008737Y017180D01*
X008237Y017180D01*
X006737Y017180D01*
X006237Y016680D01*
X006237Y015180D01*
X005737Y014680D01*
X004237Y014680D01*
X003737Y014680D01*
X002737Y015680D01*
X001737Y015680D01*
X001737Y016680D02*
X005737Y016680D01*
X006737Y017680D01*
X010237Y017680D01*
X011737Y017680D01*
X013237Y017680D02*
X014237Y017680D01*
X013017Y019290D02*
X010457Y019290D01*
X010237Y021680D02*
X009737Y021680D01*
X010237Y021680D02*
X010737Y022180D01*
X010737Y022485D01*
X010402Y022819D01*
X011287Y022693D02*
X011291Y021866D01*
X011440Y021717D01*
X013017Y021070D02*
X013497Y021550D01*
X013497Y022290D01*
X017237Y026605D02*
X017237Y028680D01*
X019016Y025960D02*
X018237Y025180D01*
X018237Y023105D01*
X019737Y023105D02*
X021091Y023105D01*
X021516Y022680D01*
X020737Y025960D02*
X019016Y025960D01*
X022737Y015180D02*
X023237Y014680D01*
X022737Y014180D01*
X022737Y013180D01*
X023237Y012680D01*
X022737Y012180D01*
X022737Y010680D01*
X022237Y010180D01*
X021237Y010180D01*
X020737Y010680D01*
X020237Y010680D01*
X020737Y009680D02*
X020737Y008680D01*
X023737Y008680D01*
X023737Y007680D02*
X020737Y007680D01*
X019237Y007680D01*
X018737Y007180D01*
X014737Y007180D01*
X014237Y007680D01*
X013237Y007680D01*
X012237Y007680D01*
X011737Y007180D01*
X012237Y006180D02*
X012737Y006680D01*
X013237Y006680D01*
X020737Y006680D01*
X023737Y006680D01*
X023737Y005680D02*
X020737Y005680D01*
X013237Y005680D01*
X012237Y006180D02*
X012237Y004180D01*
X012737Y003680D01*
X013237Y003680D01*
X013737Y003180D01*
X013737Y002680D01*
X013737Y001680D02*
X015312Y001680D01*
X012737Y001680D02*
X011737Y001680D01*
X010737Y001680D01*
X009737Y001680D01*
X008737Y001680D01*
X008237Y001180D01*
X009737Y002680D02*
X009737Y003680D01*
X009737Y004680D02*
X008737Y003680D01*
X003737Y003680D01*
X002237Y002180D01*
X001737Y002180D01*
X001737Y003180D02*
X002737Y003180D01*
X003737Y004180D01*
X008737Y004180D01*
X009237Y004680D01*
X009237Y005180D01*
X009737Y005680D01*
X010237Y005680D01*
X010237Y006680D02*
X009237Y006680D01*
X008737Y006180D01*
X008737Y005180D01*
X008237Y004680D01*
X003737Y004680D01*
X003237Y004180D01*
X001737Y004180D01*
X001737Y005180D02*
X007737Y005180D01*
X008237Y005680D01*
X008237Y007180D01*
X008737Y007680D01*
X010237Y007680D01*
X010237Y008680D02*
X008737Y008680D01*
X007787Y007730D01*
X007237Y007730D01*
X007187Y007680D01*
X005788Y007680D01*
X005788Y009680D02*
X007187Y009680D01*
X007237Y009630D01*
X007287Y009680D01*
X010237Y009680D01*
X010237Y010680D02*
X010737Y010680D01*
X011237Y010180D01*
X011237Y011680D02*
X010237Y011680D01*
X010237Y012680D02*
X007237Y012680D01*
X006737Y012180D01*
X006737Y011180D01*
X006237Y010680D01*
X004237Y010680D01*
X004237Y011680D02*
X005737Y011680D01*
X007737Y013680D01*
X010237Y013680D01*
X010237Y014680D02*
X007737Y014680D01*
X005737Y012680D01*
X004237Y012680D01*
X001737Y010680D02*
X001737Y006680D01*
X000737Y005680D01*
X000737Y001180D01*
X009737Y004680D02*
X010237Y004680D01*
X011237Y003180D02*
X010737Y002680D01*
X011237Y003180D02*
X011237Y008180D01*
X011737Y008680D01*
X013237Y008680D01*
X015237Y008680D01*
X015737Y009180D01*
X016737Y009180D01*
X017737Y009180D01*
X017788Y010180D02*
X018237Y010180D01*
X018737Y009680D01*
X018737Y008680D01*
X018237Y008180D01*
X016737Y008180D01*
X016685Y010180D02*
X015737Y010180D01*
X015237Y011180D02*
X015237Y012180D01*
X015237Y011180D02*
X014737Y010680D01*
X013237Y010680D01*
X013237Y009680D01*
X013237Y011680D02*
X014237Y011680D01*
X014237Y014180D02*
X012237Y014180D01*
X011737Y013680D01*
X011737Y012180D01*
X011237Y011680D01*
X013237Y004680D02*
X020737Y004680D01*
X021237Y003680D02*
X022237Y004680D01*
X023737Y004680D01*
X023737Y003680D02*
X022737Y003680D01*
X023737Y002680D02*
X021737Y002680D01*
X021237Y003180D01*
X021237Y003680D01*
X023237Y012680D02*
X023737Y012680D01*
X023737Y014680D02*
X023237Y014680D01*
X011737Y003680D02*
X011737Y002680D01*
D29*
X011737Y003680D03*
X009737Y003680D03*
X008237Y001180D03*
X003737Y006680D03*
X011737Y007180D03*
X015737Y010180D03*
X015237Y012180D03*
X014237Y011680D03*
X014237Y014180D03*
X016737Y015680D03*
X017237Y016680D03*
X018237Y015180D03*
X020237Y010680D03*
X020737Y009680D03*
X017737Y009180D03*
X022737Y003680D03*
X011737Y017680D03*
X009737Y020180D03*
X009737Y022180D03*
X010402Y022819D03*
X011287Y022693D03*
X011440Y021717D03*
X014737Y025680D03*
X013237Y028680D03*
X008237Y029180D03*
X007237Y028680D03*
X006237Y028680D03*
X006237Y023680D03*
X006737Y022680D03*
X005237Y022180D03*
X004237Y021180D03*
X003237Y022680D03*
X002237Y023180D03*
X001237Y025180D03*
X000737Y019180D03*
X001737Y017680D03*
X006237Y019180D03*
X007737Y020680D03*
X008237Y017180D03*
X008237Y016180D03*
X022737Y020180D03*
X024737Y018180D03*
D30*
X024749Y018766D02*
X024407Y018766D01*
X024290Y018717D01*
X024200Y018627D01*
X024151Y018509D01*
X024151Y017851D01*
X024200Y017733D01*
X024290Y017643D01*
X024297Y017640D01*
X024297Y017348D01*
X024244Y017370D01*
X023229Y017370D01*
X022976Y017265D01*
X022831Y017120D01*
X022642Y017120D01*
X022498Y017265D01*
X022244Y017370D01*
X021229Y017370D01*
X020976Y017265D01*
X020831Y017120D01*
X017777Y017120D01*
X017774Y017127D01*
X017684Y017217D01*
X017566Y017266D01*
X016907Y017266D01*
X016790Y017217D01*
X016700Y017127D01*
X016697Y017120D01*
X015419Y017120D01*
X014486Y018053D01*
X014324Y018120D01*
X013877Y018120D01*
X013825Y018172D01*
X013612Y018260D01*
X012861Y018260D01*
X012648Y018172D01*
X012485Y018009D01*
X012397Y017795D01*
X012397Y017565D01*
X012485Y017351D01*
X012648Y017188D01*
X012668Y017180D01*
X012648Y017172D01*
X012485Y017009D01*
X012397Y016795D01*
X012397Y016565D01*
X012485Y016351D01*
X012648Y016188D01*
X012668Y016180D01*
X012648Y016172D01*
X012485Y016009D01*
X012397Y015795D01*
X012397Y015565D01*
X012485Y015351D01*
X012648Y015188D01*
X012668Y015180D01*
X012648Y015172D01*
X012485Y015009D01*
X012397Y014795D01*
X012397Y014620D01*
X012149Y014620D01*
X011987Y014553D01*
X011487Y014053D01*
X011364Y013929D01*
X011297Y013768D01*
X011297Y012362D01*
X011054Y012120D01*
X010877Y012120D01*
X010825Y012172D01*
X010805Y012180D01*
X010825Y012188D01*
X010988Y012351D01*
X011077Y012565D01*
X011077Y012795D01*
X010988Y013009D01*
X010825Y013172D01*
X010805Y013180D01*
X010825Y013188D01*
X010988Y013351D01*
X011077Y013565D01*
X011077Y013795D01*
X010988Y014009D01*
X010825Y014172D01*
X010805Y014180D01*
X010825Y014188D01*
X010988Y014351D01*
X011077Y014565D01*
X011077Y014795D01*
X010988Y015009D01*
X010825Y015172D01*
X010805Y015180D01*
X010825Y015188D01*
X010988Y015351D01*
X011077Y015565D01*
X011077Y015795D01*
X010988Y016009D01*
X010825Y016172D01*
X010805Y016180D01*
X010825Y016188D01*
X010988Y016351D01*
X011077Y016565D01*
X011077Y016795D01*
X010988Y017009D01*
X010825Y017172D01*
X010805Y017180D01*
X010825Y017188D01*
X010877Y017240D01*
X011197Y017240D01*
X011200Y017233D01*
X011290Y017143D01*
X011407Y017094D01*
X012066Y017094D01*
X012184Y017143D01*
X012274Y017233D01*
X012322Y017351D01*
X012322Y018009D01*
X012274Y018127D01*
X012184Y018217D01*
X012066Y018266D01*
X011407Y018266D01*
X011290Y018217D01*
X011200Y018127D01*
X011197Y018120D01*
X010877Y018120D01*
X010825Y018172D01*
X010637Y018250D01*
X010637Y018670D01*
X010880Y018670D01*
X011108Y018764D01*
X011193Y018850D01*
X012280Y018850D01*
X012365Y018764D01*
X012593Y018670D01*
X013440Y018670D01*
X013668Y018764D01*
X013842Y018939D01*
X013937Y019167D01*
X013937Y019413D01*
X013842Y019641D01*
X013668Y019816D01*
X013440Y019910D01*
X012593Y019910D01*
X012365Y019816D01*
X012280Y019730D01*
X011193Y019730D01*
X011108Y019816D01*
X010880Y019910D01*
X010322Y019910D01*
X010322Y020509D01*
X010289Y020590D01*
X010437Y020590D01*
X010437Y021050D01*
X010477Y021050D01*
X010477Y021090D01*
X011237Y021090D01*
X011237Y021108D01*
X011233Y021131D01*
X011769Y021131D01*
X011887Y021180D01*
X011977Y021270D01*
X012026Y021388D01*
X012026Y022047D01*
X011977Y022164D01*
X011887Y022254D01*
X011836Y022275D01*
X011873Y022363D01*
X011873Y022750D01*
X012815Y022750D01*
X012830Y022714D01*
X012920Y022624D01*
X012925Y022622D01*
X012922Y022609D01*
X012922Y022358D01*
X013429Y022358D01*
X013429Y022222D01*
X013564Y022222D01*
X013564Y021815D01*
X013915Y021815D01*
X013961Y021827D01*
X014002Y021851D01*
X014036Y021884D01*
X014059Y021926D01*
X014072Y021971D01*
X014072Y022222D01*
X013564Y022222D01*
X013564Y022358D01*
X014072Y022358D01*
X014072Y022609D01*
X014068Y022622D01*
X014073Y022624D01*
X014122Y022673D01*
X014297Y022498D01*
X014297Y020357D01*
X014201Y020317D01*
X014111Y020227D01*
X014062Y020110D01*
X014062Y019353D01*
X014111Y019235D01*
X014201Y019145D01*
X014300Y019104D01*
X014272Y019088D01*
X014238Y019054D01*
X014215Y019013D01*
X014202Y018967D01*
X014202Y018706D01*
X014659Y018706D01*
X014659Y018551D01*
X014814Y018551D01*
X014814Y018134D01*
X015115Y018134D01*
X015160Y018146D01*
X015202Y018170D01*
X015235Y018203D01*
X015259Y018244D01*
X015271Y018290D01*
X015271Y018551D01*
X014814Y018551D01*
X014814Y018706D01*
X015271Y018706D01*
X015271Y018967D01*
X015259Y019013D01*
X015235Y019054D01*
X015202Y019088D01*
X015173Y019104D01*
X015272Y019145D01*
X015362Y019235D01*
X015386Y019291D01*
X016092Y019291D01*
X016140Y019174D01*
X016230Y019084D01*
X016348Y019035D01*
X016377Y019035D01*
X016351Y019009D01*
X016305Y018945D01*
X016269Y018874D01*
X016244Y018798D01*
X016232Y018720D01*
X016232Y018680D01*
X016232Y018640D01*
X016244Y018562D01*
X016269Y018486D01*
X016305Y018415D01*
X016351Y018351D01*
X016408Y018295D01*
X016472Y018248D01*
X016543Y018212D01*
X016618Y018187D01*
X016697Y018175D01*
X016737Y018175D01*
X016776Y018175D01*
X016855Y018187D01*
X016931Y018212D01*
X017001Y018248D01*
X017066Y018295D01*
X017122Y018351D01*
X017169Y018415D01*
X017205Y018486D01*
X017229Y018562D01*
X017242Y018640D01*
X017242Y018680D01*
X017242Y018720D01*
X017229Y018798D01*
X017205Y018874D01*
X017169Y018945D01*
X017122Y019009D01*
X017096Y019035D01*
X017125Y019035D01*
X017243Y019084D01*
X017333Y019174D01*
X017382Y019291D01*
X017382Y020069D01*
X017333Y020186D01*
X017243Y020276D01*
X017125Y020325D01*
X016348Y020325D01*
X016230Y020276D01*
X016140Y020186D01*
X016134Y020171D01*
X015386Y020171D01*
X015362Y020227D01*
X015272Y020317D01*
X015177Y020357D01*
X015177Y022768D01*
X015110Y022929D01*
X014986Y023053D01*
X014476Y023563D01*
X014314Y023630D01*
X014178Y023630D01*
X014174Y023640D01*
X014212Y023731D01*
X014212Y024315D01*
X016417Y024315D01*
X016417Y024250D01*
X015518Y024250D01*
X015400Y024201D01*
X015310Y024111D01*
X015262Y023994D01*
X015262Y022366D01*
X015310Y022249D01*
X015400Y022159D01*
X015518Y022110D01*
X016435Y022110D01*
X016553Y022159D01*
X016643Y022249D01*
X016692Y022366D01*
X016692Y023935D01*
X016797Y023935D01*
X016797Y021592D01*
X016864Y021431D01*
X017364Y020931D01*
X017417Y020878D01*
X017417Y020691D01*
X017465Y020574D01*
X017555Y020484D01*
X017673Y020435D01*
X018800Y020435D01*
X018918Y020484D01*
X018987Y020552D01*
X019055Y020484D01*
X019173Y020435D01*
X019297Y020435D01*
X019297Y020304D01*
X019230Y020276D01*
X019140Y020186D01*
X019092Y020069D01*
X019092Y019291D01*
X019140Y019174D01*
X019230Y019084D01*
X019348Y019035D01*
X019377Y019035D01*
X019351Y019009D01*
X019305Y018945D01*
X019269Y018874D01*
X019244Y018798D01*
X019232Y018720D01*
X019232Y018680D01*
X019232Y018640D01*
X019244Y018562D01*
X019269Y018486D01*
X019305Y018415D01*
X019351Y018351D01*
X019408Y018295D01*
X019472Y018248D01*
X019543Y018212D01*
X019618Y018187D01*
X019697Y018175D01*
X019737Y018175D01*
X019776Y018175D01*
X019855Y018187D01*
X019931Y018212D01*
X020001Y018248D01*
X020066Y018295D01*
X020122Y018351D01*
X020169Y018415D01*
X020205Y018486D01*
X020229Y018562D01*
X020242Y018640D01*
X020242Y018680D01*
X020242Y018720D01*
X020229Y018798D01*
X020205Y018874D01*
X020169Y018945D01*
X020122Y019009D01*
X020096Y019035D01*
X020125Y019035D01*
X020243Y019084D01*
X020333Y019174D01*
X020360Y019240D01*
X021109Y019240D01*
X021111Y019235D01*
X021201Y019145D01*
X021300Y019104D01*
X021272Y019088D01*
X021238Y019054D01*
X021215Y019013D01*
X021202Y018967D01*
X021202Y018706D01*
X021659Y018706D01*
X021659Y018551D01*
X021814Y018551D01*
X021814Y018134D01*
X022115Y018134D01*
X022160Y018146D01*
X022202Y018170D01*
X022235Y018203D01*
X022259Y018244D01*
X022271Y018290D01*
X022271Y018551D01*
X021814Y018551D01*
X021814Y018706D01*
X022271Y018706D01*
X022271Y018967D01*
X022259Y019013D01*
X022235Y019054D01*
X022202Y019088D01*
X022173Y019104D01*
X022272Y019145D01*
X022362Y019235D01*
X022373Y019260D01*
X022486Y019307D01*
X022773Y019594D01*
X023066Y019594D01*
X023184Y019643D01*
X023274Y019733D01*
X023322Y019851D01*
X023322Y020509D01*
X023274Y020627D01*
X023184Y020717D01*
X023066Y020766D01*
X022407Y020766D01*
X022290Y020717D01*
X022200Y020627D01*
X022151Y020509D01*
X022151Y020366D01*
X021319Y020366D01*
X021201Y020317D01*
X021111Y020227D01*
X021067Y020120D01*
X020360Y020120D01*
X020333Y020186D01*
X020243Y020276D01*
X020177Y020304D01*
X020177Y020435D01*
X020300Y020435D01*
X020418Y020484D01*
X020508Y020574D01*
X020557Y020691D01*
X020557Y021819D01*
X020508Y021936D01*
X020418Y022026D01*
X020300Y022075D01*
X019173Y022075D01*
X019055Y022026D01*
X018987Y021958D01*
X018918Y022026D01*
X018800Y022075D01*
X017677Y022075D01*
X017677Y022285D01*
X018800Y022285D01*
X018918Y022334D01*
X018987Y022402D01*
X019055Y022334D01*
X019173Y022285D01*
X020300Y022285D01*
X020418Y022334D01*
X020508Y022424D01*
X020557Y022541D01*
X020557Y022665D01*
X020802Y022665D01*
X020802Y022144D01*
X020911Y021882D01*
X021112Y021681D01*
X021374Y021573D01*
X021658Y021573D01*
X021920Y021681D01*
X022121Y021882D01*
X022230Y022144D01*
X022230Y023216D01*
X022121Y023478D01*
X021920Y023679D01*
X021658Y023787D01*
X021374Y023787D01*
X021112Y023679D01*
X020978Y023545D01*
X020557Y023545D01*
X020557Y023669D01*
X020508Y023786D01*
X020418Y023876D01*
X020300Y023925D01*
X019173Y023925D01*
X019055Y023876D01*
X018987Y023808D01*
X018918Y023876D01*
X018800Y023925D01*
X018677Y023925D01*
X018677Y024998D01*
X019198Y025520D01*
X019774Y025520D01*
X019939Y025354D01*
X020201Y025246D01*
X021272Y025246D01*
X021535Y025354D01*
X021735Y025555D01*
X021844Y025818D01*
X021844Y026101D01*
X021735Y026364D01*
X021535Y026565D01*
X021272Y026673D01*
X020201Y026673D01*
X019939Y026565D01*
X019774Y026400D01*
X019271Y026400D01*
X019284Y026413D01*
X019338Y026486D01*
X019379Y026566D01*
X019406Y026652D01*
X019421Y026741D01*
X019421Y027162D01*
X018865Y027162D01*
X018865Y027198D01*
X019421Y027198D01*
X019421Y027619D01*
X019406Y027708D01*
X019379Y027794D01*
X019338Y027874D01*
X019284Y027947D01*
X019221Y028011D01*
X019148Y028064D01*
X019067Y028105D01*
X018981Y028133D01*
X018892Y028147D01*
X018865Y028147D01*
X018865Y027198D01*
X018828Y027198D01*
X018828Y027162D01*
X018273Y027162D01*
X018273Y026741D01*
X018287Y026652D01*
X018315Y026566D01*
X018356Y026486D01*
X018409Y026413D01*
X018473Y026349D01*
X018546Y026296D01*
X018627Y026255D01*
X018674Y026239D01*
X017987Y025553D01*
X017939Y025505D01*
X017918Y025526D01*
X017800Y025575D01*
X016673Y025575D01*
X016555Y025526D01*
X016465Y025436D01*
X016417Y025319D01*
X016417Y025195D01*
X015236Y025195D01*
X015274Y025233D01*
X015322Y025351D01*
X015322Y026009D01*
X015274Y026127D01*
X015184Y026217D01*
X015066Y026266D01*
X014407Y026266D01*
X014290Y026217D01*
X014200Y026127D01*
X014151Y026009D01*
X014151Y025351D01*
X014168Y025309D01*
X014054Y025195D01*
X013724Y025195D01*
X013562Y025128D01*
X013139Y024705D01*
X013038Y024705D01*
X012920Y024656D01*
X012830Y024566D01*
X012782Y024449D01*
X012782Y023731D01*
X012820Y023640D01*
X012815Y023630D01*
X011409Y023630D01*
X011177Y023862D01*
X011177Y025435D01*
X011300Y025435D01*
X011418Y025484D01*
X011508Y025574D01*
X011557Y025691D01*
X011557Y026819D01*
X011508Y026936D01*
X011418Y027026D01*
X011300Y027075D01*
X010754Y027075D01*
X010964Y027285D01*
X011300Y027285D01*
X011418Y027334D01*
X011508Y027424D01*
X011557Y027541D01*
X011557Y028669D01*
X011508Y028786D01*
X011418Y028876D01*
X011300Y028925D01*
X010173Y028925D01*
X010055Y028876D01*
X009987Y028808D01*
X009918Y028876D01*
X009800Y028925D01*
X009677Y028925D01*
X009677Y029268D01*
X009610Y029429D01*
X009469Y029570D01*
X016057Y029570D01*
X016026Y029560D01*
X015948Y029520D01*
X015878Y029470D01*
X015817Y029408D01*
X015766Y029338D01*
X015727Y029261D01*
X015700Y029179D01*
X015687Y029093D01*
X015687Y028710D01*
X016207Y028710D01*
X016207Y029570D01*
X016267Y029570D01*
X016267Y028710D01*
X016207Y028710D01*
X016267Y028710D01*
X016267Y028650D02*
X016267Y027760D01*
X016280Y027760D01*
X016365Y027774D01*
X016448Y027800D01*
X016525Y027840D01*
X016595Y027890D01*
X016643Y027939D01*
X016652Y027919D01*
X016797Y027774D01*
X016797Y027425D01*
X016673Y027425D01*
X016555Y027376D01*
X016465Y027286D01*
X016417Y027169D01*
X016417Y026041D01*
X016465Y025924D01*
X016555Y025834D01*
X016673Y025785D01*
X017800Y025785D01*
X017918Y025834D01*
X018008Y025924D01*
X018057Y026041D01*
X018057Y027169D01*
X018008Y027286D01*
X017918Y027376D01*
X017800Y027425D01*
X017677Y027425D01*
X017677Y027774D01*
X017822Y027919D01*
X017927Y028173D01*
X017927Y029187D01*
X017822Y029441D01*
X017692Y029570D01*
X024749Y029570D01*
X024749Y018766D01*
X024749Y018883D02*
X022271Y018883D01*
X022271Y018725D02*
X024308Y018725D01*
X024174Y018566D02*
X021814Y018566D01*
X021659Y018566D02*
X020230Y018566D01*
X020242Y018680D02*
X019737Y018680D01*
X020242Y018680D01*
X020241Y018725D02*
X021202Y018725D01*
X021202Y018883D02*
X020200Y018883D01*
X020141Y019042D02*
X021231Y019042D01*
X021146Y019200D02*
X020344Y019200D01*
X020163Y018408D02*
X021202Y018408D01*
X021202Y018290D02*
X021215Y018244D01*
X021238Y018203D01*
X021272Y018170D01*
X021313Y018146D01*
X021359Y018134D01*
X021659Y018134D01*
X021659Y018551D01*
X021202Y018551D01*
X021202Y018290D01*
X021213Y018249D02*
X020003Y018249D01*
X019737Y018249D02*
X019737Y018249D01*
X019737Y018175D02*
X019737Y018680D01*
X019737Y018680D01*
X019737Y018680D01*
X019737Y018175D01*
X019737Y018408D02*
X019737Y018408D01*
X019737Y018566D02*
X019737Y018566D01*
X019737Y018680D02*
X019232Y018680D01*
X019737Y018680D01*
X019737Y018680D01*
X019273Y018883D02*
X017200Y018883D01*
X017241Y018725D02*
X019232Y018725D01*
X019243Y018566D02*
X017230Y018566D01*
X017242Y018680D02*
X016737Y018680D01*
X017242Y018680D01*
X017163Y018408D02*
X019310Y018408D01*
X019471Y018249D02*
X017003Y018249D01*
X016737Y018249D02*
X016737Y018249D01*
X016737Y018175D02*
X016737Y018680D01*
X016737Y018680D01*
X016737Y018680D01*
X016737Y018175D01*
X016737Y018408D02*
X016737Y018408D01*
X016737Y018566D02*
X016737Y018566D01*
X016737Y018680D02*
X016232Y018680D01*
X016737Y018680D01*
X016737Y018680D01*
X016273Y018883D02*
X015271Y018883D01*
X015271Y018725D02*
X016232Y018725D01*
X016243Y018566D02*
X014814Y018566D01*
X014659Y018566D02*
X010637Y018566D01*
X010637Y018408D02*
X014202Y018408D01*
X014202Y018290D02*
X014215Y018244D01*
X014238Y018203D01*
X014272Y018170D01*
X014313Y018146D01*
X014359Y018134D01*
X014659Y018134D01*
X014659Y018551D01*
X014202Y018551D01*
X014202Y018290D01*
X014213Y018249D02*
X013639Y018249D01*
X013572Y018725D02*
X014202Y018725D01*
X014202Y018883D02*
X013787Y018883D01*
X013885Y019042D02*
X014231Y019042D01*
X014146Y019200D02*
X013937Y019200D01*
X013937Y019359D02*
X014062Y019359D01*
X014062Y019517D02*
X013894Y019517D01*
X013808Y019676D02*
X014062Y019676D01*
X014062Y019834D02*
X013623Y019834D01*
X014062Y019993D02*
X010322Y019993D01*
X010322Y020151D02*
X014079Y020151D01*
X014193Y020310D02*
X010322Y020310D01*
X010322Y020468D02*
X014297Y020468D01*
X014297Y020627D02*
X013504Y020627D01*
X013501Y020625D02*
X013568Y020659D01*
X013629Y020704D01*
X013683Y020757D01*
X013727Y020818D01*
X013761Y020886D01*
X013785Y020958D01*
X013797Y021032D01*
X013797Y021050D01*
X013037Y021050D01*
X013037Y021090D01*
X013797Y021090D01*
X013797Y021108D01*
X013785Y021182D01*
X013761Y021254D01*
X013727Y021322D01*
X013683Y021383D01*
X013629Y021436D01*
X013568Y021481D01*
X013501Y021515D01*
X013429Y021538D01*
X013354Y021550D01*
X013037Y021550D01*
X013037Y021090D01*
X012997Y021090D01*
X012997Y021550D01*
X012679Y021550D01*
X012604Y021538D01*
X012532Y021515D01*
X012465Y021481D01*
X012404Y021436D01*
X012351Y021383D01*
X012306Y021322D01*
X012272Y021254D01*
X012248Y021182D01*
X012237Y021108D01*
X012237Y021090D01*
X012997Y021090D01*
X012997Y021050D01*
X013037Y021050D01*
X013037Y020590D01*
X013354Y020590D01*
X013429Y020602D01*
X013501Y020625D01*
X013703Y020785D02*
X014297Y020785D01*
X014297Y020944D02*
X013780Y020944D01*
X013797Y021102D02*
X014297Y021102D01*
X014297Y021261D02*
X013758Y021261D01*
X013646Y021419D02*
X014297Y021419D01*
X014297Y021578D02*
X012026Y021578D01*
X012026Y021736D02*
X014297Y021736D01*
X014297Y021895D02*
X014042Y021895D01*
X014072Y022053D02*
X014297Y022053D01*
X014297Y022212D02*
X014072Y022212D01*
X014072Y022370D02*
X014297Y022370D01*
X014266Y022529D02*
X014072Y022529D01*
X013564Y022212D02*
X013429Y022212D01*
X013429Y022222D02*
X013429Y021815D01*
X013078Y021815D01*
X013032Y021827D01*
X012991Y021851D01*
X012958Y021884D01*
X012934Y021926D01*
X012922Y021971D01*
X012922Y022222D01*
X013429Y022222D01*
X013429Y022053D02*
X013564Y022053D01*
X013564Y021895D02*
X013429Y021895D01*
X013037Y021419D02*
X012997Y021419D01*
X012997Y021261D02*
X013037Y021261D01*
X013037Y021102D02*
X012997Y021102D01*
X012997Y021050D02*
X012237Y021050D01*
X012237Y021032D01*
X012248Y020958D01*
X012272Y020886D01*
X012306Y020818D01*
X012351Y020757D01*
X012404Y020704D01*
X012465Y020659D01*
X012532Y020625D01*
X012604Y020602D01*
X012679Y020590D01*
X012997Y020590D01*
X012997Y021050D01*
X012997Y020944D02*
X013037Y020944D01*
X013037Y020785D02*
X012997Y020785D01*
X012997Y020627D02*
X013037Y020627D01*
X012530Y020627D02*
X010944Y020627D01*
X010941Y020625D02*
X011008Y020659D01*
X011069Y020704D01*
X011123Y020757D01*
X011167Y020818D01*
X011201Y020886D01*
X011225Y020958D01*
X011237Y021032D01*
X011237Y021050D01*
X010477Y021050D01*
X010477Y020590D01*
X010794Y020590D01*
X010869Y020602D01*
X010941Y020625D01*
X011143Y020785D02*
X012330Y020785D01*
X012253Y020944D02*
X011220Y020944D01*
X011237Y021102D02*
X012237Y021102D01*
X012275Y021261D02*
X011967Y021261D01*
X012026Y021419D02*
X012387Y021419D01*
X012026Y021895D02*
X012952Y021895D01*
X012922Y022053D02*
X012023Y022053D01*
X011929Y022212D02*
X012922Y022212D01*
X012922Y022370D02*
X011873Y022370D01*
X011873Y022529D02*
X012922Y022529D01*
X012857Y022687D02*
X011873Y022687D01*
X011401Y023638D02*
X012819Y023638D01*
X012782Y023797D02*
X011242Y023797D01*
X011177Y023955D02*
X012782Y023955D01*
X012782Y024114D02*
X011177Y024114D01*
X011177Y024272D02*
X012782Y024272D01*
X012782Y024431D02*
X011177Y024431D01*
X011177Y024589D02*
X012853Y024589D01*
X013182Y024748D02*
X011177Y024748D01*
X011177Y024906D02*
X013340Y024906D01*
X013499Y025065D02*
X011177Y025065D01*
X011177Y025223D02*
X014082Y025223D01*
X014151Y025382D02*
X011177Y025382D01*
X011474Y025540D02*
X014151Y025540D01*
X014151Y025699D02*
X011557Y025699D01*
X011557Y025857D02*
X014151Y025857D01*
X014153Y026016D02*
X011557Y026016D01*
X011557Y026174D02*
X014247Y026174D01*
X015227Y026174D02*
X016417Y026174D01*
X016417Y026333D02*
X011557Y026333D01*
X011557Y026491D02*
X016417Y026491D01*
X016417Y026650D02*
X011557Y026650D01*
X011557Y026808D02*
X016417Y026808D01*
X016417Y026967D02*
X011478Y026967D01*
X011516Y027442D02*
X016797Y027442D01*
X016797Y027601D02*
X011557Y027601D01*
X011557Y027759D02*
X016797Y027759D01*
X016653Y027918D02*
X016622Y027918D01*
X016267Y027918D02*
X016207Y027918D01*
X016207Y027760D02*
X016207Y028650D01*
X016267Y028650D01*
X016207Y028650D02*
X015687Y028650D01*
X015687Y028267D01*
X015700Y028181D01*
X015727Y028099D01*
X015766Y028022D01*
X015817Y027952D01*
X015878Y027890D01*
X015948Y027840D01*
X016026Y027800D01*
X016108Y027774D01*
X016193Y027760D01*
X016207Y027760D01*
X016207Y028076D02*
X016267Y028076D01*
X016267Y028235D02*
X016207Y028235D01*
X016207Y028393D02*
X016267Y028393D01*
X016267Y028552D02*
X016207Y028552D01*
X016207Y028650D02*
X016207Y028710D01*
X016207Y028869D02*
X016267Y028869D01*
X016267Y029027D02*
X016207Y029027D01*
X016207Y029186D02*
X016267Y029186D01*
X016267Y029344D02*
X016207Y029344D01*
X016207Y029503D02*
X016267Y029503D01*
X015924Y029503D02*
X009536Y029503D01*
X009645Y029344D02*
X015770Y029344D01*
X015702Y029186D02*
X009677Y029186D01*
X009677Y029027D02*
X015687Y029027D01*
X015687Y028869D02*
X011426Y028869D01*
X011540Y028710D02*
X015687Y028710D01*
X015687Y028552D02*
X011557Y028552D01*
X011557Y028393D02*
X015687Y028393D01*
X015692Y028235D02*
X011557Y028235D01*
X011557Y028076D02*
X015739Y028076D01*
X015851Y027918D02*
X011557Y027918D01*
X010962Y027284D02*
X016464Y027284D01*
X016417Y027125D02*
X010804Y027125D01*
X010048Y028869D02*
X009926Y028869D01*
X007737Y029180D02*
X007737Y028180D01*
X005237Y025680D01*
X005237Y023180D01*
X003630Y021574D01*
X003630Y020586D01*
X003434Y020586D02*
X003434Y022483D01*
X003237Y022680D01*
X003566Y023266D02*
X002907Y023266D01*
X002822Y023231D01*
X002822Y023509D01*
X002774Y023627D01*
X002684Y023717D01*
X002566Y023766D01*
X001907Y023766D01*
X001790Y023717D01*
X001700Y023627D01*
X001651Y023509D01*
X001651Y022851D01*
X001700Y022733D01*
X001790Y022643D01*
X001837Y022623D01*
X001837Y022600D01*
X001898Y022453D01*
X002010Y022341D01*
X002837Y021514D01*
X002837Y021024D01*
X002523Y021024D01*
X002406Y020975D01*
X002316Y020885D01*
X002267Y020767D01*
X002267Y020765D01*
X002254Y020761D01*
X002213Y020737D01*
X002179Y020704D01*
X002160Y020671D01*
X001748Y020671D01*
X001601Y020610D01*
X001488Y020497D01*
X000757Y019766D01*
X000717Y019766D01*
X000717Y029570D01*
X006004Y029570D01*
X005987Y029553D01*
X005864Y029429D01*
X005797Y029268D01*
X005797Y029220D01*
X005790Y029217D01*
X005700Y029127D01*
X005651Y029009D01*
X005651Y028351D01*
X005700Y028233D01*
X005790Y028143D01*
X005907Y028094D01*
X006566Y028094D01*
X006684Y028143D01*
X006774Y028233D01*
X006822Y028351D01*
X006822Y029009D01*
X006783Y029104D01*
X006919Y029240D01*
X007111Y029240D01*
X007337Y029014D01*
X007337Y028346D01*
X004898Y025907D01*
X004837Y025760D01*
X004837Y025600D01*
X004837Y023346D01*
X003834Y022343D01*
X003834Y022563D01*
X003822Y022590D01*
X003822Y023009D01*
X003774Y023127D01*
X003684Y023217D01*
X003566Y023266D01*
X003738Y023163D02*
X004654Y023163D01*
X004812Y023321D02*
X002822Y023321D01*
X002822Y023480D02*
X004837Y023480D01*
X004837Y023638D02*
X002763Y023638D01*
X002237Y023180D02*
X002237Y022680D01*
X003237Y021680D01*
X003237Y020586D01*
X003040Y020586D02*
X003040Y021377D01*
X002737Y021680D01*
X002237Y021680D01*
X001237Y022680D01*
X001237Y025180D01*
X000717Y025223D02*
X004837Y025223D01*
X004837Y025065D02*
X000717Y025065D01*
X000717Y024906D02*
X004837Y024906D01*
X004837Y024748D02*
X000717Y024748D01*
X000717Y024589D02*
X004837Y024589D01*
X004837Y024431D02*
X000717Y024431D01*
X000717Y024272D02*
X004837Y024272D01*
X004837Y024114D02*
X000717Y024114D01*
X000717Y023955D02*
X004837Y023955D01*
X004837Y023797D02*
X000717Y023797D01*
X000717Y023638D02*
X001711Y023638D01*
X001651Y023480D02*
X000717Y023480D01*
X000717Y023321D02*
X001651Y023321D01*
X001651Y023163D02*
X000717Y023163D01*
X000717Y023004D02*
X001651Y023004D01*
X001653Y022846D02*
X000717Y022846D01*
X000717Y022687D02*
X001746Y022687D01*
X001866Y022529D02*
X000717Y022529D01*
X000717Y022370D02*
X001981Y022370D01*
X002139Y022212D02*
X000717Y022212D01*
X000717Y022053D02*
X002298Y022053D01*
X002456Y021895D02*
X000717Y021895D01*
X000717Y021736D02*
X002615Y021736D01*
X002773Y021578D02*
X000717Y021578D01*
X000717Y021419D02*
X002837Y021419D01*
X002837Y021261D02*
X000717Y021261D01*
X000717Y021102D02*
X002837Y021102D01*
X002374Y020944D02*
X000717Y020944D01*
X000717Y020785D02*
X002274Y020785D01*
X002409Y020508D02*
X001909Y020508D01*
X001737Y020680D01*
X001737Y021180D01*
X002237Y021680D01*
X001641Y020627D02*
X000717Y020627D01*
X000717Y020468D02*
X001459Y020468D01*
X001301Y020310D02*
X000717Y020310D01*
X000717Y020151D02*
X001142Y020151D01*
X000984Y019993D02*
X000717Y019993D01*
X000717Y019834D02*
X000825Y019834D01*
X000737Y019180D02*
X001827Y020271D01*
X002331Y020271D01*
X002331Y019877D02*
X001934Y019877D01*
X001237Y019180D01*
X001237Y018180D01*
X000737Y017680D01*
X000737Y016180D01*
X001237Y015680D01*
X001737Y015680D01*
X000717Y014446D02*
X000782Y014289D01*
X000976Y014095D01*
X000996Y014087D01*
X000947Y014038D01*
X000896Y013968D01*
X000857Y013891D01*
X000830Y013809D01*
X000817Y013723D01*
X000817Y013700D01*
X001717Y013700D01*
X001717Y013660D01*
X000817Y013660D01*
X000817Y013637D01*
X000830Y013551D01*
X000857Y013469D01*
X000896Y013392D01*
X000947Y013322D01*
X000996Y013273D01*
X000976Y013265D01*
X000782Y013071D01*
X000717Y012914D01*
X000717Y014446D01*
X000717Y014445D02*
X000717Y014445D01*
X000717Y014287D02*
X000784Y014287D01*
X000717Y014128D02*
X000943Y014128D01*
X000897Y013970D02*
X000717Y013970D01*
X000717Y013811D02*
X000831Y013811D01*
X000817Y013653D02*
X000717Y013653D01*
X000717Y013494D02*
X000849Y013494D01*
X000937Y013336D02*
X000717Y013336D01*
X000717Y013177D02*
X000888Y013177D01*
X000760Y013019D02*
X000717Y013019D01*
X000717Y012446D02*
X000782Y012289D01*
X000976Y012095D01*
X000996Y012087D01*
X000947Y012038D01*
X000896Y011968D01*
X000857Y011891D01*
X000830Y011809D01*
X000817Y011723D01*
X000817Y011700D01*
X001717Y011700D01*
X001717Y011660D01*
X000817Y011660D01*
X000817Y011637D01*
X000830Y011551D01*
X000857Y011469D01*
X000896Y011392D01*
X000947Y011322D01*
X000996Y011273D01*
X000976Y011265D01*
X000782Y011071D01*
X000717Y010914D01*
X000717Y012446D01*
X000717Y012385D02*
X000742Y012385D01*
X000717Y012226D02*
X000845Y012226D01*
X000717Y012068D02*
X000976Y012068D01*
X000866Y011909D02*
X000717Y011909D01*
X000717Y011751D02*
X000821Y011751D01*
X000824Y011592D02*
X000717Y011592D01*
X000717Y011434D02*
X000875Y011434D01*
X000994Y011275D02*
X000717Y011275D01*
X000717Y011117D02*
X000827Y011117D01*
X000735Y010958D02*
X000717Y010958D01*
X001757Y011660D02*
X001757Y011700D01*
X002657Y011700D01*
X002657Y011723D01*
X002643Y011809D01*
X002616Y011891D01*
X002577Y011968D01*
X002526Y012038D01*
X002478Y012087D01*
X002498Y012095D01*
X002692Y012289D01*
X002797Y012543D01*
X003177Y012543D01*
X003282Y012289D01*
X003391Y012180D01*
X003282Y012071D01*
X003177Y011817D01*
X003177Y011543D01*
X003282Y011289D01*
X003391Y011180D01*
X003282Y011071D01*
X003177Y010817D01*
X003177Y010543D01*
X003282Y010289D01*
X003476Y010095D01*
X003729Y009990D01*
X004191Y009990D01*
X004191Y009757D01*
X004608Y009757D01*
X004608Y009603D01*
X004191Y009603D01*
X004191Y009302D01*
X004203Y009256D01*
X004226Y009215D01*
X004260Y009182D01*
X004301Y009158D01*
X004347Y009146D01*
X004608Y009146D01*
X004608Y009603D01*
X004763Y009603D01*
X004763Y009146D01*
X005024Y009146D01*
X005070Y009158D01*
X005111Y009182D01*
X005144Y009215D01*
X005161Y009243D01*
X005202Y009144D01*
X005292Y009054D01*
X005409Y009006D01*
X006166Y009006D01*
X006284Y009054D01*
X006374Y009144D01*
X006414Y009240D01*
X006806Y009240D01*
X006908Y009138D01*
X007121Y009050D01*
X007352Y009050D01*
X007565Y009138D01*
X007667Y009240D01*
X009596Y009240D01*
X009648Y009188D01*
X009668Y009180D01*
X009648Y009172D01*
X009596Y009120D01*
X008649Y009120D01*
X008487Y009053D01*
X008364Y008929D01*
X007611Y008176D01*
X007565Y008222D01*
X007352Y008310D01*
X007121Y008310D01*
X006908Y008222D01*
X006806Y008120D01*
X006414Y008120D01*
X006374Y008216D01*
X006284Y008306D01*
X006166Y008354D01*
X005409Y008354D01*
X005292Y008306D01*
X005202Y008216D01*
X005161Y008117D01*
X005144Y008145D01*
X005111Y008178D01*
X005070Y008202D01*
X005024Y008214D01*
X004763Y008214D01*
X004763Y007757D01*
X004608Y007757D01*
X004608Y007603D01*
X004191Y007603D01*
X004191Y007302D01*
X004203Y007256D01*
X004226Y007215D01*
X004260Y007182D01*
X004301Y007158D01*
X004347Y007146D01*
X004608Y007146D01*
X004608Y007603D01*
X004763Y007603D01*
X004763Y007146D01*
X005024Y007146D01*
X005070Y007158D01*
X005111Y007182D01*
X005144Y007215D01*
X005161Y007243D01*
X005202Y007144D01*
X005292Y007054D01*
X005409Y007006D01*
X006166Y007006D01*
X006284Y007054D01*
X006374Y007144D01*
X006414Y007240D01*
X006906Y007240D01*
X006908Y007238D01*
X007121Y007150D01*
X007352Y007150D01*
X007565Y007238D01*
X007617Y007290D01*
X007806Y007290D01*
X007797Y007268D01*
X007797Y005862D01*
X007554Y005620D01*
X002642Y005620D01*
X002498Y005765D01*
X002244Y005870D01*
X001549Y005870D01*
X002110Y006431D01*
X002177Y006592D01*
X002177Y009990D01*
X002244Y009990D01*
X002498Y010095D01*
X002692Y010289D01*
X002797Y010543D01*
X002797Y010817D01*
X002692Y011071D01*
X002498Y011265D01*
X002478Y011273D01*
X002526Y011322D01*
X002577Y011392D01*
X002616Y011469D01*
X002643Y011551D01*
X002657Y011637D01*
X002657Y011660D01*
X001757Y011660D01*
X002479Y011275D02*
X003296Y011275D01*
X003327Y011117D02*
X002646Y011117D01*
X002738Y010958D02*
X003235Y010958D01*
X003177Y010800D02*
X002797Y010800D01*
X002797Y010641D02*
X003177Y010641D01*
X003202Y010483D02*
X002772Y010483D01*
X002706Y010324D02*
X003267Y010324D01*
X003405Y010166D02*
X002568Y010166D01*
X002285Y010007D02*
X003688Y010007D01*
X004191Y009849D02*
X002177Y009849D01*
X002177Y009690D02*
X004608Y009690D01*
X004608Y009532D02*
X004763Y009532D01*
X004763Y009373D02*
X004608Y009373D01*
X004608Y009215D02*
X004763Y009215D01*
X005144Y009215D02*
X005173Y009215D01*
X005290Y009056D02*
X002177Y009056D01*
X002177Y008898D02*
X008332Y008898D01*
X008173Y008739D02*
X002177Y008739D01*
X002177Y008581D02*
X008015Y008581D01*
X007856Y008422D02*
X002177Y008422D01*
X002177Y008264D02*
X005250Y008264D01*
X004763Y008105D02*
X004608Y008105D01*
X004608Y008214D02*
X004347Y008214D01*
X004301Y008202D01*
X004260Y008178D01*
X004226Y008145D01*
X004203Y008104D01*
X004191Y008058D01*
X004191Y007757D01*
X004608Y007757D01*
X004608Y008214D01*
X004608Y007947D02*
X004763Y007947D01*
X004763Y007788D02*
X004608Y007788D01*
X004608Y007630D02*
X002177Y007630D01*
X002177Y007788D02*
X004191Y007788D01*
X004191Y007947D02*
X002177Y007947D01*
X002177Y008105D02*
X004203Y008105D01*
X004191Y007471D02*
X002177Y007471D01*
X002177Y007313D02*
X004191Y007313D01*
X004316Y007154D02*
X002177Y007154D01*
X002177Y006996D02*
X007797Y006996D01*
X007797Y007154D02*
X007362Y007154D01*
X007112Y007154D02*
X006378Y007154D01*
X006326Y008264D02*
X007009Y008264D01*
X007464Y008264D02*
X007698Y008264D01*
X007367Y009056D02*
X008495Y009056D01*
X007641Y009215D02*
X009622Y009215D01*
X009596Y010120D02*
X007567Y010120D01*
X007565Y010122D01*
X007352Y010210D01*
X007121Y010210D01*
X006908Y010122D01*
X006906Y010120D01*
X006414Y010120D01*
X006374Y010216D01*
X006342Y010247D01*
X006486Y010307D01*
X006610Y010431D01*
X007110Y010931D01*
X007177Y011092D01*
X007177Y011268D01*
X007177Y011998D01*
X007419Y012240D01*
X009596Y012240D01*
X009648Y012188D01*
X009668Y012180D01*
X009648Y012172D01*
X009485Y012009D01*
X009397Y011795D01*
X009397Y011565D01*
X009485Y011351D01*
X009648Y011188D01*
X009854Y011103D01*
X009808Y011088D01*
X009746Y011056D01*
X009690Y011016D01*
X009641Y010967D01*
X009600Y010911D01*
X009569Y010849D01*
X009548Y010783D01*
X009537Y010715D01*
X009537Y010680D01*
X009537Y010645D01*
X009548Y010577D01*
X009569Y010511D01*
X009600Y010449D01*
X009641Y010393D01*
X009690Y010344D01*
X009746Y010304D01*
X009808Y010272D01*
X009854Y010257D01*
X009648Y010172D01*
X009596Y010120D01*
X009642Y010166D02*
X007459Y010166D01*
X007014Y010166D02*
X006395Y010166D01*
X006503Y010324D02*
X009718Y010324D01*
X009583Y010483D02*
X006661Y010483D01*
X006820Y010641D02*
X009537Y010641D01*
X009537Y010680D02*
X010237Y010680D01*
X010937Y010680D01*
X010937Y010715D01*
X010926Y010783D01*
X010904Y010849D01*
X010873Y010911D01*
X010832Y010967D01*
X010783Y011016D01*
X010727Y011056D01*
X010666Y011088D01*
X010619Y011103D01*
X010825Y011188D01*
X010877Y011240D01*
X011324Y011240D01*
X011486Y011307D01*
X011610Y011431D01*
X012110Y011931D01*
X012177Y012092D01*
X012177Y012268D01*
X012177Y013498D01*
X012397Y013718D01*
X012397Y013565D01*
X012485Y013351D01*
X012648Y013188D01*
X012668Y013180D01*
X012648Y013172D01*
X012485Y013009D01*
X012397Y012795D01*
X012397Y012565D01*
X012485Y012351D01*
X012648Y012188D01*
X012854Y012103D01*
X012808Y012088D01*
X012746Y012056D01*
X012690Y012016D01*
X012641Y011967D01*
X012600Y011911D01*
X012569Y011849D01*
X012548Y011783D01*
X012537Y011715D01*
X012537Y011680D01*
X012537Y011645D01*
X012548Y011577D01*
X012569Y011511D01*
X012600Y011449D01*
X012641Y011393D01*
X012690Y011344D01*
X012746Y011304D01*
X012808Y011272D01*
X012854Y011257D01*
X012648Y011172D01*
X012485Y011009D01*
X012397Y010795D01*
X012397Y010565D01*
X012485Y010351D01*
X012648Y010188D01*
X012668Y010180D01*
X012648Y010172D01*
X012485Y010009D01*
X012397Y009795D01*
X012397Y009565D01*
X012485Y009351D01*
X012648Y009188D01*
X012668Y009180D01*
X012648Y009172D01*
X012596Y009120D01*
X011649Y009120D01*
X011487Y009053D01*
X011077Y008642D01*
X011077Y008795D01*
X010988Y009009D01*
X010825Y009172D01*
X010805Y009180D01*
X010825Y009188D01*
X010988Y009351D01*
X011077Y009565D01*
X011077Y009795D01*
X010988Y010009D01*
X010825Y010172D01*
X010619Y010257D01*
X010666Y010272D01*
X010727Y010304D01*
X010783Y010344D01*
X010832Y010393D01*
X010873Y010449D01*
X010904Y010511D01*
X010926Y010577D01*
X010937Y010645D01*
X010937Y010680D01*
X010237Y010680D01*
X010237Y010680D01*
X010237Y010680D01*
X009537Y010680D01*
X009553Y010800D02*
X006978Y010800D01*
X007121Y010958D02*
X009635Y010958D01*
X009821Y011117D02*
X007177Y011117D01*
X007177Y011275D02*
X009561Y011275D01*
X009451Y011434D02*
X007177Y011434D01*
X007177Y011592D02*
X009397Y011592D01*
X009397Y011751D02*
X007177Y011751D01*
X007177Y011909D02*
X009444Y011909D01*
X009544Y012068D02*
X007246Y012068D01*
X007405Y012226D02*
X009610Y012226D01*
X010652Y011117D02*
X012593Y011117D01*
X012464Y010958D02*
X010839Y010958D01*
X010920Y010800D02*
X012398Y010800D01*
X012397Y010641D02*
X010936Y010641D01*
X010890Y010483D02*
X012431Y010483D01*
X012512Y010324D02*
X010755Y010324D01*
X010831Y010166D02*
X012642Y010166D01*
X012484Y010007D02*
X010989Y010007D01*
X011055Y009849D02*
X012419Y009849D01*
X012397Y009690D02*
X011077Y009690D01*
X011063Y009532D02*
X012410Y009532D01*
X012476Y009373D02*
X010997Y009373D01*
X010851Y009215D02*
X012622Y009215D01*
X011495Y009056D02*
X010941Y009056D01*
X011034Y008898D02*
X011332Y008898D01*
X011173Y008739D02*
X011077Y008739D01*
X011409Y011275D02*
X012802Y011275D01*
X012612Y011434D02*
X011612Y011434D01*
X011771Y011592D02*
X012545Y011592D01*
X012537Y011680D02*
X013237Y011680D01*
X013937Y011680D01*
X013937Y011715D01*
X013926Y011783D01*
X013904Y011849D01*
X013873Y011911D01*
X013832Y011967D01*
X013783Y012016D01*
X013727Y012056D01*
X013666Y012088D01*
X013619Y012103D01*
X013825Y012188D01*
X013877Y012240D01*
X014324Y012240D01*
X014486Y012307D01*
X014610Y012431D01*
X014651Y012472D01*
X014651Y011851D01*
X014700Y011733D01*
X014790Y011643D01*
X014797Y011640D01*
X014797Y011362D01*
X014554Y011120D01*
X013877Y011120D01*
X013825Y011172D01*
X013619Y011257D01*
X013666Y011272D01*
X013727Y011304D01*
X013783Y011344D01*
X013832Y011393D01*
X013873Y011449D01*
X013904Y011511D01*
X013926Y011577D01*
X013937Y011645D01*
X013937Y011680D01*
X013237Y011680D01*
X013237Y011680D01*
X013237Y011680D01*
X012537Y011680D01*
X012542Y011751D02*
X011929Y011751D01*
X012088Y011909D02*
X012600Y011909D01*
X012768Y012068D02*
X012166Y012068D01*
X012177Y012226D02*
X012610Y012226D01*
X012471Y012385D02*
X012177Y012385D01*
X012177Y012543D02*
X012406Y012543D01*
X012397Y012702D02*
X012177Y012702D01*
X012177Y012860D02*
X012423Y012860D01*
X012495Y013019D02*
X012177Y013019D01*
X012177Y013177D02*
X012661Y013177D01*
X012501Y013336D02*
X012177Y013336D01*
X012177Y013494D02*
X012426Y013494D01*
X012397Y013653D02*
X012331Y013653D01*
X011721Y014287D02*
X010923Y014287D01*
X010869Y014128D02*
X011562Y014128D01*
X011487Y014053D02*
X011487Y014053D01*
X011404Y013970D02*
X011005Y013970D01*
X011070Y013811D02*
X011315Y013811D01*
X011297Y013653D02*
X011077Y013653D01*
X011047Y013494D02*
X011297Y013494D01*
X011297Y013336D02*
X010972Y013336D01*
X010812Y013177D02*
X011297Y013177D01*
X011297Y013019D02*
X010978Y013019D01*
X011050Y012860D02*
X011297Y012860D01*
X011297Y012702D02*
X011077Y012702D01*
X011068Y012543D02*
X011297Y012543D01*
X011297Y012385D02*
X011002Y012385D01*
X010863Y012226D02*
X011160Y012226D01*
X011027Y014445D02*
X011879Y014445D01*
X012109Y014604D02*
X011077Y014604D01*
X011077Y014762D02*
X012397Y014762D01*
X012449Y014921D02*
X011025Y014921D01*
X010918Y015079D02*
X012555Y015079D01*
X012599Y015238D02*
X010874Y015238D01*
X011007Y015396D02*
X012467Y015396D01*
X012401Y015555D02*
X011072Y015555D01*
X011077Y015713D02*
X012397Y015713D01*
X012428Y015872D02*
X011045Y015872D01*
X010967Y016030D02*
X012506Y016030D01*
X012648Y016189D02*
X010825Y016189D01*
X010984Y016347D02*
X012489Y016347D01*
X012421Y016506D02*
X011052Y016506D01*
X011077Y016664D02*
X012397Y016664D01*
X012408Y016823D02*
X011065Y016823D01*
X011000Y016981D02*
X012474Y016981D01*
X012616Y017140D02*
X012175Y017140D01*
X012301Y017298D02*
X012538Y017298D01*
X012441Y017457D02*
X012322Y017457D01*
X012322Y017615D02*
X012397Y017615D01*
X012397Y017774D02*
X012322Y017774D01*
X012322Y017932D02*
X012453Y017932D01*
X012567Y018091D02*
X012289Y018091D01*
X012106Y018249D02*
X012835Y018249D01*
X012462Y018725D02*
X011012Y018725D01*
X011367Y018249D02*
X010639Y018249D01*
X010237Y017680D02*
X010237Y019070D01*
X010457Y019290D01*
X008627Y019290D01*
X007737Y020180D01*
X007737Y020680D01*
X006737Y020629D02*
X006182Y020074D01*
X006237Y020019D01*
X006237Y019180D01*
X006182Y020074D02*
X004142Y020074D01*
X004142Y020271D02*
X004327Y020271D01*
X005737Y021680D01*
X006685Y021680D01*
X006737Y021731D01*
X006737Y022680D01*
X006237Y023180D02*
X005237Y022180D01*
X004495Y023004D02*
X003822Y023004D01*
X003822Y022846D02*
X004337Y022846D01*
X004178Y022687D02*
X003822Y022687D01*
X003834Y022529D02*
X004020Y022529D01*
X003861Y022370D02*
X003834Y022370D01*
X004237Y021180D02*
X003827Y020771D01*
X003827Y020586D01*
X004142Y020271D01*
X003237Y019680D02*
X003040Y019877D01*
X003040Y020586D01*
X002331Y019680D02*
X002028Y019673D01*
X001737Y018680D01*
X001737Y017680D01*
X002567Y014164D02*
X002567Y014047D01*
X002669Y013800D01*
X002857Y013612D01*
X003103Y013510D01*
X003190Y013510D01*
X003282Y013289D01*
X003391Y013180D01*
X003282Y013071D01*
X003177Y012817D01*
X003177Y012543D01*
X003177Y012702D02*
X002797Y012702D01*
X002797Y012817D02*
X002692Y013071D01*
X002498Y013265D01*
X002478Y013273D01*
X002526Y013322D01*
X002577Y013392D01*
X002616Y013469D01*
X002643Y013551D01*
X002657Y013637D01*
X002657Y013660D01*
X001757Y013660D01*
X001757Y013700D01*
X002657Y013700D01*
X002657Y013723D01*
X002643Y013809D01*
X002616Y013891D01*
X002577Y013968D01*
X002526Y014038D01*
X002478Y014087D01*
X002498Y014095D01*
X002567Y014164D01*
X002567Y014128D02*
X002530Y014128D01*
X002576Y013970D02*
X002599Y013970D01*
X002642Y013811D02*
X002664Y013811D01*
X002657Y013653D02*
X002817Y013653D01*
X002625Y013494D02*
X003197Y013494D01*
X003263Y013336D02*
X002536Y013336D01*
X002585Y013177D02*
X003388Y013177D01*
X003260Y013019D02*
X002713Y013019D01*
X002779Y012860D02*
X003194Y012860D01*
X002797Y012817D02*
X002797Y012543D01*
X002731Y012385D02*
X003242Y012385D01*
X003345Y012226D02*
X002628Y012226D01*
X002497Y012068D02*
X003280Y012068D01*
X003215Y011909D02*
X002607Y011909D01*
X002652Y011751D02*
X003177Y011751D01*
X003177Y011592D02*
X002650Y011592D01*
X002598Y011434D02*
X003222Y011434D01*
X004191Y009532D02*
X002177Y009532D01*
X002177Y009373D02*
X004191Y009373D01*
X004227Y009215D02*
X002177Y009215D01*
X002177Y006837D02*
X007797Y006837D01*
X007797Y006679D02*
X002177Y006679D01*
X002147Y006520D02*
X007797Y006520D01*
X007797Y006362D02*
X002040Y006362D01*
X001882Y006203D02*
X007797Y006203D01*
X007797Y006045D02*
X001723Y006045D01*
X001565Y005886D02*
X007797Y005886D01*
X007662Y005728D02*
X002535Y005728D01*
X004608Y007154D02*
X004763Y007154D01*
X004763Y007313D02*
X004608Y007313D01*
X004608Y007471D02*
X004763Y007471D01*
X005055Y007154D02*
X005198Y007154D01*
X006286Y009056D02*
X007107Y009056D01*
X006832Y009215D02*
X006403Y009215D01*
X009151Y003472D02*
X009151Y003351D01*
X009200Y003233D01*
X009257Y003176D01*
X009047Y002966D01*
X009047Y002394D01*
X009360Y002081D01*
X009187Y001908D01*
X009187Y001700D01*
X009717Y001700D01*
X009717Y001660D01*
X009757Y001660D01*
X009757Y001700D01*
X010287Y001700D01*
X010717Y001700D01*
X010717Y001660D01*
X010757Y001660D01*
X010757Y001700D01*
X011287Y001700D01*
X011717Y001700D01*
X011717Y001660D01*
X011757Y001660D01*
X011757Y001700D01*
X012287Y001700D01*
X012717Y001700D01*
X012717Y001660D01*
X012757Y001660D01*
X012757Y001130D01*
X012964Y001130D01*
X013138Y001303D01*
X013321Y001120D01*
X001419Y001120D01*
X001177Y001362D01*
X001177Y001512D01*
X001229Y001490D01*
X002244Y001490D01*
X002498Y001595D01*
X002692Y001789D01*
X002797Y002043D01*
X002797Y002118D01*
X003919Y003240D01*
X008824Y003240D01*
X008986Y003307D01*
X009110Y003431D01*
X009151Y003472D01*
X009151Y003350D02*
X009029Y003350D01*
X009241Y003192D02*
X003870Y003192D01*
X003712Y003033D02*
X009114Y003033D01*
X009047Y002875D02*
X003553Y002875D01*
X003395Y002716D02*
X009047Y002716D01*
X009047Y002558D02*
X003236Y002558D01*
X003078Y002399D02*
X009047Y002399D01*
X009200Y002241D02*
X002919Y002241D01*
X002797Y002082D02*
X009359Y002082D01*
X009202Y001924D02*
X002747Y001924D01*
X002667Y001765D02*
X009187Y001765D01*
X009187Y001660D02*
X009187Y001452D01*
X009509Y001130D01*
X009717Y001130D01*
X009717Y001660D01*
X009187Y001660D01*
X009187Y001607D02*
X002509Y001607D01*
X001408Y001131D02*
X009508Y001131D01*
X009717Y001131D02*
X009757Y001131D01*
X009757Y001130D02*
X009964Y001130D01*
X010237Y001402D01*
X010509Y001130D01*
X010717Y001130D01*
X010717Y001660D01*
X009757Y001660D01*
X009757Y001130D01*
X009757Y001290D02*
X009717Y001290D01*
X009717Y001448D02*
X009757Y001448D01*
X009757Y001607D02*
X009717Y001607D01*
X009349Y001290D02*
X001249Y001290D01*
X001177Y001448D02*
X009191Y001448D01*
X009965Y001131D02*
X010508Y001131D01*
X010717Y001131D02*
X010757Y001131D01*
X010757Y001130D02*
X010964Y001130D01*
X011237Y001402D01*
X011509Y001130D01*
X011717Y001130D01*
X011717Y001660D01*
X010757Y001660D01*
X010757Y001130D01*
X010757Y001290D02*
X010717Y001290D01*
X010717Y001448D02*
X010757Y001448D01*
X010757Y001607D02*
X010717Y001607D01*
X010349Y001290D02*
X010124Y001290D01*
X010965Y001131D02*
X011508Y001131D01*
X011717Y001131D02*
X011757Y001131D01*
X011757Y001130D02*
X011964Y001130D01*
X012237Y001402D01*
X012509Y001130D01*
X012717Y001130D01*
X012717Y001660D01*
X011757Y001660D01*
X011757Y001130D01*
X011757Y001290D02*
X011717Y001290D01*
X011717Y001448D02*
X011757Y001448D01*
X011757Y001607D02*
X011717Y001607D01*
X012124Y001290D02*
X012349Y001290D01*
X012508Y001131D02*
X011965Y001131D01*
X011349Y001290D02*
X011124Y001290D01*
X012717Y001290D02*
X012757Y001290D01*
X012757Y001448D02*
X012717Y001448D01*
X012717Y001607D02*
X012757Y001607D01*
X013124Y001290D02*
X013151Y001290D01*
X013310Y001131D02*
X012965Y001131D01*
X012757Y001131D02*
X012717Y001131D01*
X014212Y002180D02*
X014427Y002394D01*
X014427Y002966D01*
X014177Y003216D01*
X014177Y003268D01*
X014110Y003429D01*
X013610Y003929D01*
X013486Y004053D01*
X013372Y004100D01*
X013612Y004100D01*
X013825Y004188D01*
X013877Y004240D01*
X019831Y004240D01*
X019976Y004095D01*
X020229Y003990D01*
X021244Y003990D01*
X021498Y004095D01*
X021692Y004289D01*
X021797Y004543D01*
X021797Y004817D01*
X021692Y005071D01*
X021582Y005180D01*
X021642Y005240D01*
X022831Y005240D01*
X022976Y005095D01*
X022996Y005087D01*
X022947Y005038D01*
X022896Y004968D01*
X022857Y004891D01*
X022830Y004809D01*
X022817Y004723D01*
X022817Y004710D01*
X023707Y004710D01*
X023707Y004650D01*
X022817Y004650D01*
X022817Y004637D01*
X022830Y004551D01*
X022857Y004469D01*
X022896Y004392D01*
X022947Y004322D01*
X022996Y004273D01*
X022978Y004266D01*
X022407Y004266D01*
X022290Y004217D01*
X022200Y004127D01*
X022151Y004009D01*
X022151Y003351D01*
X022200Y003233D01*
X022290Y003143D01*
X022407Y003094D01*
X022978Y003094D01*
X022996Y003087D01*
X022947Y003038D01*
X022896Y002968D01*
X022857Y002891D01*
X022830Y002809D01*
X022817Y002723D01*
X022817Y002710D01*
X023707Y002710D01*
X023707Y002650D01*
X022817Y002650D01*
X022817Y002637D01*
X022830Y002551D01*
X022857Y002469D01*
X022896Y002392D01*
X022947Y002322D01*
X022996Y002273D01*
X022976Y002265D01*
X022782Y002071D01*
X022677Y001817D01*
X022677Y001620D01*
X021919Y001620D01*
X021486Y002053D01*
X021324Y002120D01*
X017982Y002120D01*
X017982Y002244D01*
X017933Y002361D01*
X017843Y002451D01*
X017725Y002500D01*
X016598Y002500D01*
X016480Y002451D01*
X016390Y002361D01*
X016342Y002244D01*
X016342Y001482D01*
X016132Y001272D01*
X016132Y002244D01*
X016083Y002361D01*
X015993Y002451D01*
X015875Y002500D01*
X014748Y002500D01*
X014630Y002451D01*
X014540Y002361D01*
X014492Y002244D01*
X014492Y002120D01*
X014272Y002120D01*
X014212Y002180D01*
X014273Y002241D02*
X014492Y002241D01*
X014427Y002399D02*
X014578Y002399D01*
X014427Y002558D02*
X022829Y002558D01*
X022817Y002716D02*
X014427Y002716D01*
X014427Y002875D02*
X022852Y002875D01*
X022943Y003033D02*
X014359Y003033D01*
X014201Y003192D02*
X022241Y003192D01*
X022151Y003350D02*
X014143Y003350D01*
X014030Y003509D02*
X022151Y003509D01*
X022151Y003667D02*
X013872Y003667D01*
X013713Y003826D02*
X022151Y003826D01*
X022151Y003984D02*
X013555Y003984D01*
X013715Y004143D02*
X019928Y004143D01*
X021545Y004143D02*
X022215Y004143D01*
X021697Y004301D02*
X022968Y004301D01*
X022862Y004460D02*
X021762Y004460D01*
X021797Y004618D02*
X022820Y004618D01*
X022825Y004777D02*
X021797Y004777D01*
X021748Y004935D02*
X022879Y004935D01*
X022980Y005094D02*
X021669Y005094D01*
X022893Y002399D02*
X017895Y002399D01*
X017982Y002241D02*
X022951Y002241D01*
X022793Y002082D02*
X021416Y002082D01*
X021615Y001924D02*
X022721Y001924D01*
X022677Y001765D02*
X021774Y001765D01*
X018554Y007620D02*
X017522Y007620D01*
X017642Y007740D01*
X018324Y007740D01*
X018486Y007807D01*
X018986Y008307D01*
X019110Y008431D01*
X019177Y008592D01*
X019177Y009768D01*
X019110Y009929D01*
X018610Y010429D01*
X018486Y010553D01*
X018423Y010579D01*
X018423Y010598D01*
X018374Y010716D01*
X018284Y010806D01*
X018166Y010854D01*
X017409Y010854D01*
X017292Y010806D01*
X017237Y010751D01*
X017182Y010806D01*
X017064Y010854D01*
X016307Y010854D01*
X016189Y010806D01*
X016125Y010741D01*
X016066Y010766D01*
X015445Y010766D01*
X015486Y010807D01*
X015610Y010931D01*
X015677Y011092D01*
X015677Y011640D01*
X015684Y011643D01*
X015774Y011733D01*
X015822Y011851D01*
X015822Y012472D01*
X015987Y012307D01*
X016149Y012240D01*
X017554Y012240D01*
X018487Y011307D01*
X018649Y011240D01*
X020831Y011240D01*
X020976Y011095D01*
X021229Y010990D01*
X022244Y010990D01*
X022498Y011095D01*
X022692Y011289D01*
X022737Y011398D01*
X022782Y011289D01*
X022976Y011095D01*
X023229Y010990D01*
X023804Y010990D01*
X024297Y010498D01*
X024297Y009348D01*
X024244Y009370D01*
X023229Y009370D01*
X022976Y009265D01*
X022831Y009120D01*
X021642Y009120D01*
X021498Y009265D01*
X021318Y009339D01*
X021322Y009351D01*
X021322Y010009D01*
X021274Y010127D01*
X021184Y010217D01*
X021066Y010266D01*
X020407Y010266D01*
X020290Y010217D01*
X020200Y010127D01*
X020151Y010009D01*
X020151Y009351D01*
X020156Y009339D01*
X019976Y009265D01*
X019782Y009071D01*
X019677Y008817D01*
X019677Y008543D01*
X019782Y008289D01*
X019891Y008180D01*
X019831Y008120D01*
X019149Y008120D01*
X018987Y008053D01*
X018864Y007929D01*
X018554Y007620D01*
X018564Y007630D02*
X017532Y007630D01*
X018440Y007788D02*
X018722Y007788D01*
X018625Y007947D02*
X018881Y007947D01*
X018784Y008105D02*
X019113Y008105D01*
X018942Y008264D02*
X019807Y008264D01*
X019727Y008422D02*
X019101Y008422D01*
X019172Y008581D02*
X019677Y008581D01*
X019677Y008739D02*
X019177Y008739D01*
X019177Y008898D02*
X019710Y008898D01*
X019776Y009056D02*
X019177Y009056D01*
X019177Y009215D02*
X019925Y009215D01*
X020151Y009373D02*
X019177Y009373D01*
X019177Y009532D02*
X020151Y009532D01*
X020151Y009690D02*
X019177Y009690D01*
X019143Y009849D02*
X020151Y009849D01*
X020151Y010007D02*
X019032Y010007D01*
X018873Y010166D02*
X020238Y010166D01*
X020954Y011117D02*
X015677Y011117D01*
X015677Y011275D02*
X018565Y011275D01*
X018361Y011434D02*
X015677Y011434D01*
X015677Y011592D02*
X018202Y011592D01*
X018044Y011751D02*
X015781Y011751D01*
X015822Y011909D02*
X017885Y011909D01*
X017727Y012068D02*
X015822Y012068D01*
X015822Y012226D02*
X017568Y012226D01*
X017286Y010800D02*
X017188Y010800D01*
X016183Y010800D02*
X015478Y010800D01*
X015621Y010958D02*
X023836Y010958D01*
X023995Y010800D02*
X018290Y010800D01*
X018405Y010641D02*
X024153Y010641D01*
X024297Y010483D02*
X018556Y010483D01*
X018715Y010324D02*
X024297Y010324D01*
X024297Y010166D02*
X021235Y010166D01*
X021322Y010007D02*
X024297Y010007D01*
X024297Y009849D02*
X021322Y009849D01*
X021322Y009690D02*
X024297Y009690D01*
X024297Y009532D02*
X021322Y009532D01*
X021322Y009373D02*
X024297Y009373D01*
X022925Y009215D02*
X021548Y009215D01*
X022519Y011117D02*
X022954Y011117D01*
X022796Y011275D02*
X022677Y011275D01*
X022737Y011962D02*
X022692Y012071D01*
X022582Y012180D01*
X022692Y012289D01*
X022797Y012543D01*
X022833Y012543D01*
X022830Y012551D02*
X022857Y012469D01*
X022896Y012392D01*
X022947Y012322D01*
X022996Y012273D01*
X022976Y012265D01*
X022782Y012071D01*
X022737Y011962D01*
X022693Y012068D02*
X022780Y012068D01*
X022628Y012226D02*
X022937Y012226D01*
X022902Y012385D02*
X022731Y012385D01*
X022797Y012543D02*
X022797Y012817D01*
X022692Y013071D01*
X022582Y013180D01*
X022692Y013289D01*
X022737Y013398D01*
X022782Y013289D01*
X022976Y013095D01*
X022996Y013087D01*
X022947Y013038D01*
X022896Y012968D01*
X022857Y012891D01*
X022830Y012809D01*
X022817Y012723D01*
X022817Y012710D01*
X023707Y012710D01*
X023707Y012650D01*
X022817Y012650D01*
X022817Y012637D01*
X022830Y012551D01*
X022797Y012702D02*
X023707Y012702D01*
X022933Y013019D02*
X022713Y013019D01*
X022779Y012860D02*
X022847Y012860D01*
X022894Y013177D02*
X022585Y013177D01*
X022711Y013336D02*
X022763Y013336D01*
X022737Y013962D02*
X022692Y014071D01*
X022582Y014180D01*
X022692Y014289D01*
X022797Y014543D01*
X022797Y014817D01*
X022692Y015071D01*
X022582Y015180D01*
X022642Y015240D01*
X022831Y015240D01*
X022976Y015095D01*
X022996Y015087D01*
X022947Y015038D01*
X022896Y014968D01*
X022857Y014891D01*
X022830Y014809D01*
X022817Y014723D01*
X022817Y014710D01*
X023707Y014710D01*
X023707Y014650D01*
X022817Y014650D01*
X022817Y014637D01*
X022830Y014551D01*
X022857Y014469D01*
X022896Y014392D01*
X022947Y014322D01*
X022996Y014273D01*
X022976Y014265D01*
X022782Y014071D01*
X022737Y013962D01*
X022734Y013970D02*
X022740Y013970D01*
X022839Y014128D02*
X022634Y014128D01*
X022689Y014287D02*
X022982Y014287D01*
X022869Y014445D02*
X022756Y014445D01*
X022797Y014604D02*
X022822Y014604D01*
X022823Y014762D02*
X022797Y014762D01*
X022754Y014921D02*
X022872Y014921D01*
X022988Y015079D02*
X022683Y015079D01*
X022737Y015180D02*
X018237Y015180D01*
X017277Y015240D02*
X020831Y015240D01*
X020891Y015180D01*
X020831Y015120D01*
X017128Y015120D01*
X017184Y015143D01*
X017274Y015233D01*
X017277Y015240D01*
X017276Y015238D02*
X020833Y015238D01*
X022640Y015238D02*
X022833Y015238D01*
X022850Y017140D02*
X022623Y017140D01*
X022418Y017298D02*
X023056Y017298D01*
X022260Y018249D02*
X024151Y018249D01*
X024151Y018091D02*
X014395Y018091D01*
X014607Y017932D02*
X024151Y017932D01*
X024183Y017774D02*
X014765Y017774D01*
X014924Y017615D02*
X024297Y017615D01*
X024297Y017457D02*
X015082Y017457D01*
X015241Y017298D02*
X021056Y017298D01*
X020850Y017140D02*
X017761Y017140D01*
X016712Y017140D02*
X015399Y017140D01*
X015260Y018249D02*
X016471Y018249D01*
X016310Y018408D02*
X015271Y018408D01*
X014814Y018408D02*
X014659Y018408D01*
X014659Y018249D02*
X014814Y018249D01*
X015242Y019042D02*
X016332Y019042D01*
X016129Y019200D02*
X015327Y019200D01*
X015280Y020310D02*
X016311Y020310D01*
X017163Y020310D02*
X019297Y020310D01*
X019126Y020151D02*
X017348Y020151D01*
X017382Y019993D02*
X019092Y019993D01*
X019092Y019834D02*
X017382Y019834D01*
X017382Y019676D02*
X019092Y019676D01*
X019092Y019517D02*
X017382Y019517D01*
X017382Y019359D02*
X019092Y019359D01*
X019129Y019200D02*
X017344Y019200D01*
X017141Y019042D02*
X019332Y019042D01*
X020348Y020151D02*
X021079Y020151D01*
X021193Y020310D02*
X020177Y020310D01*
X020380Y020468D02*
X022151Y020468D01*
X022199Y020627D02*
X020530Y020627D01*
X020557Y020785D02*
X024749Y020785D01*
X024749Y020627D02*
X023274Y020627D01*
X023322Y020468D02*
X024749Y020468D01*
X024749Y020310D02*
X023322Y020310D01*
X023322Y020151D02*
X024749Y020151D01*
X024749Y019993D02*
X023322Y019993D01*
X023316Y019834D02*
X024749Y019834D01*
X024749Y019676D02*
X023216Y019676D01*
X022696Y019517D02*
X024749Y019517D01*
X024749Y019359D02*
X022537Y019359D01*
X022327Y019200D02*
X024749Y019200D01*
X024749Y019042D02*
X022242Y019042D01*
X022271Y018408D02*
X024151Y018408D01*
X024749Y020944D02*
X020557Y020944D01*
X020557Y021102D02*
X024749Y021102D01*
X024749Y021261D02*
X020557Y021261D01*
X020557Y021419D02*
X024749Y021419D01*
X024749Y021578D02*
X021670Y021578D01*
X021362Y021578D02*
X020557Y021578D01*
X020557Y021736D02*
X021057Y021736D01*
X020906Y021895D02*
X020525Y021895D01*
X020353Y022053D02*
X020840Y022053D01*
X020802Y022212D02*
X017677Y022212D01*
X016797Y022212D02*
X016606Y022212D01*
X016692Y022370D02*
X016797Y022370D01*
X016797Y022529D02*
X016692Y022529D01*
X016692Y022687D02*
X016797Y022687D01*
X016797Y022846D02*
X016692Y022846D01*
X016692Y023004D02*
X016797Y023004D01*
X016797Y023163D02*
X016692Y023163D01*
X016692Y023321D02*
X016797Y023321D01*
X016797Y023480D02*
X016692Y023480D01*
X016692Y023638D02*
X016797Y023638D01*
X016797Y023797D02*
X016692Y023797D01*
X016417Y024272D02*
X014212Y024272D01*
X014212Y024114D02*
X015313Y024114D01*
X015262Y023955D02*
X014212Y023955D01*
X014212Y023797D02*
X015262Y023797D01*
X015262Y023638D02*
X014175Y023638D01*
X014559Y023480D02*
X015262Y023480D01*
X015262Y023321D02*
X014718Y023321D01*
X014876Y023163D02*
X015262Y023163D01*
X015262Y023004D02*
X015035Y023004D01*
X015144Y022846D02*
X015262Y022846D01*
X015262Y022687D02*
X015177Y022687D01*
X015177Y022529D02*
X015262Y022529D01*
X015262Y022370D02*
X015177Y022370D01*
X015177Y022212D02*
X015348Y022212D01*
X015177Y022053D02*
X016797Y022053D01*
X016797Y021895D02*
X015177Y021895D01*
X015177Y021736D02*
X016797Y021736D01*
X016803Y021578D02*
X015177Y021578D01*
X015177Y021419D02*
X016875Y021419D01*
X017034Y021261D02*
X015177Y021261D01*
X015177Y021102D02*
X017192Y021102D01*
X017351Y020944D02*
X015177Y020944D01*
X015177Y020785D02*
X017417Y020785D01*
X017444Y020627D02*
X015177Y020627D01*
X015177Y020468D02*
X017593Y020468D01*
X018880Y020468D02*
X019093Y020468D01*
X019120Y022053D02*
X018853Y022053D01*
X018954Y022370D02*
X019019Y022370D01*
X020454Y022370D02*
X020802Y022370D01*
X020802Y022529D02*
X020551Y022529D01*
X020557Y023638D02*
X021071Y023638D01*
X020498Y023797D02*
X024749Y023797D01*
X024749Y023955D02*
X018677Y023955D01*
X018677Y024114D02*
X021995Y024114D01*
X021969Y024132D02*
X022042Y024079D01*
X022123Y024038D01*
X022209Y024010D01*
X022298Y023996D01*
X022718Y023996D01*
X022718Y024551D01*
X022755Y024551D01*
X022755Y023996D01*
X023176Y023996D01*
X023265Y024010D01*
X023351Y024038D01*
X023431Y024079D01*
X023504Y024132D01*
X023568Y024196D01*
X023621Y024269D01*
X023662Y024350D01*
X023690Y024435D01*
X023704Y024525D01*
X023704Y024551D01*
X022755Y024551D01*
X022755Y024588D01*
X023704Y024588D01*
X023704Y024615D01*
X023690Y024704D01*
X023662Y024790D01*
X023621Y024870D01*
X023568Y024944D01*
X023504Y025007D01*
X023431Y025060D01*
X023351Y025101D01*
X023265Y025129D01*
X023176Y025143D01*
X022755Y025143D01*
X022755Y024588D01*
X022718Y024588D01*
X022718Y024551D01*
X021769Y024551D01*
X021769Y024525D01*
X021783Y024435D01*
X021811Y024350D01*
X021852Y024269D01*
X021905Y024196D01*
X021969Y024132D01*
X021851Y024272D02*
X018677Y024272D01*
X018677Y024431D02*
X021785Y024431D01*
X021769Y024588D02*
X022718Y024588D01*
X022718Y025143D01*
X022298Y025143D01*
X022209Y025129D01*
X022123Y025101D01*
X022042Y025060D01*
X021969Y025007D01*
X021905Y024944D01*
X021852Y024870D01*
X021811Y024790D01*
X021783Y024704D01*
X021769Y024615D01*
X021769Y024588D01*
X021769Y024589D02*
X018677Y024589D01*
X018677Y024748D02*
X021798Y024748D01*
X021878Y024906D02*
X018677Y024906D01*
X018743Y025065D02*
X022050Y025065D01*
X021720Y025540D02*
X024749Y025540D01*
X024749Y025382D02*
X021562Y025382D01*
X021795Y025699D02*
X024749Y025699D01*
X024749Y025857D02*
X021844Y025857D01*
X021844Y026016D02*
X024749Y026016D01*
X024749Y026174D02*
X021814Y026174D01*
X021748Y026333D02*
X024749Y026333D01*
X024749Y026491D02*
X021608Y026491D01*
X021330Y026650D02*
X024749Y026650D01*
X024749Y026808D02*
X019421Y026808D01*
X019421Y026967D02*
X024749Y026967D01*
X024749Y027125D02*
X019421Y027125D01*
X019421Y027284D02*
X024749Y027284D01*
X024749Y027442D02*
X019421Y027442D01*
X019421Y027601D02*
X024749Y027601D01*
X024749Y027759D02*
X019390Y027759D01*
X019306Y027918D02*
X019977Y027918D01*
X019969Y027924D02*
X020042Y027870D01*
X020123Y027829D01*
X020209Y027802D01*
X020298Y027787D01*
X020718Y027787D01*
X020718Y028343D01*
X019769Y028343D01*
X019769Y028316D01*
X019783Y028227D01*
X019811Y028141D01*
X019852Y028060D01*
X019905Y027987D01*
X019969Y027924D01*
X019844Y028076D02*
X019125Y028076D01*
X018865Y028076D02*
X018828Y028076D01*
X018828Y028147D02*
X018802Y028147D01*
X018713Y028133D01*
X018627Y028105D01*
X018546Y028064D01*
X018473Y028011D01*
X018409Y027947D01*
X018356Y027874D01*
X018315Y027794D01*
X018287Y027708D01*
X018273Y027619D01*
X018273Y027198D01*
X018828Y027198D01*
X018828Y028147D01*
X018828Y027918D02*
X018865Y027918D01*
X018865Y027759D02*
X018828Y027759D01*
X018828Y027601D02*
X018865Y027601D01*
X018865Y027442D02*
X018828Y027442D01*
X018828Y027284D02*
X018865Y027284D01*
X018273Y027284D02*
X018009Y027284D01*
X018057Y027125D02*
X018273Y027125D01*
X018273Y026967D02*
X018057Y026967D01*
X018057Y026808D02*
X018273Y026808D01*
X018288Y026650D02*
X018057Y026650D01*
X018057Y026491D02*
X018353Y026491D01*
X018495Y026333D02*
X018057Y026333D01*
X018057Y026174D02*
X018608Y026174D01*
X018450Y026016D02*
X018046Y026016D01*
X017941Y025857D02*
X018291Y025857D01*
X018133Y025699D02*
X015322Y025699D01*
X015322Y025857D02*
X016532Y025857D01*
X016427Y026016D02*
X015320Y026016D01*
X015322Y025540D02*
X016589Y025540D01*
X016443Y025382D02*
X015322Y025382D01*
X015264Y025223D02*
X016417Y025223D01*
X017885Y025540D02*
X017974Y025540D01*
X018902Y025223D02*
X024749Y025223D01*
X024749Y025065D02*
X023423Y025065D01*
X023595Y024906D02*
X024749Y024906D01*
X024749Y024748D02*
X023676Y024748D01*
X023704Y024589D02*
X024749Y024589D01*
X024749Y024431D02*
X023688Y024431D01*
X023623Y024272D02*
X024749Y024272D01*
X024749Y024114D02*
X023478Y024114D01*
X023698Y023605D02*
X023783Y023633D01*
X023873Y023647D01*
X023899Y023647D01*
X023899Y022698D01*
X023899Y022662D01*
X023344Y022662D01*
X023344Y022241D01*
X023358Y022152D01*
X023386Y022066D01*
X023427Y021986D01*
X023480Y021913D01*
X023544Y021849D01*
X023617Y021796D01*
X023698Y021755D01*
X023783Y021727D01*
X023873Y021713D01*
X023899Y021713D01*
X023899Y022662D01*
X023936Y022662D01*
X023936Y022698D01*
X024491Y022698D01*
X024491Y023119D01*
X024477Y023208D01*
X024449Y023294D01*
X024408Y023374D01*
X024355Y023447D01*
X024292Y023511D01*
X024218Y023564D01*
X024138Y023605D01*
X024052Y023633D01*
X023963Y023647D01*
X023936Y023647D01*
X023936Y022698D01*
X023899Y022698D01*
X023344Y022698D01*
X023344Y023119D01*
X023358Y023208D01*
X023386Y023294D01*
X023427Y023374D01*
X023480Y023447D01*
X023544Y023511D01*
X023617Y023564D01*
X023698Y023605D01*
X023813Y023638D02*
X021961Y023638D01*
X022120Y023480D02*
X023512Y023480D01*
X023400Y023321D02*
X022186Y023321D01*
X022230Y023163D02*
X023351Y023163D01*
X023344Y023004D02*
X022230Y023004D01*
X022230Y022846D02*
X023344Y022846D01*
X023344Y022529D02*
X022230Y022529D01*
X022230Y022687D02*
X023899Y022687D01*
X023936Y022687D02*
X024749Y022687D01*
X024749Y022529D02*
X024491Y022529D01*
X024491Y022662D02*
X023936Y022662D01*
X023936Y021713D01*
X023963Y021713D01*
X024052Y021727D01*
X024138Y021755D01*
X024218Y021796D01*
X024292Y021849D01*
X024355Y021913D01*
X024408Y021986D01*
X024449Y022066D01*
X024477Y022152D01*
X024491Y022241D01*
X024491Y022662D01*
X024491Y022846D02*
X024749Y022846D01*
X024749Y023004D02*
X024491Y023004D01*
X024485Y023163D02*
X024749Y023163D01*
X024749Y023321D02*
X024436Y023321D01*
X024323Y023480D02*
X024749Y023480D01*
X024749Y023638D02*
X024022Y023638D01*
X023936Y023638D02*
X023899Y023638D01*
X023899Y023480D02*
X023936Y023480D01*
X023936Y023321D02*
X023899Y023321D01*
X023899Y023163D02*
X023936Y023163D01*
X023936Y023004D02*
X023899Y023004D01*
X023899Y022846D02*
X023936Y022846D01*
X023936Y022529D02*
X023899Y022529D01*
X023899Y022370D02*
X023936Y022370D01*
X023936Y022212D02*
X023899Y022212D01*
X023899Y022053D02*
X023936Y022053D01*
X023936Y021895D02*
X023899Y021895D01*
X023899Y021736D02*
X023936Y021736D01*
X024081Y021736D02*
X024749Y021736D01*
X024749Y021895D02*
X024337Y021895D01*
X024443Y022053D02*
X024749Y022053D01*
X024749Y022212D02*
X024487Y022212D01*
X024491Y022370D02*
X024749Y022370D01*
X023755Y021736D02*
X021975Y021736D01*
X022126Y021895D02*
X023498Y021895D01*
X023393Y022053D02*
X022192Y022053D01*
X022230Y022212D02*
X023349Y022212D01*
X023344Y022370D02*
X022230Y022370D01*
X022718Y024114D02*
X022755Y024114D01*
X022755Y024272D02*
X022718Y024272D01*
X022718Y024431D02*
X022755Y024431D01*
X022755Y024589D02*
X022718Y024589D01*
X022718Y024748D02*
X022755Y024748D01*
X022755Y024906D02*
X022718Y024906D01*
X022718Y025065D02*
X022755Y025065D01*
X021351Y027829D02*
X021431Y027870D01*
X021504Y027924D01*
X021568Y027987D01*
X021621Y028060D01*
X021662Y028141D01*
X021690Y028227D01*
X021704Y028316D01*
X021704Y028343D01*
X020755Y028343D01*
X020755Y028380D01*
X020718Y028380D01*
X020718Y028935D01*
X020298Y028935D01*
X020209Y028921D01*
X020123Y028893D01*
X020042Y028852D01*
X019969Y028799D01*
X019905Y028735D01*
X019852Y028662D01*
X019811Y028581D01*
X019783Y028495D01*
X019769Y028406D01*
X019769Y028380D01*
X020718Y028380D01*
X020718Y028343D01*
X020755Y028343D01*
X020755Y027787D01*
X021176Y027787D01*
X021265Y027802D01*
X021351Y027829D01*
X021496Y027918D02*
X024749Y027918D01*
X024749Y028076D02*
X021629Y028076D01*
X021691Y028235D02*
X024749Y028235D01*
X024749Y028393D02*
X021704Y028393D01*
X021704Y028406D02*
X021690Y028495D01*
X021662Y028581D01*
X021621Y028662D01*
X021568Y028735D01*
X021504Y028799D01*
X021431Y028852D01*
X021351Y028893D01*
X021265Y028921D01*
X021176Y028935D01*
X020755Y028935D01*
X020755Y028380D01*
X021704Y028380D01*
X021704Y028406D01*
X021672Y028552D02*
X024749Y028552D01*
X024749Y028710D02*
X021586Y028710D01*
X021398Y028869D02*
X024749Y028869D01*
X024749Y029027D02*
X017927Y029027D01*
X017927Y028869D02*
X020075Y028869D01*
X019887Y028710D02*
X017927Y028710D01*
X017927Y028552D02*
X019802Y028552D01*
X019769Y028393D02*
X017927Y028393D01*
X017927Y028235D02*
X019782Y028235D01*
X020718Y028235D02*
X020755Y028235D01*
X020755Y028393D02*
X020718Y028393D01*
X020718Y028552D02*
X020755Y028552D01*
X020755Y028710D02*
X020718Y028710D01*
X020718Y028869D02*
X020755Y028869D01*
X020718Y028076D02*
X020755Y028076D01*
X020755Y027918D02*
X020718Y027918D01*
X020144Y026650D02*
X019406Y026650D01*
X019340Y026491D02*
X019865Y026491D01*
X019912Y025382D02*
X019060Y025382D01*
X018273Y027442D02*
X017677Y027442D01*
X017677Y027601D02*
X018273Y027601D01*
X018304Y027759D02*
X017677Y027759D01*
X017820Y027918D02*
X018388Y027918D01*
X018569Y028076D02*
X017887Y028076D01*
X017927Y029186D02*
X024749Y029186D01*
X024749Y029344D02*
X017862Y029344D01*
X017760Y029503D02*
X024749Y029503D01*
X021814Y018408D02*
X021659Y018408D01*
X021659Y018249D02*
X021814Y018249D01*
X015910Y012385D02*
X015822Y012385D01*
X014651Y012385D02*
X014563Y012385D01*
X014651Y012226D02*
X013863Y012226D01*
X013705Y012068D02*
X014651Y012068D01*
X014651Y011909D02*
X013874Y011909D01*
X013931Y011751D02*
X014692Y011751D01*
X014797Y011592D02*
X013928Y011592D01*
X013861Y011434D02*
X014797Y011434D01*
X014709Y011275D02*
X013671Y011275D01*
X011298Y017140D02*
X010857Y017140D01*
X011063Y019834D02*
X012410Y019834D01*
X010477Y020627D02*
X010437Y020627D01*
X010437Y020785D02*
X010477Y020785D01*
X010477Y020944D02*
X010437Y020944D01*
X006237Y023180D02*
X006237Y023680D01*
X004837Y025382D02*
X000717Y025382D01*
X000717Y025540D02*
X004837Y025540D01*
X004837Y025699D02*
X000717Y025699D01*
X000717Y025857D02*
X004877Y025857D01*
X005007Y026016D02*
X000717Y026016D01*
X000717Y026174D02*
X005165Y026174D01*
X005324Y026333D02*
X000717Y026333D01*
X000717Y026491D02*
X005482Y026491D01*
X005641Y026650D02*
X000717Y026650D01*
X000717Y026808D02*
X005799Y026808D01*
X005958Y026967D02*
X000717Y026967D01*
X000717Y027125D02*
X002150Y027125D01*
X002252Y027083D02*
X002032Y027174D01*
X001864Y027342D01*
X001773Y027561D01*
X001773Y027799D01*
X001864Y028018D01*
X002032Y028186D01*
X002252Y028277D01*
X002489Y028277D01*
X002709Y028186D01*
X002877Y028018D01*
X002968Y027799D01*
X002968Y027561D01*
X002877Y027342D01*
X002709Y027174D01*
X002489Y027083D01*
X002252Y027083D01*
X002591Y027125D02*
X003882Y027125D01*
X003984Y027083D02*
X004222Y027083D01*
X004441Y027174D01*
X004609Y027342D01*
X004700Y027561D01*
X004700Y027799D01*
X004609Y028018D01*
X004441Y028186D01*
X004222Y028277D01*
X003984Y028277D01*
X003765Y028186D01*
X003597Y028018D01*
X003506Y027799D01*
X003506Y027561D01*
X003597Y027342D01*
X003765Y027174D01*
X003984Y027083D01*
X004323Y027125D02*
X006116Y027125D01*
X006275Y027284D02*
X004551Y027284D01*
X004651Y027442D02*
X006433Y027442D01*
X006592Y027601D02*
X004700Y027601D01*
X004700Y027759D02*
X006750Y027759D01*
X006909Y027918D02*
X004651Y027918D01*
X004551Y028076D02*
X007067Y028076D01*
X007226Y028235D02*
X006774Y028235D01*
X006822Y028393D02*
X007337Y028393D01*
X007337Y028552D02*
X006822Y028552D01*
X006822Y028710D02*
X007337Y028710D01*
X007337Y028869D02*
X006822Y028869D01*
X006815Y029027D02*
X007324Y029027D01*
X007165Y029186D02*
X006864Y029186D01*
X007237Y029680D02*
X007737Y029180D01*
X005937Y029503D02*
X000717Y029503D01*
X000717Y029344D02*
X005828Y029344D01*
X005758Y029186D02*
X000717Y029186D01*
X000717Y029027D02*
X005658Y029027D01*
X005651Y028869D02*
X000717Y028869D01*
X000717Y028710D02*
X005651Y028710D01*
X005651Y028552D02*
X000717Y028552D01*
X000717Y028393D02*
X005651Y028393D01*
X005699Y028235D02*
X004324Y028235D01*
X003881Y028235D02*
X002592Y028235D01*
X002819Y028076D02*
X003654Y028076D01*
X003555Y027918D02*
X002918Y027918D01*
X002968Y027759D02*
X003506Y027759D01*
X003506Y027601D02*
X002968Y027601D01*
X002918Y027442D02*
X003555Y027442D01*
X003655Y027284D02*
X002819Y027284D01*
X001922Y027284D02*
X000717Y027284D01*
X000717Y027442D02*
X001823Y027442D01*
X001773Y027601D02*
X000717Y027601D01*
X000717Y027759D02*
X001773Y027759D01*
X001823Y027918D02*
X000717Y027918D01*
X000717Y028076D02*
X001922Y028076D01*
X002149Y028235D02*
X000717Y028235D01*
X016045Y002399D02*
X016428Y002399D01*
X016342Y002241D02*
X016132Y002241D01*
X016132Y002082D02*
X016342Y002082D01*
X016342Y001924D02*
X016132Y001924D01*
X016132Y001765D02*
X016342Y001765D01*
X016342Y001607D02*
X016132Y001607D01*
X016132Y001448D02*
X016307Y001448D01*
X016149Y001290D02*
X016132Y001290D01*
D31*
X022237Y004680D03*
D32*
X003237Y014180D03*
M02*
